<svg width="13" height="6" viewBox="0 0 13 6" fill="none" xmlns="http://www.w3.org/2000/svg">
<path d="M13 3L8.73598 0.53817L8.73599 5.46183L13 3ZM3.72772e-08 3.4264L0.40625 3.4264L0.40625 2.5736L-3.72772e-08 2.5736L3.72772e-08 3.4264ZM1.21875 3.4264L2.03125 3.4264L2.03125 2.5736L1.21875 2.5736L1.21875 3.4264ZM2.84375 3.4264L3.65625 3.4264L3.65625 2.5736L2.84375 2.5736L2.84375 3.4264ZM4.46875 3.4264L5.28125 3.4264L5.28125 2.5736L4.46875 2.5736L4.46875 3.4264ZM6.09375 3.4264L6.90625 3.4264L6.90625 2.5736L6.09375 2.5736L6.09375 3.4264ZM7.71875 3.4264L8.53125 3.4264L8.53125 2.5736L7.71875 2.5736L7.71875 3.4264ZM9.34375 3.4264L10.1562 3.4264L10.1562 2.5736L9.34375 2.5736L9.34375 3.4264ZM10.9687 3.4264L11.7812 3.4264L11.7812 2.5736L10.9687 2.5736L10.9687 3.4264ZM13 3L8.73598 0.53817L8.73599 5.46183L13 3ZM3.72772e-08 3.4264L0.40625 3.4264L0.40625 2.5736L-3.72772e-08 2.5736L3.72772e-08 3.4264ZM1.21875 3.4264L2.03125 3.4264L2.03125 2.5736L1.21875 2.5736L1.21875 3.4264ZM2.84375 3.4264L3.65625 3.4264L3.65625 2.5736L2.84375 2.5736L2.84375 3.4264ZM4.46875 3.4264L5.28125 3.4264L5.28125 2.5736L4.46875 2.5736L4.46875 3.4264ZM6.09375 3.4264L6.90625 3.4264L6.90625 2.5736L6.09375 2.5736L6.09375 3.4264ZM7.71875 3.4264L8.53125 3.4264L8.53125 2.5736L7.71875 2.5736L7.71875 3.4264ZM9.34375 3.4264L10.1562 3.4264L10.1562 2.5736L9.34375 2.5736L9.34375 3.4264ZM10.9687 3.4264L11.7812 3.4264L11.7812 2.5736L10.9687 2.5736L10.9687 3.4264Z" fill="#2F4157"/>
</svg>
