<svg width="43" height="50" viewBox="0 0 43 50" fill="none" xmlns="http://www.w3.org/2000/svg">
<path d="M42.3984 13.0859L42.5156 13.0078C42.2812 12.5781 41.9297 12.1875 41.5781 11.9922L22.7109 1.13281C22.3984 0.9375 21.9688 0.859375 21.5 0.859375C21.0312 0.859375 20.6016 0.976563 20.2891 1.13281L1.53906 12.0312C0.875 12.4219 0.40625 13.3984 0.40625 14.1406V35.8984C0.40625 36.3281 0.484375 36.7969 0.757812 37.2266L0.679687 37.2656C0.875 37.5781 1.14844 37.8516 1.42188 38.0078L20.25 48.9062C20.5625 49.1016 20.9922 49.1797 21.4609 49.1797C21.9297 49.1797 22.3594 49.0625 22.6719 48.9062L41.4219 38.0078C42.0859 37.6172 42.5547 36.6406 42.5547 35.8984V14.1016C42.5938 13.7891 42.5547 13.4375 42.3984 13.0859ZM21.5 40.4297C12.9844 40.4297 6.07031 33.5156 6.07031 25C6.07031 16.4844 12.9844 9.57031 21.5 9.57031C27.2422 9.57031 32.2422 12.7344 34.8984 17.3828L29.8203 20.3125C28.1797 17.3828 25.0547 15.4297 21.5 15.4297C16.2266 15.4297 11.9297 19.7266 11.9297 25C11.9297 30.2734 16.2266 34.5703 21.5 34.5703C25.0547 34.5703 28.1797 32.6172 29.8203 29.7266L34.8594 32.6953C32.2031 37.3047 27.2031 40.4297 21.5 40.4297ZM41.4219 24.2188H40.1719L39.8203 25.7812H41.4219V27.7344H39.4688L39 30.0781H37.0859L37.5547 27.7344H36.0703L35.6016 30.0781H33.7266L34.1953 27.7344H33.2188V25.7812H34.5859L34.9375 24.2188H33.2188V22.2656H35.2891L35.7578 19.9219H37.6719L37.2031 22.2656H38.6875L39.1562 19.9219H41.0312L40.5625 22.2656H41.4219V24.2188ZM36.4609 25.7812H37.9453L38.2969 24.2188H36.8125L36.4609 25.7812Z" fill="#2F4157"/>
</svg>
