<svg width="30" height="30" viewBox="0 0 30 30" fill="none" xmlns="http://www.w3.org/2000/svg">
<rect width="30" height="30" rx="2" fill="#E0E0DF"/>
<path d="M10.541 6C10.08 5.99972 9.59499 6.085 9.08464 6.27481L9.08013 6.27679C9.07494 6.27891 9.0698 6.28119 9.0647 6.28365C9.06063 6.28555 9.05658 6.28756 9.05257 6.28968C9.04764 6.2924 9.04277 6.29528 9.03795 6.29832C9.03393 6.30076 9.02995 6.30331 9.02601 6.30597C9.02113 6.30941 9.01633 6.31302 9.01161 6.31679C9.00802 6.31961 9.00447 6.32252 9.00097 6.32552C8.99637 6.32959 8.99186 6.33382 8.98744 6.3382C8.98403 6.3415 8.98067 6.34488 8.97736 6.34835C8.97315 6.35293 8.96903 6.35765 8.96502 6.3625C8.96187 6.36625 8.95879 6.37009 8.95578 6.374C8.95183 6.37922 8.94799 6.38457 8.94427 6.39006C8.94165 6.39386 8.93909 6.39774 8.93659 6.40167C8.9329 6.40766 8.92936 6.41378 8.92595 6.42003C8.92366 6.42413 8.92143 6.4283 8.91926 6.43251C8.9162 6.43865 8.91328 6.44489 8.91049 6.45123C8.90842 6.45585 8.90641 6.46053 8.90449 6.46526C8.90193 6.47174 8.89951 6.47831 8.89724 6.48496C8.89555 6.48977 8.89393 6.49462 8.89239 6.49951C8.8904 6.50621 8.88855 6.51298 8.88685 6.51981C8.88551 6.52488 8.88424 6.52998 8.88306 6.53511C8.88104 6.54412 8.87928 6.55322 8.87777 6.56239L8.1813 11.001C8.16797 11.0861 8.1781 11.1744 8.20998 11.2511C8.24186 11.3278 8.29353 11.388 8.35626 11.4218L10.9075 12.7926L11.891 19.2201L8.26634 20.2236C8.20097 20.2416 8.1423 20.2872 8.09993 20.3532C8.05756 20.4191 8.03398 20.5014 8.03306 20.5866L8.00003 23.6182C7.99938 23.6778 8.00986 23.7368 8.03061 23.7903C8.05136 23.8438 8.08178 23.8902 8.11936 23.9258C8.15695 23.9614 8.20063 23.985 8.2468 23.9949C8.29298 24.0047 8.34032 24.0004 8.38493 23.9823L12.9406 22.1265L13.6909 21.9411C13.6964 21.9412 13.7019 21.9417 13.7074 21.9417C14.0171 21.9417 14.3087 21.7537 14.5124 21.4472C14.7159 21.141 14.8223 20.742 14.822 20.3309V20.3298C14.8222 20.0692 14.7794 19.813 14.6962 19.5823L13.9101 14.4061L17.8221 16.508L17.827 16.5103C17.8326 16.5131 17.8382 16.5157 17.8439 16.5181C17.8475 16.5196 17.8512 16.5211 17.8548 16.5224C17.8604 16.5245 17.866 16.5263 17.8717 16.5279C17.876 16.5292 17.8803 16.5303 17.8846 16.5313C17.8896 16.5324 17.8946 16.5334 17.8997 16.5342C17.9046 16.535 17.9096 16.5357 17.9146 16.5362C17.9191 16.5366 17.9236 16.5369 17.928 16.537C17.9336 16.5372 17.9392 16.5373 17.9448 16.5372C17.9486 16.5371 17.9523 16.537 17.9561 16.5368L20.5503 16.3274C20.603 16.323 20.6538 16.3007 20.6973 16.2627C20.7409 16.2248 20.7758 16.1727 20.7982 16.1119L22.3696 11.8718L22.3699 11.8712V11.8712L22.3705 11.8693C22.3888 11.8212 22.3988 11.7687 22.3999 11.7153C22.401 11.662 22.3932 11.6089 22.377 11.5596C22.3608 11.5104 22.3366 11.4661 22.3059 11.4297C22.2752 11.3933 22.2388 11.3656 22.1991 11.3485C21.965 11.1846 21.7143 11.0625 21.454 10.9858L11.878 6.2492C11.8699 6.24521 11.8615 6.24167 11.8531 6.23858C11.4389 6.08623 11.002 6.00032 10.541 6ZM9.72148 6.54403C9.76082 6.54372 9.79981 6.55343 9.83616 6.57258L18.8795 11.1923C18.9441 11.2252 18.9976 11.2862 19.0304 11.3645C19.0632 11.4427 19.0733 11.5332 19.059 11.62C19.0504 11.6385 19.043 11.6578 19.037 11.6779L19.011 11.76C18.9726 11.8291 18.9171 11.8797 18.8534 11.9037C18.7897 11.9277 18.7215 11.9236 18.6598 11.8922L9.61651 7.2713C9.55262 7.2394 9.49944 7.18015 9.46608 7.10373C9.43272 7.02731 9.42127 6.93848 9.43369 6.85247C9.44611 6.76646 9.48162 6.68864 9.53414 6.63236C9.58666 6.57608 9.65287 6.54485 9.72148 6.54403ZM20.835 11.633C20.9719 11.6345 21.1072 11.6531 21.2415 11.6886L21.6999 11.9154L20.9637 13.9021C20.9921 13.7412 21.0066 13.5817 21.0053 13.4321C21.0021 13.086 20.9138 12.7998 20.7612 12.6566C20.6087 12.5134 20.3977 12.5186 20.1897 12.6665C20.1384 12.703 20.0869 12.7483 20.0371 12.8003C20.0562 12.7677 20.0741 12.7321 20.0896 12.6938C20.1337 12.5845 20.1595 12.4578 20.1586 12.3457C20.1576 12.2333 20.1293 12.1378 20.0789 12.0892C20.0545 12.0651 20.0243 12.0525 19.9934 12.0533C19.962 12.0539 19.928 12.0664 19.8952 12.0904C19.8297 12.1385 19.7683 12.23 19.7242 12.3395C19.6801 12.449 19.6542 12.5753 19.6552 12.6876C19.6561 12.7999 19.6846 12.8954 19.7349 12.9441C19.7852 12.9927 19.853 12.9896 19.9186 12.9416C19.8123 13.0828 19.715 13.2548 19.6358 13.4459C19.4925 13.7914 19.411 14.1911 19.4142 14.5372C19.4173 14.8834 19.5075 15.1708 19.6601 15.314C19.8126 15.4573 20.0216 15.4508 20.2296 15.3029C20.3595 15.2105 20.4874 15.0643 20.6 14.8834L20.3385 15.5891L18.3867 15.7476L19.5454 12.085C20.0006 11.7779 20.4248 11.6285 20.8351 11.633L20.835 11.633ZM11.5637 13.1452L12.0618 13.4129L12.9866 18.9454C12.8925 18.9085 12.7945 18.8897 12.696 18.8895C12.6113 18.8895 12.5281 18.904 12.4476 18.9306L11.5637 13.1452ZM12.7256 13.7695L13.2548 14.0539L13.9702 18.7648C13.8846 18.7346 13.7963 18.7192 13.7075 18.7189C13.6564 18.7189 13.6059 18.7245 13.5562 18.7344L12.7256 13.7694L12.7256 13.7695ZM13.7075 19.4748C13.8276 19.4748 13.9643 19.5532 14.0643 19.7037C14.1642 19.8541 14.2333 20.0957 14.233 20.3298C14.233 20.3302 14.233 20.3305 14.233 20.3309C14.2333 20.565 14.1642 20.8066 14.0643 20.957C14.0195 21.0247 13.9646 21.0805 13.9029 21.1212L13.7119 21.1684C13.7774 20.9594 13.8109 20.7323 13.8107 20.5013V20.5003C13.8109 20.3519 13.7969 20.2041 13.769 20.06C13.7698 20.0301 13.7678 20.0002 13.763 19.9709L13.6804 19.477C13.6894 19.4761 13.6985 19.4748 13.7075 19.4748ZM12.696 19.6453C12.8162 19.6453 12.953 19.7237 13.053 19.8742C13.1529 20.0246 13.2218 20.2662 13.2216 20.5003C13.2216 20.5007 13.2216 20.501 13.2216 20.5013C13.2218 20.7354 13.1529 20.9771 13.0529 21.1275C12.9529 21.278 12.8162 21.3564 12.696 21.3564C12.5759 21.3564 12.4399 21.2779 12.34 21.1275C12.24 20.9771 12.1702 20.7354 12.1705 20.5013C12.1705 20.501 12.1705 20.5007 12.1705 20.5003C12.1702 20.2662 12.24 20.0246 12.34 19.8742C12.4399 19.7237 12.5759 19.6453 12.696 19.6453H12.696ZM11.6231 20.0651C11.5958 20.2076 11.5821 20.3537 11.5823 20.5003V20.5013C11.582 20.9124 11.6883 21.3115 11.8919 21.6177C11.918 21.657 11.9454 21.6942 11.9742 21.7294L8.59684 23.1052L8.62117 20.8963L11.6231 20.0651V20.0651Z" fill="#2F4157"/>
</svg>
