<svg width="46" height="46" viewBox="0 0 46 46" fill="none" xmlns="http://www.w3.org/2000/svg">
<path d="M8.17235 0.96895C6.72508 0.968266 5.20223 1.17832 3.59989 1.6459L3.58573 1.65079C3.56944 1.65599 3.55329 1.66163 3.53729 1.66768C3.52449 1.67236 3.5118 1.67731 3.4992 1.68252C3.48372 1.68922 3.46842 1.69632 3.45331 1.70381C3.44067 1.70983 3.42817 1.71611 3.41581 1.72266C3.4005 1.73114 3.38542 1.74003 3.37059 1.74932C3.35931 1.75626 3.34818 1.76342 3.33719 1.77081C3.32275 1.78084 3.30859 1.79126 3.29471 1.80206C3.28399 1.81017 3.27345 1.81851 3.26307 1.82706C3.24984 1.83833 3.23691 1.84995 3.2243 1.86192C3.21444 1.87116 3.20477 1.8806 3.1953 1.89024C3.18289 1.90309 3.17085 1.91628 3.15917 1.92979C3.15094 1.93917 3.1429 1.94871 3.13504 1.9584C3.12348 1.97315 3.11234 1.98823 3.10165 2.00362C3.09445 2.01374 3.08745 2.02399 3.08065 2.03438C3.07105 2.04949 3.06187 2.06486 3.05311 2.08047C3.0466 2.09187 3.04031 2.10339 3.03426 2.11504C3.02624 2.13101 3.01865 2.1472 3.01151 2.16358C3.00619 2.17542 3.00111 2.18737 2.99628 2.19942C2.99003 2.21593 2.98423 2.2326 2.97889 2.24942C2.97467 2.2619 2.97069 2.27447 2.96698 2.28711C2.96065 2.30931 2.95511 2.33172 2.95038 2.3543L0.763657 13.2881C0.7218 13.4977 0.753605 13.7153 0.853695 13.9042C0.953785 14.0931 1.11602 14.2416 1.31297 14.3246L9.32303 17.7014L12.4109 33.5347L1.03065 36.0066C0.825408 36.0508 0.641219 36.1633 0.508182 36.3257C0.375146 36.4881 0.301129 36.6909 0.298228 36.9008L0.194517 44.3686C0.192478 44.5155 0.225385 44.6609 0.290528 44.7926C0.35567 44.9244 0.451183 45.0388 0.569198 45.1264C0.687213 45.214 0.824353 45.2723 0.969321 45.2965C1.11429 45.3207 1.26293 45.3101 1.40301 45.2656L15.7065 40.694L18.0623 40.2373C18.0796 40.2376 18.0968 40.2388 18.1141 40.2388C19.0863 40.2388 20.0019 39.7757 20.6414 39.0208C21.2804 38.2665 21.6146 37.2835 21.6137 36.2708V36.2683C21.6142 35.6263 21.4797 34.9951 21.2186 34.427L18.7506 21.676L31.0332 26.8537L31.0483 26.8594C31.0659 26.8663 31.0836 26.8727 31.1016 26.8786C31.1129 26.8824 31.1243 26.886 31.1357 26.8894C31.1533 26.8943 31.171 26.8988 31.1888 26.9028C31.2022 26.9059 31.2158 26.9087 31.2294 26.9112C31.245 26.914 31.2608 26.9164 31.2766 26.9184C31.2922 26.9204 31.3079 26.922 31.3236 26.9232C31.3376 26.9242 31.3516 26.9249 31.3656 26.9252C31.3832 26.9258 31.4008 26.9259 31.4183 26.9256C31.4302 26.9255 31.442 26.9252 31.4538 26.9246L39.5989 26.409C39.7643 26.398 39.9236 26.343 40.0605 26.2496C40.1974 26.1562 40.3067 26.0279 40.3772 25.8779L45.311 15.4332L45.3118 15.4318V15.4316L45.3138 15.4271C45.3711 15.3086 45.4025 15.1793 45.406 15.0478C45.4095 14.9163 45.385 14.7855 45.3341 14.6642C45.2833 14.5429 45.2071 14.4338 45.1109 14.3441C45.0146 14.2544 44.9003 14.1863 44.7757 14.1441C44.0406 13.7403 43.2534 13.4397 42.4362 13.2508L12.3704 1.58282C12.3447 1.57299 12.3185 1.56426 12.2921 1.55665C10.9916 1.18135 9.61971 0.969731 8.17235 0.96895ZM5.5994 2.30909C5.7229 2.30832 5.84532 2.33223 5.95946 2.3794L34.353 13.7593C34.5559 13.8405 34.7237 13.9907 34.8267 14.1835C34.9298 14.3762 34.9616 14.5991 34.9165 14.813C34.8895 14.8585 34.8664 14.9062 34.8475 14.9556L34.7658 15.1577C34.6453 15.3279 34.471 15.4526 34.271 15.5117C34.071 15.5708 33.8569 15.5609 33.6633 15.4835L5.26981 4.10059C5.06923 4.02201 4.90225 3.87607 4.79751 3.68782C4.69278 3.49957 4.65682 3.28074 4.69581 3.06887C4.7348 2.857 4.8463 2.66531 5.0112 2.52667C5.17609 2.38804 5.38399 2.31111 5.5994 2.30909ZM40.4928 14.8449C40.9225 14.8486 41.3473 14.8945 41.7689 14.982L43.2084 15.5406L40.8969 20.4346C40.9859 20.0383 41.0314 19.6453 41.0272 19.2769C41.0175 18.4241 40.7401 17.7192 40.2611 17.3664C39.7821 17.0136 39.1197 17.0266 38.4667 17.3908C38.3056 17.4807 38.1439 17.5923 37.9876 17.7204C38.0475 17.6401 38.1038 17.5524 38.1523 17.458C38.2907 17.1888 38.3719 16.8768 38.3691 16.6006C38.366 16.3237 38.2768 16.0886 38.1188 15.9688C38.042 15.9095 37.9473 15.8782 37.8503 15.8803C37.7517 15.8818 37.645 15.9127 37.5421 15.9718C37.3363 16.0901 37.1436 16.3155 37.005 16.5853C36.8666 16.8552 36.7852 17.1661 36.7885 17.4429C36.7914 17.7195 36.8808 17.9548 37.0387 18.0747C37.1966 18.1943 37.4096 18.1867 37.6154 18.0685C37.2818 18.4163 36.9762 18.8399 36.7275 19.3106C36.2775 20.1618 36.0219 21.1464 36.0317 21.9991C36.0416 22.8519 36.3247 23.5597 36.8038 23.9126C37.2827 24.2655 37.939 24.2495 38.5919 23.8853C38.9999 23.6575 39.4015 23.2976 39.755 22.8519L38.9337 24.5901L32.8058 24.9808L36.4437 15.9583C37.8729 15.2019 39.2047 14.834 40.4929 14.845L40.4928 14.8449ZM11.3836 18.57L12.9474 19.2294L15.851 32.8578C15.5554 32.767 15.2479 32.7206 14.9387 32.7201C14.6726 32.7201 14.4113 32.7559 14.1586 32.8214L11.3836 18.57ZM15.0313 20.1079L16.6932 20.8085L18.9392 32.413C18.6705 32.3387 18.3931 32.3008 18.1143 32.3001C17.9539 32.3001 17.7954 32.3138 17.6392 32.3382L15.0314 20.1077L15.0313 20.1079ZM18.1142 34.1621C18.4915 34.1621 18.9207 34.3553 19.2346 34.7258C19.5484 35.0963 19.7651 35.6916 19.7642 36.2683C19.7642 36.2691 19.7642 36.27 19.7642 36.2708C19.7652 36.8475 19.5484 37.4427 19.2347 37.8133C19.0938 37.9799 18.9217 38.1173 18.728 38.2178L18.1281 38.334C18.3338 37.819 18.4391 37.2596 18.4385 36.6907V36.6883C18.4391 36.3227 18.3951 35.9585 18.3074 35.6036C18.3099 35.53 18.3035 35.4563 18.2886 35.3841L18.0292 34.1675C18.0575 34.1653 18.0862 34.1621 18.1142 34.1621ZM14.9387 34.582C15.316 34.582 15.7453 34.7752 16.0593 35.1458C16.3732 35.5164 16.5895 36.1116 16.5888 36.6883C16.5888 36.6891 16.5888 36.6899 16.5888 36.6907C16.5895 37.2674 16.3729 37.8626 16.0592 38.2332C15.7452 38.6038 15.316 38.7971 14.9386 38.7971C14.5613 38.7971 14.1346 38.6037 13.8207 38.2332C13.5068 37.8627 13.2877 37.2674 13.2885 36.6907C13.2885 36.6899 13.2885 36.6891 13.2885 36.6883C13.2877 36.1116 13.5068 35.5164 13.8207 35.1458C14.1346 34.7752 14.5613 34.582 14.9386 34.582H14.9387ZM11.5699 35.6162C11.4843 35.9671 11.4412 36.3271 11.4418 36.6883V36.6907C11.4408 37.7034 11.7748 38.6865 12.4138 39.4407C12.4957 39.5375 12.5819 39.6292 12.6724 39.7158L2.06835 43.105L2.14471 37.6636L11.5699 35.6161V35.6162Z" fill="#2F4157"/>
</svg>
