<svg width="24" height="24" viewBox="0 0 24 24" fill="none" xmlns="http://www.w3.org/2000/svg">
<path fill-rule="evenodd" clip-rule="evenodd" d="M12 2.75C14.4533 2.75 16.806 3.72455 18.5407 5.45926C20.2754 7.19397 21.25 9.54675 21.25 12C21.25 14.4533 20.2754 16.806 18.5407 18.5407C16.806 20.2754 14.4533 21.25 12 21.25C9.54675 21.25 7.19397 20.2754 5.45926 18.5407C3.72455 16.806 2.75 14.4533 2.75 12C2.75 9.54675 3.72455 7.19397 5.45926 5.45926C7.19397 3.72455 9.54675 2.75 12 2.75ZM22.75 12C22.75 6.063 17.937 1.25 12 1.25C6.063 1.25 1.25 6.063 1.25 12C1.25 17.937 6.063 22.75 12 22.75C17.937 22.75 22.75 17.937 22.75 12ZM14.03 8.47C13.8894 8.32955 13.6988 8.25066 13.5 8.25066C13.3012 8.25066 13.1106 8.32955 12.97 8.47L9.97 11.47C9.82955 11.6106 9.75066 11.8012 9.75066 12C9.75066 12.1988 9.82955 12.3894 9.97 12.53L12.97 15.53C13.0387 15.6037 13.1215 15.6628 13.2135 15.7038C13.3055 15.7448 13.4048 15.7668 13.5055 15.7686C13.6062 15.7704 13.7062 15.7518 13.7996 15.7141C13.893 15.6764 13.9778 15.6203 14.049 15.549C14.1203 15.4778 14.1764 15.393 14.2141 15.2996C14.2518 15.2062 14.2704 15.1062 14.2686 15.0055C14.2668 14.9048 14.2448 14.8055 14.2038 14.7135C14.1628 14.6215 14.1037 14.5387 14.03 14.47L11.56 12L14.03 9.53C14.1705 9.38937 14.2493 9.19875 14.2493 9C14.2493 8.80125 14.1705 8.61063 14.03 8.47Z" fill="#2F4157"/>
</svg>
