<svg width="24" height="24" viewBox="0 0 24 24" fill="none" xmlns="http://www.w3.org/2000/svg">
<path d="M12 2.25C17.3845 2.25 21.75 6.61547 21.75 12C21.75 17.3845 17.3845 21.75 12 21.75C6.61547 21.75 2.25 17.3845 2.25 12C2.25 6.61547 6.61547 2.25 12 2.25ZM10.3448 15.9698C10.2723 16.0388 10.2142 16.1216 10.1742 16.2133C10.1341 16.305 10.1128 16.4039 10.1115 16.504C10.1102 16.6041 10.129 16.7034 10.1667 16.7961C10.2044 16.8889 10.2603 16.9731 10.3311 17.0439C10.4019 17.1147 10.4861 17.1706 10.5789 17.2083C10.6716 17.246 10.7709 17.2648 10.871 17.2635C10.9711 17.2622 11.07 17.2409 11.1617 17.2008C11.2534 17.1608 11.3362 17.1027 11.4052 17.0302L15.9052 12.5302C16.0457 12.3895 16.1247 12.1988 16.1247 12C16.1247 11.8012 16.0457 11.6105 15.9052 11.4698L11.4052 6.96984C11.2634 6.83513 11.0745 6.76114 10.879 6.76364C10.6834 6.76614 10.4965 6.84495 10.3582 6.98325C10.2199 7.12155 10.1411 7.3084 10.1386 7.50398C10.1361 7.69955 10.2101 7.88836 10.3448 8.03016L14.3142 12L10.3448 15.9698Z" fill="#EFEFEE"/>
</svg>
