<svg width="32" height="32" viewBox="0 0 32 32" fill="none" xmlns="http://www.w3.org/2000/svg">
<path d="M20.7812 18.7969C22.1979 19.2865 23.474 19.9688 24.6094 20.8438C25.7448 21.7188 26.7135 22.7396 27.5156 23.9062C28.3177 25.0729 28.9323 26.3385 29.3594 27.7031C29.7865 29.0677 30 30.5 30 32H28C28 30.2917 27.6979 28.7083 27.0938 27.25C26.4896 25.7917 25.6458 24.5208 24.5625 23.4375C23.4792 22.3542 22.2135 21.5156 20.7656 20.9219C19.3177 20.3281 17.7292 20.0208 16 20C14.8854 20 13.8125 20.1406 12.7812 20.4219C11.75 20.7031 10.7917 21.099 9.90625 21.6094C9.02083 22.1198 8.21354 22.7396 7.48438 23.4688C6.75521 24.1979 6.13542 25.0052 5.625 25.8906C5.11458 26.776 4.71354 27.7396 4.42188 28.7812C4.13021 29.8229 3.98958 30.8958 4 32H2C2 30.5 2.21875 29.0677 2.65625 27.7031C3.09375 26.3385 3.71354 25.0781 4.51562 23.9219C5.31771 22.7656 6.28646 21.7552 7.42188 20.8906C8.55729 20.026 9.83333 19.3333 11.25 18.8125C10.4375 18.375 9.70833 17.8438 9.0625 17.2188C8.41667 16.5938 7.86979 15.901 7.42188 15.1406C6.97396 14.3802 6.625 13.5625 6.375 12.6875C6.125 11.8125 6 10.9167 6 10C6 8.61458 6.26042 7.31771 6.78125 6.10938C7.30208 4.90104 8.01562 3.83854 8.92188 2.92188C9.82812 2.00521 10.8854 1.29167 12.0938 0.78125C13.3021 0.270833 14.6042 0.0104167 16 0C17.3854 0 18.6823 0.260417 19.8906 0.78125C21.099 1.30208 22.1615 2.01562 23.0781 2.92188C23.9948 3.82812 24.7083 4.88542 25.2188 6.09375C25.7292 7.30208 25.9896 8.60417 26 10C26 10.9167 25.8802 11.8073 25.6406 12.6719C25.401 13.5365 25.0521 14.349 24.5938 15.1094C24.1354 15.8698 23.5885 16.5625 22.9531 17.1875C22.3177 17.8125 21.5938 18.349 20.7812 18.7969ZM8 10C8 11.1042 8.20833 12.1406 8.625 13.1094C9.04167 14.0781 9.61458 14.9219 10.3438 15.6406C11.0729 16.3594 11.9219 16.9323 12.8906 17.3594C13.8594 17.7865 14.8958 18 16 18C17.1042 18 18.1406 17.7917 19.1094 17.375C20.0781 16.9583 20.9219 16.3854 21.6406 15.6562C22.3594 14.9271 22.9323 14.0781 23.3594 13.1094C23.7865 12.1406 24 11.1042 24 10C24 8.89583 23.7917 7.85938 23.375 6.89062C22.9583 5.92188 22.3854 5.07812 21.6562 4.35938C20.9271 3.64062 20.0781 3.06771 19.1094 2.64062C18.1406 2.21354 17.1042 2 16 2C14.8958 2 13.8594 2.20833 12.8906 2.625C11.9219 3.04167 11.0781 3.61458 10.3594 4.34375C9.64062 5.07292 9.06771 5.92188 8.64062 6.89062C8.21354 7.85938 8 8.89583 8 10Z" fill="white"/>
</svg>
