<svg width="30" height="30" viewBox="0 0 30 30" fill="none" xmlns="http://www.w3.org/2000/svg">
<path d="M7.32 3.33187C9.33375 2.41687 12.0506 1.875 15 1.875C17.9494 1.875 20.6663 2.41687 22.68 3.33187C24.6094 4.20937 26.25 5.61188 26.25 7.5C26.25 9.38812 24.6094 10.7906 22.68 11.6681C20.6663 12.5831 17.9494 13.125 15 13.125C12.0506 13.125 9.33375 12.5831 7.32 11.6681C5.39062 10.7906 3.75 9.38812 3.75 7.5C3.75 5.61188 5.39062 4.20937 7.32 3.33187Z" fill="#2F4157"/>
<path d="M3.75 11.5519V13.125C3.75 15.0131 5.39062 16.4156 7.32 17.2931C9.33375 18.2063 12.0506 18.75 15 18.75C17.9494 18.75 20.6663 18.2081 22.68 17.2931C24.6094 16.4156 26.25 15.0131 26.25 13.125V11.5519C25.3931 12.3619 24.3675 12.96 23.4563 13.3744C21.1462 14.4244 18.1538 15 15 15C11.8462 15 8.85375 14.4244 6.54375 13.3744C5.6325 12.9619 4.60688 12.3619 3.75 11.5519Z" fill="#2F4157"/>
<path d="M3.75 17.1769V18.75C3.75 20.6381 5.39062 22.0406 7.32 22.9181C9.33375 23.8331 12.0506 24.375 15 24.375C17.9494 24.375 20.6663 23.8331 22.68 22.9181C24.6094 22.0406 26.25 20.6381 26.25 18.75V17.1769C25.3931 17.9869 24.3675 18.585 23.4563 18.9994C21.1462 20.0494 18.1538 20.625 15 20.625C11.8462 20.625 8.85375 20.0494 6.54375 18.9994C5.6325 18.5869 4.60688 17.9869 3.75 17.1769Z" fill="#2F4157"/>
<path d="M3.75 22.8019V24.375C3.75 26.2631 5.39062 27.6656 7.32 28.5431C9.33375 29.4581 12.0506 30 15 30C17.9494 30 20.6663 29.4581 22.68 28.5431C24.6094 27.6656 26.25 26.2631 26.25 24.375V22.8019C25.3931 23.6119 24.3675 24.21 23.4563 24.6244C21.1462 25.6744 18.1538 26.25 15 26.25C11.8462 26.25 8.85375 25.6744 6.54375 24.6244C5.6325 24.2119 4.60688 23.6119 3.75 22.8019Z" fill="#2F4157"/>
</svg>
