<svg width="30" height="30" viewBox="0 0 30 30" fill="none" xmlns="http://www.w3.org/2000/svg">
<rect width="30" height="30" rx="2" fill="#E0E0DF"/>
<path d="M10.392 7.99912C11.6003 7.45012 13.2304 7.125 15 7.125C16.7696 7.125 18.3997 7.45012 19.608 7.99912C20.7656 8.52562 21.75 9.36713 21.75 10.5C21.75 11.6329 20.7656 12.4744 19.608 13.0009C18.3997 13.5499 16.7696 13.875 15 13.875C13.2304 13.875 11.6003 13.5499 10.392 13.0009C9.23438 12.4744 8.25 11.6329 8.25 10.5C8.25 9.36713 9.23438 8.52562 10.392 7.99912Z" fill="#2F4157"/>
<path d="M8.25 12.9312V13.875C8.25 15.0079 9.23438 15.8494 10.392 16.3759C11.6003 16.9238 13.2304 17.25 15 17.25C16.7696 17.25 18.3997 16.9249 19.608 16.3759C20.7656 15.8494 21.75 15.0079 21.75 13.875V12.9312C21.2359 13.4172 20.6205 13.776 20.0738 14.0247C18.6877 14.6547 16.8923 15 15 15C13.1077 15 11.3122 14.6547 9.92625 14.0247C9.3795 13.7772 8.76412 13.4172 8.25 12.9312Z" fill="#2F4157"/>
<path d="M8.25 16.3062V17.25C8.25 18.3829 9.23438 19.2244 10.392 19.7509C11.6003 20.2999 13.2304 20.625 15 20.625C16.7696 20.625 18.3997 20.2999 19.608 19.7509C20.7656 19.2244 21.75 18.3829 21.75 17.25V16.3062C21.2359 16.7922 20.6205 17.151 20.0738 17.3997C18.6877 18.0297 16.8923 18.375 15 18.375C13.1077 18.375 11.3122 18.0297 9.92625 17.3997C9.3795 17.1522 8.76412 16.7922 8.25 16.3062Z" fill="#2F4157"/>
<path d="M8.25 19.6812V20.625C8.25 21.7579 9.23438 22.5994 10.392 23.1259C11.6003 23.6749 13.2304 24 15 24C16.7696 24 18.3997 23.6749 19.608 23.1259C20.7656 22.5994 21.75 21.7579 21.75 20.625V19.6812C21.2359 20.1672 20.6205 20.526 20.0738 20.7747C18.6877 21.4047 16.8923 21.75 15 21.75C13.1077 21.75 11.3122 21.4047 9.92625 20.7747C9.3795 20.5272 8.76412 20.1672 8.25 19.6812Z" fill="#2F4157"/>
</svg>
