<svg width="30" height="30" viewBox="0 0 30 30" fill="none" xmlns="http://www.w3.org/2000/svg">
<rect width="30" height="30" rx="2" fill="#E0E0DF"/>
<path d="M15.09 18.6225C15.09 18.7215 15.1665 18.8025 15.2587 18.8025H19.4213C19.5135 18.8025 19.59 18.7215 19.59 18.6225V17.5425C19.59 17.4435 19.5135 17.3625 19.4213 17.3625H15.2587C15.1665 17.3625 15.09 17.4435 15.09 17.5425V18.6225ZM10.7048 18.7598L15.0247 15.1372C15.1102 15.0652 15.1102 14.9325 15.0247 14.8605L10.7048 11.2403C10.6787 11.2181 10.6468 11.2038 10.6129 11.1993C10.5789 11.1947 10.5444 11.1999 10.5134 11.2144C10.4823 11.2288 10.4561 11.2519 10.4378 11.2808C10.4195 11.3097 10.4098 11.3433 10.41 11.3775V12.7883C10.41 12.8423 10.4325 12.8917 10.4753 12.9255L12.9458 15L10.4753 17.0745C10.4551 17.0913 10.4389 17.1123 10.4276 17.136C10.4164 17.1597 10.4104 17.1855 10.41 17.2118V18.6225C10.41 18.7755 10.5878 18.8588 10.7048 18.7598ZM23.28 6H6.72C6.32175 6 6 6.32175 6 6.72V23.28C6 23.6783 6.32175 24 6.72 24H23.28C23.6783 24 24 23.6783 24 23.28V6.72C24 6.32175 23.6783 6 23.28 6ZM22.38 22.38H7.62V7.62H22.38V22.38Z" fill="#2F4157"/>
</svg>
