<svg width="30" height="30" viewBox="0 0 30 30" fill="none" xmlns="http://www.w3.org/2000/svg">
<path d="M15.1172 19.7168C15.1172 19.8457 15.2168 19.9512 15.3369 19.9512H20.7568C20.877 19.9512 20.9766 19.8457 20.9766 19.7168V18.3105C20.9766 18.1816 20.877 18.0762 20.7568 18.0762H15.3369C15.2168 18.0762 15.1172 18.1816 15.1172 18.3105V19.7168ZM9.40723 19.8955L15.0322 15.1787C15.1436 15.085 15.1436 14.9121 15.0322 14.8184L9.40723 10.1045C9.37327 10.0756 9.33174 10.0571 9.28757 10.0511C9.24339 10.0451 9.19843 10.052 9.15803 10.0708C9.11762 10.0896 9.08346 10.1196 9.0596 10.1573C9.03574 10.1949 9.02319 10.2386 9.02344 10.2832V12.1201C9.02344 12.1904 9.05273 12.2549 9.1084 12.2988L12.3252 15L9.1084 17.7012C9.08221 17.7231 9.06106 17.7504 9.0464 17.7812C9.03174 17.8121 9.02391 17.8457 9.02344 17.8799V19.7168C9.02344 19.916 9.25488 20.0244 9.40723 19.8955ZM25.7812 3.28125H4.21875C3.7002 3.28125 3.28125 3.7002 3.28125 4.21875V25.7812C3.28125 26.2998 3.7002 26.7188 4.21875 26.7188H25.7812C26.2998 26.7188 26.7188 26.2998 26.7188 25.7812V4.21875C26.7188 3.7002 26.2998 3.28125 25.7812 3.28125ZM24.6094 24.6094H5.39062V5.39062H24.6094V24.6094Z" fill="#2F4157"/>
</svg>
