<svg width="51" height="46" viewBox="0 0 51 46" fill="none" xmlns="http://www.w3.org/2000/svg">
<path d="M34.0938 44.25C34.0938 44.1328 34.1328 44.0156 34.0938 43.8984C34.0156 43.7812 33.9766 43.7031 33.8984 43.625C33.7031 43.3906 33.5078 43.1953 33.2734 42.9609L30.9688 40.6172L32.7656 38.7812L33.7422 37.7266C33.8984 37.5703 34.0938 37.2578 34.0938 37.0234V36.8672C34.0938 36.5156 33.9375 36.3203 33.5859 36.2422L33.6641 36.2812H33.3906C33.1562 36.2812 32.4922 36.9062 32.3359 37.1016C31.75 37.6875 31.3594 38.2344 30.5781 38.8203V34.1719C30.5781 33.7422 30.3438 33.5469 29.9141 33.5469H29.7969C29.3672 33.5469 29.0156 33.7422 29.0156 34.1719V44.2891C29.0156 44.7188 29.3672 44.875 29.7969 44.875H29.9141C30.3438 44.875 30.5781 44.6797 30.5781 44.2891V42.4922L31.75 43.625C32.1016 43.9766 32.4531 44.2109 32.7656 44.5234C32.9219 44.6797 33.2344 44.875 33.4688 44.875H33.5859C33.9766 44.875 34.0938 44.6797 34.1719 44.3672L34.0938 44.4062V44.25ZM49.3672 36.2812H49.2109C48.3516 36.2812 47.5703 36.5156 46.8672 37.0234C45.6953 37.8828 45.0312 39.0156 45.0312 40.5V44.3281C45.0312 44.7578 45.1875 44.875 45.6172 44.875H45.7344C46.1641 44.875 46.5938 44.7188 46.5938 44.3281V40.7344C46.5938 39.9531 46.75 39.2109 47.3359 38.625C47.8047 38.1562 48.3906 37.7656 49.0547 37.7656C49.5625 37.7656 50.1484 37.6484 50.1484 37.0234C50.1484 36.5547 49.7969 36.2812 49.3672 36.2812ZM43.3516 38.2344C42.9219 37.5312 42.3359 36.9844 41.5938 36.6328C40.2266 35.9688 38.7812 35.8906 37.4531 36.6719L37.2578 36.7891C36.7109 37.1016 36.2422 37.4922 35.8906 38C34.875 39.4844 34.7578 41.1641 35.6562 42.7266L35.7344 42.8828C36.125 43.5469 36.6328 44.0938 37.2969 44.4453C38.7031 45.2266 40.2266 45.3047 41.6328 44.5234L41.75 44.4453C42.1406 44.2109 42.2188 43.8203 42.0234 43.4297C41.9453 43.2734 41.7891 43.1562 41.6328 43.0781H41.5547C41.2812 43.0391 40.5391 43.3516 40.2656 43.4688C39.7188 43.5469 39.0938 43.5859 38.5469 43.3906L41.5156 40.8125C41.9453 40.4219 42.4141 39.9922 42.8828 39.6406C43.2734 39.3281 43.6641 38.8984 43.3516 38.3516V38.2344ZM40.6562 39.6406L37.3359 42.4922C37.2188 42.375 37.1406 42.2188 37.0625 42.1016C36.8281 41.7109 36.6719 41.2422 36.6719 40.7734C36.6328 39.6016 37.0625 38.625 38.1172 38.0391C38.8984 37.5703 39.7578 37.4922 40.6172 37.8047C41.0469 37.9609 41.5547 38.2344 41.8281 38.625C41.4375 38.9766 41.0078 39.2891 40.6562 39.6406ZM9.09375 33.5469H8.97656C8.54688 33.5469 8.3125 33.7031 8.3125 34.1328V37.2969C7.53125 36.5938 6.59375 36.3203 5.5 36.3203H5.1875C4.44531 36.3203 3.74219 36.4375 3.07812 36.8281C1.67188 37.6484 0.890625 38.8594 0.890625 40.5V40.8125C0.890625 41.5547 1.08594 42.1797 1.47656 42.8438C2.29688 44.25 3.58594 44.9531 5.1875 44.9531H5.5C6.24219 44.9531 7.02344 44.8359 7.64844 44.4844C9.05469 43.6641 9.875 42.4531 9.875 40.8516V34.2109C9.875 33.7031 9.52344 33.5469 9.09375 33.5469ZM7.88281 42.0625C7.29688 43.0391 6.4375 43.5859 5.30469 43.5859C4.83594 43.5859 4.36719 43.4688 3.97656 43.2344C2.96094 42.6875 2.375 41.7891 2.375 40.6172C2.375 40.1875 2.45312 39.7969 2.64844 39.4062C3.19531 38.2734 4.09375 37.6484 5.34375 37.6484C5.96875 37.6484 6.51562 37.8438 6.98438 38.1953C7.80469 38.7812 8.27344 39.5625 8.27344 40.5781C8.3125 41.125 8.15625 41.5938 7.88281 42.0625ZM15.1875 36.2812H14.9531C14.2109 36.2812 13.4688 36.3984 12.8438 36.7891C11.4375 37.6094 10.6562 38.8203 10.6562 40.4609V40.7734C10.6562 41.5156 10.8516 42.1406 11.2422 42.8047C12.0625 44.2109 13.3516 44.9141 14.9922 44.9141H15.3047C16.0469 44.9141 16.7891 44.7969 17.4531 44.4453C18.8594 43.625 19.6797 42.4141 19.6797 40.8125V40.5C19.6797 39.7969 19.4453 39.2109 19.1328 38.625C18.2734 37.0625 16.9062 36.2812 15.1875 36.2812ZM17.6875 42.0625C17.1016 43 16.2812 43.5859 15.1484 43.5859C14.6406 43.5859 14.1328 43.4688 13.6641 43.1953C12.6875 42.6094 12.1406 41.7891 12.1406 40.6562C12.1406 40.2266 12.2188 39.8359 12.4141 39.4453C12.9609 38.3125 13.8594 37.6875 15.1094 37.6875C15.6953 37.6875 16.2031 37.8438 16.6719 38.1562C17.5312 38.7422 18.0391 39.5625 18.0391 40.6172C18.0781 41.0859 17.9609 41.5938 17.6875 42.0625ZM27.2578 36.8281L27.2188 36.8672C26.5547 36.4375 25.8125 36.2812 25.0312 36.2812H24.7188C23.9766 36.2812 23.2344 36.3984 22.6094 36.7891C21.2031 37.6094 20.4219 38.8203 20.4219 40.4219V40.7344C20.4219 41.125 20.5 41.4766 20.5781 41.8672C21.2031 44.0156 22.8828 45.2266 25.1484 45.0703C25.7734 45.0312 27.4531 44.8359 27.4531 43.8984V43.7422C27.4531 43.3906 27.1797 43.0781 26.8672 43L26.8281 42.9219H26.5547L26.4766 43.0391C26.125 43.1953 25.5391 43.5078 25.1484 43.5078C24.6797 43.5078 24.1719 43.5078 23.7422 43.2734C22.6094 42.7266 21.9453 41.8281 21.9453 40.5781C21.9453 40.1484 22.0234 39.7578 22.2188 39.3672C22.7656 38.2734 23.6641 37.5703 24.9141 37.6094C25.1484 37.6094 25.5781 37.7266 25.8125 37.8438C26.0078 37.9219 26.5156 38.2344 26.75 38.2344H26.8281L26.8672 38.1562C27.2188 38.0781 27.4922 37.8047 27.4922 37.4531V37.2969C27.4922 37.1406 27.4141 37.0234 27.3359 36.9062L27.2578 36.8281ZM2.76563 24.6406L2.80469 24.7188C5.89062 29.9531 11.2812 32.1406 17.1797 32.1406C28.5859 32.1406 38 27.0234 42.2969 16.2812C45.1875 16.4375 48.1562 15.5781 49.5625 12.8047L49.9141 12.1016L49.2109 11.7109C47.5312 10.7344 45.3047 10.6172 43.4297 11.1641C43.1953 9.13281 41.8672 7.375 40.3047 6.125L39.6797 5.61719L39.1719 6.24219C38.1172 7.45312 37.8047 9.48438 37.9609 11.0469C38.0781 12.1797 38.4297 13.3516 39.1328 14.2891C38.5859 14.6016 38 15.0312 37.4531 15.2266C36.3594 15.6172 35.1484 16.0078 33.9766 16.0078H31.3594V10.5H26.2812V0.734375H20.4219V5.42188H10.6562V10.5H5.57812V15.9688H1.20312L1.125 16.5547C0.929688 19.0547 1.24219 21.4766 2.29688 23.7812L2.76563 24.6406ZM26.2812 11.6719H30.5781V15.9688H26.2812V11.6719ZM21.2031 1.51562H25.5V5.8125H21.2031V1.51562ZM21.2031 6.59375H25.5V10.8906H21.2031V6.59375ZM21.2031 11.6719H25.5V15.9688H21.2031V11.6719ZM16.125 6.59375H20.4219V10.8906H16.125V6.59375ZM16.125 11.6719H20.4219V15.9688H16.125V11.6719ZM16.5547 23.8594C16.5547 24.5234 16.0078 25.0703 15.3438 25.0703C14.6797 25.0703 14.1328 24.5234 14.1328 23.8594C14.1328 23.1953 14.6797 22.6484 15.3438 22.6484C16.0078 22.6875 16.5547 23.1953 16.5547 23.8594ZM11.4375 6.59375H15.3438V10.8906H11.4375V6.59375ZM11.4375 11.6719H15.3438V15.9688H11.4375V11.6719ZM6.35938 11.6719H10.6562V15.9688H6.35938V11.6719ZM7.29688 26.5156C7.92188 26.5156 8.54688 26.5156 9.13281 26.4766C10.6562 26.3984 11.9844 26.2031 13.0781 25.8906C13.9766 27.9609 15.6172 29.875 18.5469 31.2812L17.1797 31.3203C11.0078 31.2813 7.6875 29.2109 4.95312 26.4766C5.77344 26.5156 6.55469 26.5156 7.29688 26.5156ZM15.3438 24.7188C15.8125 24.7188 16.2031 24.3281 16.2031 23.8594C16.2031 23.7422 16.1641 23.625 16.125 23.5469C16.0469 23.6641 15.9688 23.7422 15.8125 23.7422C15.6172 23.7422 15.4609 23.5859 15.4609 23.3906C15.4609 23.2734 15.5391 23.1562 15.6172 23.0781C15.5781 23.0391 15.4609 23 15.3438 23C14.875 23 14.4844 23.3906 14.4844 23.8594C14.5234 24.3281 14.875 24.7188 15.3438 24.7188Z" fill="#2F4157"/>
</svg>
