<svg width="163" height="86" viewBox="0 0 163 86" fill="none" xmlns="http://www.w3.org/2000/svg">
<path d="M0 70H163V82H0V70Z" fill="#FEC938"/>
<path d="M1.68 40V38.08C2.736 38.048 3.584 37.968 4.224 37.84C4.896 37.68 5.408 37.408 5.76 37.024C6.144 36.608 6.4 36.064 6.528 35.392C6.656 34.688 6.72 33.76 6.72 32.608V10.432C6.72 9.312 6.672 8.416 6.576 7.744C6.48 7.04 6.272 6.496 5.952 6.112C5.632 5.696 5.184 5.424 4.608 5.296C4.064 5.136 3.344 5.024 2.448 4.96V3.04H20.688C23.76 3.04 26.592 3.52 29.184 4.48C31.776 5.44 34.016 6.768 35.904 8.464C37.792 10.16 39.264 12.176 40.32 14.512C41.376 16.848 41.904 19.392 41.904 22.144C41.904 24.768 41.408 27.184 40.416 29.392C39.424 31.568 38.032 33.44 36.24 35.008C34.48 36.576 32.352 37.808 29.856 38.704C27.392 39.568 24.672 40 21.696 40H1.68ZM14.592 5.968C14.048 5.968 13.776 6.24 13.776 6.784V31.6C13.776 33.456 14.352 34.832 15.504 35.728C16.656 36.624 18.432 37.072 20.832 37.072C25.024 37.072 28.24 35.808 30.48 33.28C32.752 30.752 33.888 27.072 33.888 22.24C33.888 19.68 33.584 17.392 32.976 15.376C32.368 13.36 31.488 11.664 30.336 10.288C29.184 8.88 27.776 7.808 26.112 7.072C24.48 6.336 22.64 5.968 20.592 5.968H14.592ZM60.3401 26.32C57.6521 27.536 55.6201 28.672 54.2441 29.728C52.9001 30.752 52.2281 31.824 52.2281 32.944C52.2281 33.872 52.4841 34.608 52.9961 35.152C53.5081 35.696 54.1481 35.968 54.9161 35.968C55.6841 35.968 56.4041 35.84 57.0761 35.584C57.7481 35.296 58.3241 34.928 58.8041 34.48C59.2841 34.032 59.6521 33.504 59.9081 32.896C60.1961 32.256 60.3401 31.584 60.3401 30.88V26.32ZM60.3401 23.776V21.76C60.3401 19.904 60.0041 18.56 59.3321 17.728C58.6921 16.864 57.6841 16.432 56.3081 16.432C55.3801 16.432 54.6761 16.688 54.1961 17.2C53.7161 17.68 53.2681 18.496 52.8521 19.648C52.5641 20.448 52.1481 21.072 51.6041 21.52C51.0921 21.968 50.3721 22.192 49.4441 22.192C48.5481 22.192 47.8601 21.92 47.3801 21.376C46.9001 20.832 46.6601 20.064 46.6601 19.072C46.6601 17.536 47.4921 16.32 49.1561 15.424C50.8521 14.528 53.3961 14.08 56.7881 14.08C60.3721 14.08 62.9321 14.736 64.4681 16.048C66.0041 17.328 66.7721 19.488 66.7721 22.528V33.04C66.7721 35.76 67.3161 37.12 68.4041 37.12C69.0121 37.12 69.5721 36.912 70.0841 36.496L70.8041 37.888C70.3561 38.688 69.6521 39.328 68.6921 39.808C67.7641 40.256 66.7081 40.48 65.5241 40.48C64.0521 40.48 62.9321 40.032 62.1641 39.136C61.3961 38.24 61.0121 36.976 61.0121 35.344H60.7721C59.8441 37.008 58.6441 38.272 57.1721 39.136C55.7001 40 54.0201 40.432 52.1321 40.432C50.1161 40.432 48.5001 39.872 47.2841 38.752C46.0681 37.6 45.4601 36.112 45.4601 34.288C45.4601 32.88 46.0841 31.568 47.3321 30.352C48.5801 29.104 50.6601 27.888 53.5721 26.704L60.3401 23.776ZM75.0668 20.752C74.7148 19.824 74.3788 19.088 74.0588 18.544C73.7388 17.968 73.4028 17.536 73.0508 17.248C72.7308 16.928 72.3628 16.72 71.9468 16.624C71.5628 16.528 71.0988 16.48 70.5548 16.48V14.56H84.9068V16.48C84.1068 16.48 83.4668 16.512 82.9868 16.576C82.5388 16.64 82.1868 16.736 81.9308 16.864C81.7068 16.992 81.5628 17.168 81.4988 17.392C81.4348 17.584 81.4028 17.808 81.4028 18.064C81.4028 18.48 81.4828 18.96 81.6428 19.504C81.8028 20.048 81.9948 20.592 82.2188 21.136L86.7788 33.712H86.9708L92.1068 21.184C92.3308 20.64 92.5068 20.16 92.6348 19.744C92.7628 19.296 92.8268 18.896 92.8268 18.544C92.8268 17.84 92.5868 17.328 92.1068 17.008C91.6268 16.688 90.7788 16.512 89.5628 16.48V14.56H100.171V16.48C99.3068 16.48 98.5548 16.704 97.9148 17.152C97.3068 17.6 96.6668 18.592 95.9948 20.128L87.0188 40.48H82.6508L75.0668 20.752ZM112.508 32.128C112.508 33.408 112.556 34.432 112.652 35.2C112.748 35.968 112.94 36.56 113.228 36.976C113.516 37.392 113.932 37.68 114.476 37.84C115.02 37.968 115.756 38.048 116.684 38.08V40H101.564V38.08C102.46 38.048 103.18 37.952 103.724 37.792C104.3 37.6 104.732 37.312 105.02 36.928C105.34 36.512 105.548 35.952 105.644 35.248C105.772 34.512 105.836 33.584 105.836 32.464V26.56C105.836 24.704 105.804 23.184 105.74 22C105.676 20.784 105.596 19.952 105.5 19.504C105.34 18.704 104.972 18.176 104.396 17.92C103.852 17.664 102.844 17.536 101.372 17.536V15.904L112.508 14.08V32.128ZM105.452 3.904C105.452 2.848 105.804 1.968 106.508 1.264C107.244 0.527998 108.124 0.159998 109.148 0.159998C110.204 0.159998 111.084 0.527998 111.788 1.264C112.524 1.968 112.892 2.848 112.892 3.904C112.892 4.928 112.524 5.808 111.788 6.544C111.084 7.248 110.204 7.6 109.148 7.6C108.124 7.6 107.244 7.248 106.508 6.544C105.804 5.808 105.452 4.928 105.452 3.904ZM140.604 36.928H140.412C138.204 39.296 135.34 40.48 131.82 40.48C129.996 40.48 128.316 40.16 126.78 39.52C125.276 38.88 123.964 37.984 122.844 36.832C121.756 35.68 120.908 34.32 120.3 32.752C119.692 31.152 119.388 29.392 119.388 27.472C119.388 25.552 119.692 23.776 120.3 22.144C120.94 20.512 121.788 19.104 122.844 17.92C123.932 16.704 125.212 15.76 126.684 15.088C128.188 14.416 129.804 14.08 131.532 14.08C133.132 14.08 134.54 14.32 135.756 14.8C137.004 15.28 138.092 16.096 139.02 17.248H139.212V13.168C139.212 11.28 139.18 9.664 139.116 8.32C139.084 6.944 139.02 6.048 138.924 5.632C138.764 4.96 138.268 4.48 137.436 4.192C136.636 3.872 135.388 3.712 133.692 3.712V2.08L145.836 0.159998V27.616C145.836 30.016 145.852 31.872 145.884 33.184C145.948 34.464 146.044 35.44 146.172 36.112C146.236 36.528 146.332 36.864 146.46 37.12C146.588 37.376 146.78 37.584 147.036 37.744C147.292 37.872 147.628 37.968 148.044 38.032C148.492 38.064 149.052 38.08 149.724 38.08V39.952L140.604 40.48V36.928ZM139.116 26.224C139.116 25.008 138.988 23.888 138.732 22.864C138.476 21.808 138.092 20.88 137.58 20.08C137.004 19.152 136.268 18.448 135.372 17.968C134.476 17.488 133.516 17.248 132.492 17.248C130.604 17.248 129.164 18.112 128.172 19.84C127.18 21.568 126.684 24.08 126.684 27.376C126.684 30.704 127.18 33.264 128.172 35.056C129.164 36.848 130.588 37.744 132.444 37.744C133.5 37.744 134.508 37.472 135.468 36.928C136.428 36.384 137.212 35.648 137.82 34.72C138.268 34.016 138.588 33.152 138.78 32.128C139.004 31.072 139.116 29.728 139.116 28.096V26.224ZM13.776 61.552C15.824 61.552 17.472 61.488 18.72 61.36C19.968 61.232 20.928 60.976 21.6 60.592C22.304 60.176 22.8 59.584 23.088 58.816C23.376 58.048 23.6 57.008 23.76 55.696H25.536V69.76H23.76C23.568 68.48 23.312 67.456 22.992 66.688C22.672 65.92 22.16 65.344 21.456 64.96C20.752 64.544 19.792 64.288 18.576 64.192C17.392 64.064 15.792 64 13.776 64V73.888C13.776 74.912 13.904 75.776 14.16 76.48C14.448 77.184 14.912 77.76 15.552 78.208C16.192 78.624 17.04 78.928 18.096 79.12C19.152 79.28 20.448 79.36 21.984 79.36C23.808 79.36 25.344 79.232 26.592 78.976C27.872 78.72 28.928 78.272 29.76 77.632C30.592 76.992 31.264 76.144 31.776 75.088C32.288 74 32.72 72.64 33.072 71.008H34.992L34.224 82H1.68V80.08C2.736 80.048 3.6 79.952 4.272 79.792C4.944 79.632 5.456 79.36 5.808 78.976C6.16 78.592 6.4 78.048 6.528 77.344C6.656 76.64 6.72 75.728 6.72 74.608V52.432C6.72 51.312 6.656 50.416 6.528 49.744C6.432 49.04 6.224 48.496 5.904 48.112C5.584 47.696 5.12 47.424 4.512 47.296C3.936 47.136 3.168 47.024 2.208 46.96V45.04H32.544L32.88 54.448H30.816C30.624 53.104 30.32 52 29.904 51.136C29.488 50.24 28.912 49.536 28.176 49.024C27.44 48.48 26.48 48.112 25.296 47.92C24.144 47.696 22.72 47.584 21.024 47.584H15.6C14.768 47.584 14.256 47.696 14.064 47.92C13.872 48.112 13.776 48.592 13.776 49.36V61.552ZM40.7363 82H39.2483V73.264H41.2643C41.8083 75.568 42.5923 77.248 43.6163 78.304C44.6403 79.36 45.9683 79.888 47.6003 79.888C48.7843 79.888 49.6963 79.648 50.3363 79.168C51.0083 78.656 51.3443 77.968 51.3443 77.104C51.3443 76.208 50.9443 75.344 50.1443 74.512C49.3443 73.648 48.0483 72.736 46.2563 71.776C43.8243 70.464 42.0803 69.168 41.0243 67.888C39.9683 66.576 39.4403 65.104 39.4403 63.472C39.4403 62.416 39.6323 61.44 40.0163 60.544C40.4323 59.616 40.9763 58.816 41.6483 58.144C42.3523 57.472 43.1843 56.96 44.1443 56.608C45.1043 56.224 46.1443 56.032 47.2643 56.032C48.2563 56.032 49.2323 56.176 50.1923 56.464C51.1843 56.752 52.0483 57.152 52.7843 57.664L53.6483 56.512H54.8963V63.76H53.0243C52.2883 61.936 51.5203 60.624 50.7203 59.824C49.9523 59.024 49.0083 58.624 47.8883 58.624C46.9923 58.624 46.2723 58.864 45.7283 59.344C45.2163 59.824 44.9603 60.464 44.9603 61.264C44.9603 62.16 45.3443 63.008 46.1123 63.808C46.9123 64.608 48.2243 65.488 50.0483 66.448C51.3283 67.152 52.4323 67.84 53.3603 68.512C54.2883 69.184 55.0403 69.872 55.6163 70.576C56.1923 71.248 56.6083 71.968 56.8643 72.736C57.1523 73.472 57.2963 74.272 57.2963 75.136C57.2963 76.256 57.0883 77.264 56.6723 78.16C56.2563 79.056 55.6643 79.824 54.8963 80.464C54.1283 81.104 53.2003 81.6 52.1123 81.952C51.0563 82.304 49.8723 82.48 48.5603 82.48C47.1843 82.48 45.9043 82.304 44.7203 81.952C43.5363 81.568 42.5603 81.024 41.7923 80.32L40.7363 82ZM70.7276 74.128C70.7276 75.44 70.7596 76.48 70.8236 77.248C70.9196 77.984 71.0956 78.56 71.3516 78.976C71.6396 79.392 72.0556 79.664 72.5996 79.792C73.1756 79.92 73.9436 80.016 74.9036 80.08V82H59.7836V80.08C60.7436 80.016 61.5116 79.92 62.0876 79.792C62.6636 79.664 63.0956 79.408 63.3836 79.024C63.6716 78.64 63.8476 78.096 63.9116 77.392C64.0076 76.656 64.0556 75.68 64.0556 74.464V54.736C64.0556 52.816 64.0236 51.312 63.9596 50.224C63.9276 49.104 63.8476 48.256 63.7196 47.68C63.6236 47.264 63.5116 46.944 63.3836 46.72C63.2556 46.464 63.0476 46.272 62.7596 46.144C62.5036 45.984 62.1356 45.888 61.6556 45.856C61.2076 45.792 60.6316 45.76 59.9276 45.76V43.984L70.6316 42.16V59.872H70.8236C71.8156 58.56 72.9196 57.6 74.1356 56.992C75.3836 56.384 76.8716 56.08 78.5996 56.08C81.7356 56.08 84.1676 57.04 85.8956 58.96C86.7276 59.92 87.3836 61.088 87.8636 62.464C88.3436 63.808 88.5836 65.216 88.5836 66.688V74.128C88.5836 75.472 88.6156 76.528 88.6796 77.296C88.7436 78.032 88.9036 78.608 89.1596 79.024C89.4476 79.408 89.8636 79.664 90.4076 79.792C90.9516 79.92 91.7036 80.016 92.6636 80.08V82H77.6396V80.08C78.5996 80.048 79.3516 79.968 79.8956 79.84C80.4716 79.68 80.9036 79.408 81.1916 79.024C81.5116 78.64 81.7036 78.096 81.7676 77.392C81.8636 76.656 81.9116 75.68 81.9116 74.464V68.56C81.9116 65.168 81.5436 62.768 80.8076 61.36C80.0716 59.952 78.8076 59.248 77.0156 59.248C75.0956 59.248 73.5756 59.952 72.4556 61.36C71.9116 62.096 71.4796 63.008 71.1596 64.096C70.8716 65.184 70.7276 66.4 70.7276 67.744V74.128ZM119.201 77.536C116.289 80.832 112.657 82.48 108.305 82.48C106.321 82.48 104.513 82.176 102.881 81.568C101.281 80.928 99.9053 80.048 98.7533 78.928C97.6013 77.776 96.7053 76.416 96.0653 74.848C95.4253 73.28 95.1053 71.536 95.1053 69.616C95.1053 67.632 95.4413 65.824 96.1133 64.192C96.7853 62.528 97.7293 61.104 98.9453 59.92C100.193 58.704 101.649 57.76 103.313 57.088C105.009 56.416 106.865 56.08 108.881 56.08C112.273 56.08 114.913 56.992 116.801 58.816C118.689 60.64 119.633 63.2 119.633 66.496C119.633 67.008 119.553 67.328 119.393 67.456C119.233 67.552 118.785 67.6 118.049 67.6H102.593C102.465 67.888 102.401 68.416 102.401 69.184C102.401 72.32 103.073 74.8 104.417 76.624C105.793 78.448 107.649 79.36 109.985 79.36C111.329 79.36 112.657 79.056 113.969 78.448C115.313 77.84 116.609 76.976 117.857 75.856L119.201 77.536ZM109.889 64.912C111.169 64.912 111.985 64.848 112.337 64.72C112.721 64.56 112.913 64.208 112.913 63.664C112.913 62.256 112.513 61.104 111.713 60.208C110.913 59.312 109.905 58.864 108.689 58.864C107.313 58.864 106.081 59.44 104.993 60.592C103.937 61.712 103.249 63.152 102.929 64.912H109.889ZM122.559 59.2V57.04C124.479 56.496 126.079 55.68 127.359 54.592C128.671 53.472 129.647 52.192 130.287 50.752H132.735V56.56H138.255V59.2H132.735V73.936C132.735 75.92 132.943 77.328 133.359 78.16C133.807 78.992 134.543 79.408 135.567 79.408C136.815 79.408 137.759 78.832 138.399 77.68L139.407 79.072C138.511 81.344 136.399 82.48 133.071 82.48C130.863 82.48 129.135 81.968 127.887 80.944C126.671 79.92 126.063 78.48 126.063 76.624V59.2H122.559ZM140.888 59.2V57.04C142.808 56.496 144.408 55.68 145.688 54.592C147 53.472 147.976 52.192 148.616 50.752H151.064V56.56H156.584V59.2H151.064V73.936C151.064 75.92 151.272 77.328 151.688 78.16C152.135 78.992 152.872 79.408 153.896 79.408C155.144 79.408 156.088 78.832 156.728 77.68L157.736 79.072C156.84 81.344 154.728 82.48 151.4 82.48C149.192 82.48 147.464 81.968 146.216 80.944C145 79.92 144.392 78.48 144.392 76.624V59.2H140.888Z" fill="#2F4157"/>
</svg>
