<svg width="23" height="36" viewBox="0 0 23 36" fill="none" xmlns="http://www.w3.org/2000/svg">
<path d="M0 6.33333C0 3.11167 2.57436 0.5 5.75 0.5H11.5V12.1667H5.75C2.57436 12.1667 0 9.55499 0 6.33333Z" fill="#2F4157"/>
<path d="M0 18C0 14.7783 2.57436 12.1667 5.75 12.1667H11.5V23.8333H5.75C2.57436 23.8333 0 21.2217 0 18Z" fill="#2F4157"/>
<path d="M0 29.6667C0 26.445 2.57436 23.8333 5.75 23.8333H11.5V29.6667C11.5 32.8883 8.92564 35.5 5.75 35.5C2.57436 35.5 0 32.8883 0 29.6667Z" fill="#2F4157"/>
<path d="M23 6.33333C23 3.11167 20.4256 0.5 17.25 0.5H11.5V12.1667H17.25C20.4256 12.1667 23 9.55499 23 6.33333Z" fill="#2F4157"/>
<path d="M23 18C23 21.2217 20.4256 23.8333 17.25 23.8333C14.0744 23.8333 11.5 21.2217 11.5 18C11.5 14.7783 14.0744 12.1667 17.25 12.1667C20.4256 12.1667 23 14.7783 23 18Z" fill="#2F4157"/>
</svg>
