<svg width="51" height="50" viewBox="0 0 51 50" fill="none" xmlns="http://www.w3.org/2000/svg">
<path d="M48.4896 20.0021H32.4958C32.2322 20.0037 31.9708 19.953 31.7269 19.8529C31.483 19.7528 31.2614 19.6052 31.075 19.4188C30.8885 19.2323 30.741 19.0107 30.6408 18.7668C30.5407 18.5229 30.49 18.2616 30.4917 17.9979V2.00416C30.4917 1.74156 30.4397 1.48154 30.3389 1.23908C30.238 0.996626 30.0902 0.776509 29.9039 0.591401C29.7176 0.406294 29.4966 0.25985 29.2535 0.160498C29.0104 0.061145 28.7501 0.0108456 28.4875 0.0124937H22.5C22.2374 0.0108456 21.9771 0.061145 21.734 0.160498C21.4909 0.25985 21.2699 0.406294 21.0836 0.591401C20.8973 0.776509 20.7495 0.996626 20.6486 1.23908C20.5477 1.48154 20.4958 1.74156 20.4958 2.00416V18C20.4975 18.2636 20.4468 18.525 20.3466 18.7689C20.2465 19.0128 20.099 19.2344 19.9125 19.4209C19.7261 19.6073 19.5045 19.7549 19.2606 19.855C19.0167 19.9551 18.7553 20.0058 18.4917 20.0042H12.5042C12.2407 20.0055 11.9795 19.9546 11.7359 19.8544C11.4922 19.7541 11.2709 19.6065 11.0847 19.4201C10.8984 19.2337 10.7511 19.0122 10.6511 18.7684C10.5511 18.5247 10.5004 18.2635 10.5021 18V2.00416C10.5037 1.74051 10.453 1.47915 10.3529 1.23524C10.2528 0.991333 10.1052 0.769735 9.91877 0.5833C9.73234 0.396864 9.51074 0.249301 9.26683 0.149171C9.02292 0.0490397 8.76156 -0.00166629 8.49791 -6.29848e-06H2.49791C2.2353 -1.14705e-05 1.97529 0.0519158 1.73283 0.152787C1.49037 0.253659 1.27026 0.401482 1.08515 0.587752C0.900042 0.774021 0.753598 0.995059 0.654246 1.23814C0.554894 1.48123 0.504594 1.74156 0.506242 2.00416V47.9958C0.504582 48.2595 0.555288 48.5208 0.655419 48.7647C0.75555 49.0087 0.903113 49.2303 1.08955 49.4167C1.27598 49.6031 1.49758 49.7507 1.74149 49.8508C1.98539 49.9509 2.24675 50.0017 2.51041 50H48.4896C48.7532 50.0017 49.0146 49.9509 49.2585 49.8508C49.5024 49.7507 49.724 49.6031 49.9104 49.4167C50.0969 49.2303 50.2444 49.0087 50.3446 48.7647C50.4447 48.5208 50.4954 48.2595 50.4937 47.9958V22.0417C50.5005 21.7749 50.4535 21.5095 50.3556 21.2612C50.2577 21.0129 50.111 20.7869 49.924 20.5964C49.7371 20.406 49.5138 20.255 49.2673 20.1526C49.0209 20.0501 48.7564 20.0003 48.4896 20.0021ZM40.4479 36.9854C40.4496 37.3796 40.3733 37.7702 40.2236 38.1349C40.0739 38.4996 39.8537 38.8311 39.5755 39.1104C39.2973 39.3897 38.9667 39.6114 38.6027 39.7626C38.2387 39.9138 37.8484 39.9917 37.4542 39.9917H33.4458C33.0518 39.9914 32.6617 39.9133 32.2979 39.762C31.9341 39.6106 31.6038 39.389 31.3258 39.1097C31.0479 38.8304 30.8278 38.499 30.6783 38.1344C30.5287 37.7699 30.4525 37.3794 30.4542 36.9854V32.9917C30.4525 32.5976 30.5287 32.2072 30.6783 31.8426C30.8278 31.4781 31.0479 31.1467 31.3258 30.8674C31.6038 30.5881 31.9341 30.3664 32.2979 30.2151C32.6617 30.0637 33.0518 29.9857 33.4458 29.9854H37.4542C37.8484 29.9854 38.2387 30.0633 38.6027 30.2145C38.9667 30.3657 39.2973 30.5874 39.5755 30.8667C39.8537 31.146 40.0739 31.4775 40.2236 31.8422C40.3733 32.2068 40.4496 32.5975 40.4479 32.9917V36.9854Z" fill="#2F4157"/>
</svg>
