<svg width="2445" height="1449" viewBox="0 0 2445 1449" fill="none" xmlns="http://www.w3.org/2000/svg">
<ellipse cx="252.118" cy="639.992" rx="252.118" ry="639.992" fill="#084887"/>
<ellipse cx="661.918" cy="736.658" rx="252.118" ry="639.992" transform="rotate(30.9764 661.918 736.658)" fill="#8A5413"/>
<path fill-rule="evenodd" clip-rule="evenodd" d="M307.624 1264.42C420.161 1200.24 504.236 945.04 504.236 639.992C504.236 599.863 502.781 560.597 499.998 522.514C481.449 549.48 463.311 577.651 445.755 606.897C278.057 886.254 221.868 1166.22 307.624 1264.42Z" fill="#7F6947"/>
<path d="M396.569 1034.13C383.085 1034.13 371.115 1036.78 360.661 1042.08C350.358 1047.24 341.646 1054.74 334.525 1064.58C327.555 1074.43 322.252 1086.33 318.616 1100.27C314.979 1114.2 313.161 1129.89 313.161 1147.31C313.161 1170.79 316.04 1190.87 321.798 1207.54C327.707 1224.05 336.797 1236.7 349.07 1245.49C361.343 1254.13 377.176 1258.45 396.569 1258.45C410.054 1258.45 423.539 1256.93 437.023 1253.9C450.66 1250.87 465.432 1246.55 481.341 1240.95V1300.04C466.644 1306.1 452.175 1310.41 437.933 1312.99C423.69 1315.72 407.706 1317.08 389.979 1317.08C355.737 1317.08 327.555 1310.04 305.434 1295.94C283.465 1281.7 267.177 1261.85 256.571 1236.4C245.965 1210.79 240.662 1180.95 240.662 1146.86C240.662 1121.7 244.071 1098.67 250.889 1077.77C257.707 1056.86 267.707 1038.75 280.889 1023.45C294.071 1008.15 310.358 996.327 329.752 987.994C349.146 979.661 371.418 975.494 396.569 975.494C413.084 975.494 429.599 977.615 446.114 981.858C462.781 985.948 478.69 991.63 493.841 998.903L471.114 1056.17C458.69 1050.27 446.19 1045.11 433.614 1040.72C421.039 1036.33 408.69 1034.13 396.569 1034.13ZM824.519 1312.54H754.292V1169.13H622.703V1312.54H552.249V980.267H622.703V1110.49H754.292V980.267H824.519V1312.54ZM908.609 1312.54V980.267H979.062V1312.54H908.609ZM1190.88 1312.54H1120.42V1038.9H1030.2V980.267H1281.1V1038.9H1190.88V1312.54Z" fill="#F58A07"/>
<path d="M1317.01 1280.04C1317.01 1265.79 1320.88 1255.79 1328.6 1250.04C1336.48 1244.28 1345.95 1241.4 1357.01 1241.4C1367.77 1241.4 1377.01 1244.28 1384.74 1250.04C1392.62 1255.79 1396.56 1265.79 1396.56 1280.04C1396.56 1293.67 1392.62 1303.52 1384.74 1309.58C1377.01 1315.64 1367.77 1318.67 1357.01 1318.67C1345.95 1318.67 1336.48 1315.64 1328.6 1309.58C1320.88 1303.52 1317.01 1293.67 1317.01 1280.04Z" fill="#7F89A8"/>
<path d="M1737.23 1312.54H1667.01V1169.13H1535.42V1312.54H1464.97V980.267H1535.42V1110.49H1667.01V980.267H1737.23V1312.54ZM2091.78 980.267V1195.26C2091.78 1218.14 2086.7 1238.82 2076.55 1257.31C2066.55 1275.64 2051.32 1290.19 2030.87 1300.94C2010.56 1311.7 1984.96 1317.08 1954.05 1317.08C1910.11 1317.08 1876.63 1305.87 1853.6 1283.44C1830.57 1261.02 1819.05 1231.32 1819.05 1194.35V980.267H1889.28V1183.67C1889.28 1211.1 1894.88 1230.34 1906.1 1241.4C1917.31 1252.46 1933.9 1257.99 1955.87 1257.99C1971.32 1257.99 1983.82 1255.34 1993.37 1250.04C2003.06 1244.73 2010.19 1236.55 2014.73 1225.49C2019.28 1214.43 2021.55 1200.34 2021.55 1183.22V980.267H2091.78ZM2173.14 980.267H2276.55C2320.79 980.267 2354.27 986.479 2377 998.903C2399.73 1011.33 2411.09 1033.14 2411.09 1064.36C2411.09 1076.93 2409.04 1088.3 2404.95 1098.45C2401.01 1108.6 2395.26 1116.93 2387.68 1123.45C2380.11 1129.96 2370.86 1134.2 2359.95 1136.17V1138.45C2371.01 1140.72 2381.01 1144.66 2389.95 1150.26C2398.89 1155.72 2406.01 1163.75 2411.32 1174.36C2416.77 1184.81 2419.5 1198.75 2419.5 1216.17C2419.5 1236.32 2414.58 1253.6 2404.73 1267.99C2394.88 1282.38 2380.79 1293.44 2362.45 1301.17C2344.27 1308.75 2322.61 1312.54 2297.46 1312.54H2173.14V980.267ZM2243.59 1111.86H2284.5C2304.96 1111.86 2319.12 1108.67 2327 1102.31C2334.88 1095.8 2338.82 1086.25 2338.82 1073.67C2338.82 1060.95 2334.12 1051.86 2324.73 1046.4C2315.49 1040.8 2300.79 1037.99 2280.64 1037.99H2243.59V1111.86ZM2243.59 1167.76V1254.35H2289.5C2310.71 1254.35 2325.49 1250.26 2333.82 1242.08C2342.15 1233.9 2346.32 1222.92 2346.32 1209.13C2346.32 1200.95 2344.5 1193.75 2340.86 1187.54C2337.23 1181.32 2331.09 1176.48 2322.45 1172.99C2313.97 1169.51 2302.23 1167.76 2287.23 1167.76H2243.59Z" fill="#084887"/>
</svg>
