<svg width="120" height="40" viewBox="0 0 120 40" fill="none" xmlns="http://www.w3.org/2000/svg">
<path d="M1.33875 31V29.72C2.04275 29.6987 2.60808 29.6453 3.03475 29.56C3.48275 29.4533 3.82408 29.272 4.05875 29.016C4.31475 28.7387 4.48542 28.376 4.57075 27.928C4.65608 27.4587 4.69875 26.84 4.69875 26.072V11.288C4.69875 10.5413 4.66675 9.944 4.60275 9.496C4.53875 9.02667 4.40008 8.664 4.18675 8.408C3.97342 8.13067 3.67475 7.94933 3.29075 7.864C2.92808 7.75733 2.44808 7.68267 1.85075 7.64V6.36H14.0108C16.0588 6.36 17.9468 6.68 19.6748 7.32C21.4028 7.96 22.8961 8.84533 24.1548 9.976C25.4134 11.1067 26.3948 12.4507 27.0988 14.008C27.8028 15.5653 28.1548 17.2613 28.1548 19.096C28.1548 20.8453 27.8241 22.456 27.1628 23.928C26.5014 25.3787 25.5734 26.6267 24.3788 27.672C23.2054 28.7173 21.7868 29.5387 20.1228 30.136C18.4801 30.712 16.6668 31 14.6828 31H1.33875ZM9.94675 8.312C9.58408 8.312 9.40275 8.49333 9.40275 8.856V25.4C9.40275 26.6373 9.78675 27.5547 10.5548 28.152C11.3228 28.7493 12.5068 29.048 14.1068 29.048C16.9014 29.048 19.0454 28.2053 20.5388 26.52C22.0534 24.8347 22.8108 22.3813 22.8108 19.16C22.8108 17.4533 22.6081 15.928 22.2028 14.584C21.7974 13.24 21.2108 12.1093 20.4428 11.192C19.6748 10.2533 18.7361 9.53867 17.6268 9.048C16.5388 8.55733 15.3121 8.312 13.9468 8.312H9.94675ZM40.4455 21.88C38.6535 22.6907 37.2988 23.448 36.3815 24.152C35.4855 24.8347 35.0375 25.5493 35.0375 26.296C35.0375 26.9147 35.2082 27.4053 35.5495 27.768C35.8908 28.1307 36.3175 28.312 36.8295 28.312C37.3415 28.312 37.8215 28.2267 38.2695 28.056C38.7175 27.864 39.1015 27.6187 39.4215 27.32C39.7415 27.0213 39.9868 26.6693 40.1575 26.264C40.3495 25.8373 40.4455 25.3893 40.4455 24.92V21.88ZM40.4455 20.184V18.84C40.4455 17.6027 40.2215 16.7067 39.7735 16.152C39.3468 15.576 38.6748 15.288 37.7575 15.288C37.1388 15.288 36.6695 15.4587 36.3495 15.8C36.0295 16.12 35.7308 16.664 35.4535 17.432C35.2615 17.9653 34.9842 18.3813 34.6215 18.68C34.2802 18.9787 33.8002 19.128 33.1815 19.128C32.5842 19.128 32.1255 18.9467 31.8055 18.584C31.4855 18.2213 31.3255 17.7093 31.3255 17.048C31.3255 16.024 31.8802 15.2133 32.9895 14.616C34.1202 14.0187 35.8162 13.72 38.0775 13.72C40.4668 13.72 42.1735 14.1573 43.1975 15.032C44.2215 15.8853 44.7335 17.3253 44.7335 19.352V26.36C44.7335 28.1733 45.0962 29.08 45.8215 29.08C46.2268 29.08 46.6002 28.9413 46.9415 28.664L47.4215 29.592C47.1228 30.1253 46.6535 30.552 46.0135 30.872C45.3948 31.1707 44.6908 31.32 43.9015 31.32C42.9202 31.32 42.1735 31.0213 41.6615 30.424C41.1495 29.8267 40.8935 28.984 40.8935 27.896H40.7335C40.1148 29.0053 39.3148 29.848 38.3335 30.424C37.3522 31 36.2322 31.288 34.9735 31.288C33.6295 31.288 32.5522 30.9147 31.7415 30.168C30.9308 29.4 30.5255 28.408 30.5255 27.192C30.5255 26.2533 30.9415 25.3787 31.7735 24.568C32.6055 23.736 33.9922 22.9253 35.9335 22.136L40.4455 20.184ZM50.2633 18.168C50.0286 17.5493 49.8046 17.0587 49.5913 16.696C49.3779 16.312 49.1539 16.024 48.9193 15.832C48.7059 15.6187 48.4606 15.48 48.1833 15.416C47.9273 15.352 47.6179 15.32 47.2553 15.32V14.04H56.8233V15.32C56.2899 15.32 55.8633 15.3413 55.5433 15.384C55.2446 15.4267 55.0099 15.4907 54.8393 15.576C54.6899 15.6613 54.5939 15.7787 54.5513 15.928C54.5086 16.056 54.4873 16.2053 54.4873 16.376C54.4873 16.6533 54.5406 16.9733 54.6473 17.336C54.7539 17.6987 54.8819 18.0613 55.0312 18.424L58.0713 26.808H58.1993L61.6233 18.456C61.7726 18.0933 61.8899 17.7733 61.9753 17.496C62.0606 17.1973 62.1033 16.9307 62.1033 16.696C62.1033 16.2267 61.9433 15.8853 61.6233 15.672C61.3033 15.4587 60.7379 15.3413 59.9273 15.32V14.04H66.9993V15.32C66.4233 15.32 65.9219 15.4693 65.4953 15.768C65.0899 16.0667 64.6633 16.728 64.2153 17.752L58.2313 31.32H55.3193L50.2633 18.168ZM75.224 25.752C75.224 26.6053 75.256 27.288 75.32 27.8C75.384 28.312 75.512 28.7067 75.704 28.984C75.896 29.2613 76.1733 29.4533 76.536 29.56C76.8987 29.6453 77.3893 29.6987 78.008 29.72V31H67.928V29.72C68.5253 29.6987 69.0053 29.6347 69.368 29.528C69.752 29.4 70.04 29.208 70.232 28.952C70.4453 28.6747 70.584 28.3013 70.648 27.832C70.7333 27.3413 70.776 26.7227 70.776 25.976V22.04C70.776 20.8027 70.7547 19.7893 70.712 19C70.6693 18.1893 70.616 17.6347 70.552 17.336C70.4453 16.8027 70.2 16.4507 69.816 16.28C69.4533 16.1093 68.7813 16.024 67.8 16.024V14.936L75.224 13.72V25.752ZM70.52 6.936C70.52 6.232 70.7547 5.64533 71.224 5.176C71.7147 4.68533 72.3013 4.44 72.984 4.44C73.688 4.44 74.2747 4.68533 74.744 5.176C75.2347 5.64533 75.48 6.232 75.48 6.936C75.48 7.61867 75.2347 8.20533 74.744 8.696C74.2747 9.16533 73.688 9.4 72.984 9.4C72.3013 9.4 71.7147 9.16533 71.224 8.696C70.7547 8.20533 70.52 7.61867 70.52 6.936ZM93.9545 28.952H93.8265C92.3545 30.5307 90.4452 31.32 88.0985 31.32C86.8825 31.32 85.7625 31.1067 84.7385 30.68C83.7358 30.2533 82.8612 29.656 82.1145 28.888C81.3892 28.12 80.8238 27.2133 80.4185 26.168C80.0132 25.1013 79.8105 23.928 79.8105 22.648C79.8105 21.368 80.0132 20.184 80.4185 19.096C80.8452 18.008 81.4105 17.0693 82.1145 16.28C82.8398 15.4693 83.6932 14.84 84.6745 14.392C85.6772 13.944 86.7545 13.72 87.9065 13.72C88.9732 13.72 89.9118 13.88 90.7225 14.2C91.5545 14.52 92.2798 15.064 92.8985 15.832H93.0265V13.112C93.0265 11.8533 93.0052 10.776 92.9625 9.88C92.9412 8.96267 92.8985 8.36533 92.8345 8.088C92.7278 7.64 92.3972 7.32 91.8425 7.128C91.3092 6.91467 90.4772 6.808 89.3465 6.808V5.72L97.4425 4.44V22.744C97.4425 24.344 97.4532 25.5813 97.4745 26.456C97.5172 27.3093 97.5812 27.96 97.6665 28.408C97.7092 28.6853 97.7732 28.9093 97.8585 29.08C97.9438 29.2507 98.0718 29.3893 98.2425 29.496C98.4132 29.5813 98.6372 29.6453 98.9145 29.688C99.2132 29.7093 99.5865 29.72 100.035 29.72V30.968L93.9545 31.32V28.952ZM92.9625 21.816C92.9625 21.0053 92.8772 20.2587 92.7065 19.576C92.5358 18.872 92.2798 18.2533 91.9385 17.72C91.5545 17.1013 91.0638 16.632 90.4665 16.312C89.8692 15.992 89.2292 15.832 88.5465 15.832C87.2878 15.832 86.3278 16.408 85.6665 17.56C85.0052 18.712 84.6745 20.3867 84.6745 22.584C84.6745 24.8027 85.0052 26.5093 85.6665 27.704C86.3278 28.8987 87.2772 29.496 88.5145 29.496C89.2185 29.496 89.8905 29.3147 90.5305 28.952C91.1705 28.5893 91.6932 28.0987 92.0985 27.48C92.3972 27.0107 92.6105 26.4347 92.7385 25.752C92.8878 25.048 92.9625 24.152 92.9625 23.064V21.816Z" fill="#2F4157"/>
<circle cx="115" cy="25" r="5" fill="#FEC938"/>
</svg>
