<svg width="59" height="40" viewBox="0 0 59 40" fill="none" xmlns="http://www.w3.org/2000/svg">
<path fill-rule="evenodd" clip-rule="evenodd" d="M34.6917 6.36635C33.7252 7.33285 32.75 9.78434 32.75 11.2472C32.75 11.7672 32.4264 12.0691 31.3672 12.5377C29.1742 13.5078 29.2077 13.5505 29.3882 10.0115C29.5293 7.25186 29.4901 6.87351 29.0643 6.87351C28.304 6.87351 27.7499 8.03485 27.397 10.3677C27.2182 11.5497 27.0718 12.5637 27.0718 12.6208C27.0718 12.6778 26.7018 12.7194 26.25 12.7128C25.233 12.6985 25.1352 13.4692 26.1005 13.8927C27.5267 14.5185 26.7111 18.1749 24.4828 21.1437C24.0821 21.6778 23.6263 22.115 23.4703 22.115C23.0119 22.115 23.1452 17.2452 23.6583 15.2426C24.1517 13.3159 24.0776 12.5517 23.3977 12.5517C22.5119 12.5517 21.5974 14.0185 21.3485 15.8382C21.2131 16.8274 20.7771 18.2748 20.3793 19.0542C19.5452 20.6886 18.0049 22.2725 17.5327 21.9805C17.1319 21.7328 17.1287 17.9753 17.5276 16.138C18.2275 12.9157 18.2329 12.5517 17.5793 12.5517C17.2464 12.5517 16.5564 12.942 16.0459 13.4187C15.2372 14.1742 15.1177 14.4865 15.1177 15.8424C15.1177 17.0094 14.8864 17.8334 14.1933 19.1334C13.2481 20.9068 11.9758 22.3601 11.6519 22.0361C11.5524 21.9366 11.4247 20.6025 11.3683 19.0715C11.2078 14.7175 10.6432 8.33341 10.3082 7.07882C10.091 6.26504 9.86264 5.96679 9.5088 6.03493C8.701 6.19033 6.9031 8.83877 4.97131 12.7194L3.16086 16.3552L2.04166 16.3215C1.03781 16.291 0.922154 16.3645 0.922154 17.0345C0.922154 17.6262 1.0919 17.8011 1.73862 17.8758L2.55509 17.9696L1.58919 19.7843C1.05783 20.7824 0.441597 21.93 0.21925 22.3347C-0.284915 23.2531 0.0880569 23.6918 1.25926 23.5579C2.0566 23.4667 2.18869 23.2534 3.12171 20.546L4.12556 17.6322H5.69932C6.5648 17.6322 7.69297 17.5482 8.2067 17.4454L9.14062 17.2587V20.0753C9.14062 23.187 9.33637 23.6093 10.7774 23.6093C11.9848 23.6093 12.8742 22.9542 13.896 21.3129L14.7307 19.9719L14.9246 21.3867C15.1685 23.1679 15.5364 23.6093 16.7751 23.6093C17.9873 23.6093 19.3949 22.494 20.2173 20.882C20.5422 20.2451 20.8622 19.7242 20.9286 19.7242C20.9946 19.7242 21.0314 20.4722 21.0099 21.3867C20.9671 23.2193 21.2537 23.597 22.6933 23.6048C23.6505 23.6099 24.955 22.3983 25.8833 20.6423L26.4478 19.5748L26.4609 21.014C26.4798 23.0609 26.8518 23.6093 28.2218 23.6093C29.451 23.6093 30.3493 22.8774 31.5229 20.9196L32.1502 19.8736L32.1511 21.5601C32.1523 23.3526 32.3615 23.6093 33.8205 23.6093C34.489 23.6093 34.5431 23.4966 34.5431 22.1055C34.5431 21.2782 34.7496 20.1076 35.0019 19.5039C35.5685 18.1474 37.7328 15.2414 38.1763 15.2414C38.4013 15.2414 38.468 16.4664 38.3909 19.191L38.2788 23.1407L39.0588 23.418C40.2748 23.8502 41.2521 23.4309 42.1935 22.0723L43.059 20.8234L43.2418 21.9486C43.4385 23.1589 43.8787 23.5973 44.9038 23.6048C46.0266 23.6126 46.5056 23.2743 47.5337 21.748L48.5333 20.2633L49.0474 21.3467C49.7667 22.8622 50.8226 23.6093 52.2454 23.6093C53.7624 23.6093 55.2295 22.9082 56.3265 21.6584C57.5175 20.3022 59.1223 16.9535 58.9926 16.0958C58.9062 15.5241 58.7075 15.7581 57.9409 17.3334C55.6454 22.0517 52.6249 23.5125 51.1325 20.6267C50.4867 19.3775 50.5503 19.2242 51.8019 19.0189C54.9345 18.5049 56.9371 15.5397 55.4386 13.6348C54.8209 12.8497 54.647 12.7947 53.1641 12.9175C50.9514 13.101 49.6977 14.3161 48.8767 17.0731C48.2799 19.076 46.676 21.8254 45.9743 22.0469C45.4169 22.2229 45.4904 17.7455 46.0836 15.3843C46.8027 12.5212 46.2083 11.7224 44.6043 13.3966C43.937 14.0932 43.7639 14.6048 43.619 16.3104C43.4857 17.8836 43.2185 18.7619 42.5049 19.9752C41.9885 20.853 41.3238 21.7017 41.0276 21.8619C40.5184 22.1368 40.4939 21.9148 40.5794 17.764C40.6565 14.0083 40.6009 13.3311 40.193 13.069C39.1751 12.4148 38.2298 13.0837 36.44 15.7243C34.7807 18.1723 34.6878 18.2568 34.6008 17.3952C34.5419 16.8116 34.8261 15.9195 35.3982 14.8935C36.6184 12.7041 37.2328 10.4209 37.2328 8.0743C37.2328 5.17334 36.4265 4.63151 34.6917 6.36635ZM35.7556 7.87467C35.3689 8.89197 34.8399 12.1268 34.8686 13.2989L34.8904 14.1954L35.4487 13C36.246 11.2918 36.8309 7.84628 36.3969 7.41234C36.1465 7.1619 35.9815 7.28055 35.7556 7.87467ZM44.8748 7.94071C44.064 8.7518 44.3637 10.4597 45.3168 10.4597C46.0346 10.4597 46.7961 9.34861 46.7961 8.30113C46.7961 7.62154 46.6646 7.47122 46.0702 7.47122C45.6712 7.47122 45.1333 7.68251 44.8748 7.94071ZM7.54952 9.89492C6.72229 11.3064 5.16438 14.6622 4.82488 15.7644C4.62256 16.4204 4.67246 16.4368 6.85439 16.4368H9.0916L8.92753 12.9253C8.72282 8.53065 8.55935 8.17143 7.54952 9.89492ZM30.606 13.7005C29.4707 14.0998 29.1772 14.3529 29.0371 15.0528C28.7744 16.3663 28.832 22.115 29.1079 22.115C29.5735 22.115 30.898 20.4603 31.6721 18.9122C32.2901 17.6756 32.4512 16.9186 32.4512 15.2513C32.4512 14.0953 32.3504 13.1629 32.227 13.1793C32.1036 13.1958 31.3744 13.4303 30.606 13.7005ZM52.0517 14.3164C51.5622 14.8574 50.6812 17.2942 50.6812 18.1071C50.6812 18.3913 50.9188 18.4188 51.6256 18.2162C53.5185 17.6735 54.7074 15.7255 53.9779 14.3625C53.5657 13.592 52.7254 13.5723 52.0517 14.3164ZM12.5774 32.6938C10.5264 33.1651 6.63563 34.6471 4.65782 35.7101C3.48243 36.3419 3.40951 36.4346 4.07775 36.4465C5.32098 36.4683 5.95604 37.118 5.79675 38.2044C5.72024 38.7244 5.68558 39.1497 5.71935 39.1497C5.75312 39.1497 6.55344 38.6843 7.49812 38.1156C9.7428 36.7639 12.2813 35.9391 15.4165 35.5425C18.4164 35.1632 20.5248 35.3034 29.3132 36.4662C38.6817 37.7059 41.5208 37.9542 46.3245 37.9542C53.604 37.9542 56.6583 36.9776 56.6583 34.6492C56.6583 33.8301 55.3475 33.0369 54.6571 33.4386C54.1545 33.7309 54.1593 33.7527 54.7307 33.7613C56.2169 33.7831 56.5115 35.3148 55.1637 36.0117C53.5983 36.8213 51.2705 37.095 46.049 37.0837C40.2671 37.0711 37.8305 36.7245 30.9569 34.9373C21.4791 32.4727 16.2928 31.8394 12.5774 32.6938Z" fill="black"/>
<path d="M42.1383 8.5953L46.7257 0.000246801L46.7257 12.3433L42.1383 8.5953Z" fill="black"/>
<path d="M46.7692 12.252L51.2584 8.5843L46.7692 0.173244L46.7692 12.252Z" stroke="black" stroke-width="0.0865554"/>
<path d="M51.3134 8.5953L46.7259 9.69445L46.7259 12.3433L51.3134 8.5953Z" fill="black"/>
</svg>
