<svg width="129" height="23" viewBox="0 0 129 23" fill="none" xmlns="http://www.w3.org/2000/svg">
<path fill-rule="evenodd" clip-rule="evenodd" d="M4.55026 21.8379C5.92309 21.8822 7.04128 21.9043 7.90483 21.9043C9.11159 21.9043 10.1634 21.7549 11.0601 21.456C11.9569 21.157 12.6654 20.7419 13.1858 20.2105C13.7172 19.668 14.1102 19.0535 14.3649 18.3671C14.6195 17.6696 14.7468 16.8946 14.7468 16.0422C14.7468 13.2079 13.4404 11.6746 10.8276 11.4421C11.8572 11.2317 12.6433 10.7058 13.1858 9.86443C13.7283 9.02302 13.9995 8.01554 13.9995 6.84199C13.9995 6.07808 13.8888 5.41935 13.6674 4.86579C13.457 4.31223 13.0972 3.82509 12.5879 3.40439C12.0787 2.98368 11.3756 2.66816 10.4789 2.4578C9.59319 2.24745 8.50267 2.14227 7.20734 2.14227C6.80878 2.14227 6.16112 2.16995 5.26435 2.22531C4.36758 2.26959 3.57046 2.29173 2.87297 2.29173H0V21.7549H1.59425C2.1921 21.766 3.17743 21.7936 4.55026 21.8379ZM8.50267 17.8357C8.13732 18.2785 7.56162 18.5 6.77557 18.5H5.48024V13.1028H6.77557C7.36234 13.1028 7.88822 13.2577 8.35321 13.5677C8.8182 13.8667 9.0507 14.3759 9.0507 15.0956V16.258C9.0507 16.867 8.86802 17.3928 8.50267 17.8357ZM8.27018 5.89541C8.63553 6.15004 8.8182 6.6095 8.8182 7.27377V7.68894C8.8182 8.41964 8.6466 9.03963 8.30339 9.5489C7.96019 10.0471 7.46752 10.2962 6.82539 10.2962H5.48024V5.49684H6.69253C7.37895 5.49684 7.90483 5.6297 8.27018 5.89541Z" fill="#3B82F6"/>
<path fill-rule="evenodd" clip-rule="evenodd" d="M23.4894 20.4596L23.6555 20.2769L24.1869 21.7549H28.7371L28.2721 20.4596V13.7006C28.2721 12.4828 28.178 11.4808 27.9898 10.6948C27.8016 9.89764 27.4806 9.24444 27.0266 8.73517C26.5838 8.21482 26.0026 7.84947 25.2829 7.63912C24.5633 7.4177 23.6499 7.30698 22.5428 7.30698C21.2918 7.30698 20.0629 7.49519 18.8561 7.87161C17.6493 8.23696 16.6695 8.66321 15.9167 9.15034L16.9795 11.4089C17.4002 11.1874 17.9815 10.9992 18.7232 10.8442C19.465 10.6782 20.1791 10.5951 20.8655 10.5951C21.6626 10.5951 22.2383 10.7335 22.5926 11.0103C22.958 11.2871 23.1406 11.7631 23.1406 12.4385V12.7374C22.7642 12.7374 22.3712 12.754 21.9616 12.7872C21.5519 12.8204 21.0869 12.8869 20.5666 12.9865C20.0462 13.0861 19.548 13.2135 19.072 13.3685C18.607 13.5124 18.142 13.7172 17.677 13.9829C17.212 14.2375 16.8135 14.5309 16.4813 14.8631C16.1492 15.1952 15.8779 15.6048 15.6676 16.092C15.4572 16.568 15.3521 17.0939 15.3521 17.6696C15.3521 20.6256 16.8467 22.1036 19.8359 22.1036C20.2787 22.1036 20.7105 22.0372 21.1312 21.9043C21.5519 21.7826 21.9062 21.6331 22.1941 21.456C22.493 21.2788 22.7532 21.1017 22.9746 20.9245C23.2071 20.7474 23.3787 20.5924 23.4894 20.4596ZM22.7421 19.0978C22.6203 19.1532 22.4874 19.1808 22.3435 19.1808C21.4025 19.1808 20.9319 18.4889 20.9319 17.105C20.9319 16.33 21.1312 15.7598 21.5298 15.3945C21.9284 15.0181 22.4653 14.8299 23.1406 14.8299V18.8155L23.041 18.9151C22.9746 18.9705 22.8749 19.0314 22.7421 19.0978Z" fill="#3B82F6"/>
<path d="M30.2133 2.97261V21.7549H35.6271V0H34.5477L29.2169 0.830338V2.37477L30.2133 2.97261Z" fill="#3B82F6"/>
<path d="M37.6572 2.97261V21.7549H43.071V0H41.9916L36.6608 0.830338V2.37477L37.6572 2.97261Z" fill="#3B82F6"/>
<path fill-rule="evenodd" clip-rule="evenodd" d="M48.1733 21.539C49.0922 21.9154 50.1716 22.1036 51.4116 22.1036C52.0759 22.1036 52.7734 22.0261 53.5041 21.8711C54.2348 21.7161 54.9932 21.4172 55.7792 20.9744C56.5763 20.5204 57.1797 19.9614 57.5893 19.2971L56.6095 17.6198C56.2996 17.9076 55.9121 18.1567 55.4471 18.3671C54.9932 18.5775 54.5392 18.7325 54.0853 18.8321C53.6425 18.9317 53.2273 18.9816 52.8398 18.9816C52.4412 18.9816 52.1036 18.9483 51.8268 18.8819C51.55 18.8155 51.2788 18.6826 51.0131 18.4834C50.7473 18.2841 50.5425 17.9741 50.3986 17.5534C50.2658 17.1327 50.1993 16.5957 50.1993 15.9425V15.627H57.7886V13.7836C57.7886 11.514 57.3181 9.86996 56.377 8.85141C55.436 7.82179 53.875 7.30698 51.6939 7.30698C49.4243 7.30698 47.6585 7.94358 46.3964 9.21676C45.1343 10.49 44.5032 12.3665 44.5032 14.8465C44.5032 15.8872 44.625 16.8337 44.8685 17.6862C45.1121 18.5276 45.4941 19.286 46.0144 19.9614C46.5458 20.6367 47.2655 21.1626 48.1733 21.539ZM52.5243 10.18C52.6682 10.7667 52.7402 11.7631 52.7402 13.1692H50.2159V11.7742C50.2159 11.3756 50.227 11.049 50.2491 10.7944C50.2824 10.5287 50.3488 10.2741 50.4484 10.0305C50.5481 9.77586 50.7031 9.59318 50.9134 9.48247C51.1238 9.36069 51.395 9.2998 51.7271 9.2998C52.1146 9.2998 52.3803 9.59318 52.5243 10.18Z" fill="#3B82F6"/>
<path d="M59.5876 21.7549H64.9516V14.1656C65.2727 13.5677 65.9978 13.2688 67.1271 13.2688C67.9131 13.2688 68.4224 13.374 68.6549 13.5843L69.2195 7.67233C68.9206 7.57269 68.6328 7.52287 68.356 7.52287C65.8982 7.52287 64.4423 8.87909 63.9884 11.5915L63.5068 7.63912H62.1617L58.5912 8.51928V10.3958L59.5876 11.0103V21.7549Z" fill="#3B82F6"/>
<path d="M70.302 21.7549H75.6826V12.0731C75.6936 12.0621 75.749 12.0122 75.8486 11.9237C75.9594 11.8351 76.0258 11.7797 76.0479 11.7576C76.0811 11.7355 76.142 11.6912 76.2306 11.6247C76.3302 11.5583 76.4022 11.514 76.4465 11.4919C76.5018 11.4698 76.5738 11.4365 76.6624 11.3923C76.7509 11.348 76.834 11.3203 76.9115 11.3092C77 11.2981 77.0886 11.2926 77.1772 11.2926C78.0961 11.2926 78.5389 11.813 78.5057 12.8537V21.7549H83.986V13.3352C83.986 13.2577 83.9915 13.1526 84.0026 13.0197V12.7208C84.0026 10.7723 83.687 9.38283 83.056 8.55249C82.436 7.72215 81.3676 7.30698 79.8509 7.30698C79.4191 7.30698 78.9762 7.39555 78.5223 7.57269C78.0795 7.73876 77.6975 7.94358 77.3765 8.18714C77.0554 8.41964 76.762 8.65767 76.4963 8.90124C76.2417 9.1448 76.0479 9.35515 75.9151 9.53229L75.7158 9.78139V0H74.6363L69.3056 0.830338V2.37477L70.302 2.97261V21.7549Z" fill="#3B82F6"/>
<path fill-rule="evenodd" clip-rule="evenodd" d="M87.0345 20.3765C88.208 21.5279 90.0624 22.1036 92.5977 22.1036C95.2216 22.1036 97.1425 21.4947 98.3603 20.2769C99.5892 19.0591 100.204 17.177 100.204 14.6306C100.204 12.1728 99.6224 10.3405 98.4599 9.13373C97.3085 7.9159 95.432 7.30698 92.8302 7.30698C90.1621 7.30698 88.2357 7.94358 87.0511 9.21676C85.8665 10.4789 85.2741 12.361 85.2741 14.8631C85.2741 17.3873 85.8609 19.2251 87.0345 20.3765ZM93.8432 19.513C93.5886 19.9115 93.2177 20.1108 92.7306 20.1108C91.712 20.1108 91.2028 19.0646 91.2028 16.9721V11.5749C91.2028 10.8664 91.3356 10.3183 91.6013 9.93086C91.867 9.54336 92.2379 9.34962 92.714 9.34962C93.7325 9.34962 94.2418 10.4291 94.2418 12.5879V17.8357C94.2418 18.5442 94.109 19.1033 93.8432 19.513Z" fill="#3B82F6"/>
<path d="M101.83 2.97261V21.7549H107.244V0H106.164L100.834 0.830338V2.37477L101.83 2.97261Z" fill="#3B82F6"/>
<path d="M109.457 11.0103V21.7549H114.804V7.63912H112.031L108.46 8.61892V10.3958L109.457 11.0103Z" fill="#3B82F6"/>
<path d="M109.141 3.37118L111.865 6.11129H112.496L115.335 3.37118V2.78994L112.496 0.0664252H111.865L109.141 2.78994V3.37118Z" fill="#3B82F6"/>
<path d="M128.056 20.5592L128.205 20.3765L127.375 18.118C126.998 18.4169 126.517 18.6328 125.93 18.7657C125.354 18.8985 124.79 18.9649 124.236 18.9649C123.992 18.9649 123.788 18.9539 123.622 18.9317C123.455 18.9096 123.24 18.8266 122.974 18.6826C122.719 18.5387 122.514 18.3394 122.359 18.0848C122.204 17.8191 122.066 17.4261 121.944 16.9057C121.822 16.3743 121.762 15.7377 121.762 14.9959C121.762 13.291 121.95 12.0953 122.326 11.4089C122.714 10.7114 123.411 10.3626 124.419 10.3626C124.574 10.3626 124.695 10.3737 124.784 10.3958L125.731 12.9367L128.089 12.9201L128.338 9.01748L127.989 8.66874C126.926 7.74983 125.432 7.29038 123.505 7.29038C122.509 7.29038 121.579 7.46752 120.715 7.82179C119.863 8.165 119.116 8.65767 118.473 9.2998C117.842 9.93086 117.344 10.728 116.979 11.6912C116.613 12.6544 116.431 13.7227 116.431 14.8963C116.431 17.0662 117.023 18.8099 118.208 20.1274C119.403 21.4449 121.125 22.1036 123.372 22.1036C124.037 22.1036 124.657 22.0427 125.232 21.921C125.819 21.8102 126.284 21.6719 126.627 21.5058C126.982 21.3286 127.281 21.157 127.524 20.991C127.779 20.8138 127.956 20.6699 128.056 20.5592Z" fill="#3B82F6"/>
</svg>
