<svg width="99" height="42" viewBox="0 0 99 42" fill="none" xmlns="http://www.w3.org/2000/svg">
<rect y="6" width="99" height="21" fill="#FEC938"/>
<path d="M20.0801 17.6348C20.0801 18.5996 19.9004 19.4062 19.541 20.0547C19.1816 20.6992 18.6602 21.1855 17.9766 21.5137C17.293 21.8379 16.4688 22 15.5039 22H13.125V13.4336H15.7617C16.6484 13.4336 17.4141 13.5938 18.0586 13.9141C18.7031 14.2305 19.2012 14.7012 19.5527 15.3262C19.9043 15.9473 20.0801 16.7168 20.0801 17.6348ZM18.6152 17.6758C18.6152 16.9727 18.5039 16.3945 18.2812 15.9414C18.0625 15.4883 17.7383 15.1523 17.3086 14.9336C16.8828 14.7109 16.3574 14.5996 15.7324 14.5996H14.5312V20.8223H15.5273C16.5625 20.8223 17.3359 20.5586 17.8477 20.0312C18.3594 19.5039 18.6152 18.7188 18.6152 17.6758ZM35.9944 22L35.1565 19.6211H31.8811L31.0432 22H29.5608L32.7483 13.3984H34.3069L37.4885 22H35.9944ZM34.7932 18.4141L33.9788 16.0703C33.9475 15.9688 33.9026 15.8262 33.844 15.6426C33.7854 15.4551 33.7268 15.2656 33.6682 15.0742C33.6096 14.8789 33.5608 14.7148 33.5217 14.582C33.4827 14.7422 33.4338 14.9219 33.3752 15.1211C33.3205 15.3164 33.2659 15.5 33.2112 15.6719C33.1604 15.8438 33.1213 15.9766 33.094 16.0703L32.2737 18.4141H34.7932ZM54.5278 22H52.7993L48.604 15.1621H48.5513C48.5669 15.3926 48.5805 15.6367 48.5923 15.8945C48.6079 16.1523 48.6196 16.418 48.6274 16.6914C48.6391 16.9648 48.6489 17.2422 48.6567 17.5234V22H47.3794V13.4336H49.0962L53.2856 20.2246H53.3266C53.3188 20.0254 53.3091 19.7969 53.2973 19.5391C53.2856 19.2812 53.2739 19.0156 53.2622 18.7422C53.2544 18.4648 53.2485 18.1973 53.2446 17.9395V13.4336H54.5278V22ZM66.9323 22H65.5378V13.4336H70.3777V14.6172H66.9323V17.2891H70.155V18.4668H66.9323V22ZM88.3017 17.7051C88.3017 18.3652 88.2177 18.9668 88.0498 19.5098C87.8857 20.0488 87.6377 20.5137 87.3056 20.9043C86.9736 21.291 86.5576 21.5898 86.0576 21.8008C85.5576 22.0117 84.9716 22.1172 84.2998 22.1172C83.6162 22.1172 83.0224 22.0117 82.5185 21.8008C82.0185 21.5898 81.6025 21.2891 81.2705 20.8984C80.9423 20.5078 80.6963 20.041 80.5322 19.498C80.3681 18.9551 80.2861 18.3535 80.2861 17.6934C80.2861 16.8105 80.4306 16.041 80.7197 15.3848C81.0127 14.7246 81.456 14.2129 82.0498 13.8496C82.6474 13.4824 83.4013 13.2988 84.3115 13.2988C85.2021 13.2988 85.9423 13.4805 86.5322 13.8438C87.122 14.207 87.5634 14.7188 87.8564 15.3789C88.1533 16.0352 88.3017 16.8105 88.3017 17.7051ZM81.7627 17.7051C81.7627 18.3652 81.8525 18.9375 82.0322 19.4219C82.2119 19.9023 82.4873 20.2734 82.8584 20.5352C83.2334 20.793 83.7138 20.9219 84.2998 20.9219C84.8896 20.9219 85.3701 20.793 85.7412 20.5352C86.1123 20.2734 86.3857 19.9023 86.5615 19.4219C86.7373 18.9375 86.8252 18.3652 86.8252 17.7051C86.8252 16.7012 86.624 15.916 86.2216 15.3496C85.8232 14.7793 85.1865 14.4941 84.3115 14.4941C83.7255 14.4941 83.2431 14.623 82.8642 14.8809C82.4892 15.1387 82.2119 15.5078 82.0322 15.9883C81.8525 16.4648 81.7627 17.0371 81.7627 17.7051Z" fill="black"/>
<line x1="4.37114e-08" y1="36.5" x2="99" y2="36.5" stroke="black"/>
<line x1="12" y1="0.5" x2="90" y2="0.500007" stroke="black"/>
<path d="M22.5 37C22.5 39.4415 20.3073 41.5 17.5 41.5C14.6927 41.5 12.5 39.4415 12.5 37C12.5 34.5585 14.6927 32.5 17.5 32.5C20.3073 32.5 22.5 34.5585 22.5 37Z" stroke="black"/>
<path d="M89.5 37C89.5 39.4415 87.3073 41.5 84.5 41.5C81.6927 41.5 79.5 39.4415 79.5 37C79.5 34.5585 81.6927 32.5 84.5 32.5C87.3073 32.5 89.5 34.5585 89.5 37Z" stroke="black"/>
</svg>
