<svg width="24" height="24" viewBox="0 0 24 24" fill="none" xmlns="http://www.w3.org/2000/svg">
<path d="M12.75 0C11.7109 0 10.7148 0.132812 9.76172 0.398438C8.80859 0.664062 7.91016 1.03906 7.06641 1.52344C6.22266 2.00781 5.46484 2.59375 4.79297 3.28125C4.12109 3.96875 3.53516 4.73047 3.03516 5.56641C2.53516 6.40234 2.15625 7.29688 1.89844 8.25C1.64062 9.20312 1.50781 10.2031 1.5 11.25C1.5 12.2891 1.63281 13.2852 1.89844 14.2383C2.16406 15.1914 2.53906 16.0898 3.02344 16.9336C3.50781 17.7773 4.09375 18.5352 4.78125 19.207C5.46875 19.8789 6.23047 20.4648 7.06641 20.9648C7.90234 21.4648 8.79688 21.8438 9.75 22.1016C10.7031 22.3594 11.7031 22.4922 12.75 22.5C13.7891 22.5 14.7852 22.3672 15.7383 22.1016C16.6914 21.8359 17.5898 21.4609 18.4336 20.9766C19.2773 20.4922 20.0352 19.9062 20.707 19.2188C21.3789 18.5312 21.9648 17.7695 22.4648 16.9336C22.9648 16.0977 23.3438 15.2031 23.6016 14.25C23.8594 13.2969 23.9922 12.2969 24 11.25C24 10.2109 23.8672 9.21484 23.6016 8.26172C23.3359 7.30859 22.9609 6.41016 22.4766 5.56641C21.9922 4.72266 21.4062 3.96484 20.7188 3.29297C20.0312 2.62109 19.2695 2.03516 18.4336 1.53516C17.5977 1.03516 16.7031 0.65625 15.75 0.398438C14.7969 0.140625 13.7969 0.0078125 12.75 0ZM12.75 21C11.8516 21 10.9883 20.8828 10.1602 20.6484C9.33203 20.4141 8.55859 20.0859 7.83984 19.6641C7.12109 19.2422 6.46094 18.7344 5.85938 18.1406C5.25781 17.5469 4.75 16.8906 4.33594 16.1719C3.92188 15.4531 3.59375 14.6758 3.35156 13.8398C3.10938 13.0039 2.99219 12.1406 3 11.25C3 10.3516 3.11719 9.48828 3.35156 8.66016C3.58594 7.83203 3.91406 7.05859 4.33594 6.33984C4.75781 5.62109 5.26562 4.96094 5.85938 4.35938C6.45312 3.75781 7.10938 3.25 7.82812 2.83594C8.54688 2.42188 9.32422 2.09375 10.1602 1.85156C10.9961 1.60938 11.8594 1.49219 12.75 1.5C13.6484 1.5 14.5117 1.61719 15.3398 1.85156C16.168 2.08594 16.9414 2.41406 17.6602 2.83594C18.3789 3.25781 19.0391 3.76562 19.6406 4.35938C20.2422 4.95312 20.75 5.60938 21.1641 6.32812C21.5781 7.04688 21.9062 7.82422 22.1484 8.66016C22.3906 9.49609 22.5078 10.3594 22.5 11.25C22.5 12.1484 22.3828 13.0117 22.1484 13.8398C21.9141 14.668 21.5859 15.4414 21.1641 16.1602C20.7422 16.8789 20.2344 17.5391 19.6406 18.1406C19.0469 18.7422 18.3906 19.25 17.6719 19.6641C16.9531 20.0781 16.1758 20.4062 15.3398 20.6484C14.5039 20.8906 13.6406 21.0078 12.75 21ZM15.4805 10.5H7.5V12H15.4805L12.2227 15.2109L13.2773 16.2891L18.3633 11.25L13.2773 6.21094L12.2227 7.28906L15.4805 10.5Z" fill="#2F4157"/>
</svg>
