<svg width="32" height="32" viewBox="0 0 32 32" fill="none" xmlns="http://www.w3.org/2000/svg">
<path fill-rule="evenodd" clip-rule="evenodd" d="M21.3334 9C20.8913 9 20.4674 9.17559 20.1548 9.48816C19.8423 9.80072 19.6667 10.2246 19.6667 10.6667C19.6667 11.1087 19.8423 11.5326 20.1548 11.8452C20.4674 12.1577 20.8913 12.3333 21.3334 12.3333C21.7754 12.3333 22.1993 12.1577 22.5119 11.8452C22.8244 11.5326 23 11.1087 23 10.6667C23 10.2246 22.8244 9.80072 22.5119 9.48816C22.1993 9.17559 21.7754 9 21.3334 9ZM17.6667 10.6667C17.6667 9.69421 18.053 8.76157 18.7406 8.07394C19.4283 7.38631 20.3609 7 21.3334 7C22.3058 7 23.2384 7.38631 23.9261 8.07394C24.6137 8.76157 25 9.69421 25 10.6667C25 11.6391 24.6137 12.5718 23.9261 13.2594C23.2384 13.947 22.3058 14.3333 21.3334 14.3333C20.3609 14.3333 19.4283 13.947 18.7406 13.2594C18.053 12.5718 17.6667 11.6391 17.6667 10.6667Z" fill="white"/>
<path fill-rule="evenodd" clip-rule="evenodd" d="M15.924 1.66667H16.076C19.1547 1.66667 21.5667 1.66667 23.4494 1.92001C25.3747 2.17867 26.8947 2.72001 28.088 3.91201C29.2814 5.10534 29.8214 6.62534 30.08 8.55201C30.3334 10.4333 30.3334 12.8453 30.3334 15.924V16.076C30.3334 19.1547 30.3334 21.5667 30.08 23.4493C29.8214 25.3747 29.28 26.8947 28.088 28.088C26.8947 29.2813 25.3747 29.8213 23.448 30.08C21.5667 30.3333 19.1547 30.3333 16.076 30.3333H15.924C12.8454 30.3333 10.4334 30.3333 8.55069 30.08C6.62535 29.8213 5.10535 29.28 3.91202 28.088C2.71869 26.8947 2.17869 25.3747 1.92002 23.448C1.66669 21.5667 1.66669 19.1547 1.66669 16.076V15.924C1.66669 12.8453 1.66669 10.4333 1.92002 8.55067C2.17869 6.62534 2.72002 5.10534 3.91202 3.91201C5.10535 2.71867 6.62535 2.17867 8.55202 1.92001C10.4334 1.66667 12.8454 1.66667 15.924 1.66667ZM5.32669 26.6733C4.56669 25.9133 4.13069 24.8867 3.90135 23.1813C3.69735 21.66 3.67069 19.7187 3.66669 17.12L5.66002 15.376C6.05455 15.0305 6.56566 14.848 7.08978 14.8653C7.6139 14.8826 8.11184 15.0986 8.48269 15.4693L14.2027 21.1893C14.8129 21.7999 15.619 22.1755 16.479 22.2502C17.339 22.3248 18.1977 22.0936 18.904 21.5973L19.3014 21.3173C19.8569 20.9267 20.5286 20.7362 21.2065 20.7769C21.8844 20.8176 22.5285 21.0871 23.0334 21.5413L27.3307 25.4107C27.3778 25.4525 27.4271 25.4893 27.4787 25.5213C27.2803 25.9499 27.0077 26.3399 26.6734 26.6733C25.9134 27.4333 24.8867 27.8693 23.1814 28.0987C21.448 28.3307 19.1707 28.3333 16 28.3333C12.8294 28.3333 10.552 28.3307 8.81869 28.0987C7.11335 27.8693 6.08669 27.432 5.32669 26.6733ZM8.81869 3.90134C7.11335 4.13067 6.08535 4.56801 5.32535 5.32667C4.56669 6.08667 4.13069 7.11334 3.90135 8.81867C3.70802 10.2587 3.67469 12.072 3.66802 14.4627L4.34402 13.8707C5.12051 13.1914 6.12616 12.8326 7.15728 12.867C8.18839 12.9014 9.16788 13.3265 9.89735 14.056L15.6174 19.776C15.8949 20.053 16.2612 20.2234 16.6518 20.257C17.0425 20.2907 17.4326 20.1855 17.7534 19.96L18.1507 19.68C19.0768 19.0292 20.1963 18.7119 21.3262 18.7799C22.4561 18.848 23.5294 19.2974 24.3707 20.0547L28.0694 23.384L28.0987 23.1813C28.3307 21.448 28.3334 19.1707 28.3334 16C28.3334 12.8293 28.3307 10.552 28.0987 8.81867C27.8694 7.11334 27.432 6.08534 26.6734 5.32534C25.9134 4.56667 24.8867 4.13067 23.1814 3.90134C21.448 3.66934 19.1707 3.66667 16 3.66667C12.8294 3.66667 10.552 3.66934 8.81869 3.90134Z" fill="white"/>
</svg>
