<svg width="32" height="32" viewBox="0 0 32 32" fill="none" xmlns="http://www.w3.org/2000/svg">
<path d="M1.33331 28V25.3333H30.6666V28H1.33331ZM5.33331 24C4.59998 24 3.97242 23.7391 3.45065 23.2173C2.92887 22.6956 2.66754 22.0676 2.66665 21.3333V6.66667C2.66665 5.93333 2.92798 5.30578 3.45065 4.784C3.97331 4.26222 4.60087 4.00089 5.33331 4H26.6666C27.4 4 28.028 4.26133 28.5506 4.784C29.0733 5.30667 29.3342 5.93422 29.3333 6.66667V21.3333C29.3333 22.0667 29.0724 22.6947 28.5506 23.2173C28.0289 23.74 27.4009 24.0009 26.6666 24H5.33331ZM5.33331 21.3333H26.6666V6.66667H5.33331V21.3333Z" fill="white"/>
</svg>
