<svg width="43" height="42" viewBox="0 0 43 42" fill="none" xmlns="http://www.w3.org/2000/svg">
<path d="M37.9875 8.26667C30.9584 -0.8375 17.875 -2.52083 8.7667 4.5125C-0.33747 11.5417 -2.0208 24.625 5.01253 33.7333C12.0438 42.8375 25.1271 44.5208 34.2334 37.4875L34.2375 37.4833C43.3396 30.45 45.0188 17.3708 37.9875 8.26667ZM32.6563 13.4646L31.0313 11.8646L30.6792 11.5146L30.7771 11.4167L33.2438 9.0875C33.6854 9.62292 33.9271 10.2958 33.9271 10.9937C33.925 11.8062 33.6 12.5875 33.0229 13.1625C32.9077 13.2736 32.7854 13.3743 32.6563 13.4646ZM10.4542 30.8708L10.7438 31.1417L12.2542 32.6521L8.8917 32.4333L10.4542 30.8708ZM30.8542 7.9375C31.5313 7.94167 32.1896 8.16667 32.7292 8.57917L30.0209 11.3042C29.9807 11.3365 29.9497 11.3789 29.9313 11.4271L29.9292 11.4375L29.925 11.45C29.9098 11.5021 29.9107 11.5576 29.9274 11.6092C29.9441 11.6608 29.9759 11.7063 30.0188 11.7396L32.0688 13.7875C31.5081 14.0313 30.887 14.1004 30.2865 13.986C29.6859 13.8715 29.1338 13.5787 28.7021 13.1458C28.2784 12.7181 27.9902 12.175 27.8735 11.5843C27.7568 10.9937 27.8167 10.3817 28.0459 9.825C28.2744 9.26765 28.6634 8.79073 29.1633 8.4547C29.6633 8.11866 30.2518 7.93866 30.8542 7.9375ZM28.9605 14.7417C28.9567 14.8741 28.9255 15.0043 28.8688 15.1241C28.8121 15.2439 28.7313 15.3506 28.6313 15.4375L20.5167 22.4979L20.4896 22.5208L20.1938 22.225L20.0646 22.0958L20.0021 22.0333L19.8209 21.8521L19.7521 21.7833L19.6125 21.6437L27.2938 14.0312C27.4504 13.8714 27.658 13.7714 27.8806 13.7486C28.1032 13.7257 28.3267 13.7815 28.5125 13.9062C28.5678 13.9429 28.6194 13.9848 28.6667 14.0312L28.7438 14.1104C28.8104 14.2104 28.8681 14.3146 28.9167 14.4229C28.9486 14.5271 28.9632 14.6333 28.9605 14.7417ZM19.5896 22.5333L19.6042 22.5729L19.675 22.6417L19.9792 22.9396L19.8667 22.9542L18.1813 23.1604L18.3896 22.9521L19.2042 22.1396L19.5896 22.5333ZM27.7771 13.1604C27.4297 13.2062 27.1073 13.3659 26.8604 13.6146L19.2042 21.2354L17.7042 19.7354C21.673 15.7812 24.1 13.7187 25.6104 13.0417C25.9393 12.8344 26.3245 12.7345 26.7127 12.7558C27.1009 12.777 27.4728 12.9185 27.7771 13.1604ZM17.2604 20.1771L17.2917 20.2083L18.5313 21.4479L15.2979 22.1396L17.2604 20.1771ZM13.025 30.2979C12.9238 30.3454 12.8423 30.4268 12.7948 30.528C12.7472 30.6292 12.7365 30.7438 12.7646 30.8521L13.1104 32.3625C13.1235 32.3803 13.1305 32.4019 13.1305 32.424C13.1305 32.4461 13.1235 32.4676 13.1104 32.4854C13.0914 32.5021 13.067 32.5113 13.0417 32.5113C13.0164 32.5113 12.992 32.5021 12.9729 32.4854L10.9229 30.4187L17.2354 24.0125L20.5042 23.5063L21.7042 24.7062C19.0479 26.9143 16.1336 28.7919 13.025 30.2979ZM22.2771 24.2562L21.0105 22.9896L28.9875 15.9937C28.4209 18.2437 25.4125 21.2937 22.2771 24.2562ZM33.2667 10.6104C33.234 10.5553 33.1821 10.5143 33.121 10.4951C33.0599 10.4758 32.9938 10.4798 32.9355 10.5062C32.907 10.521 32.8817 10.5412 32.861 10.5657C32.8403 10.5903 32.8247 10.6186 32.815 10.6492C32.8054 10.6798 32.8018 10.712 32.8046 10.7439C32.8074 10.7759 32.8165 10.807 32.8313 10.8354C32.8911 10.9611 32.9148 11.1009 32.8997 11.2392C32.8847 11.3775 32.8314 11.509 32.7459 11.6187C32.7237 11.6398 32.7064 11.6654 32.6953 11.6939C32.6841 11.7223 32.6793 11.7528 32.6813 11.7833C32.6813 11.8472 32.7021 11.9021 32.7438 11.9479C32.7889 11.964 32.8382 11.964 32.8834 11.9479C32.9239 11.9583 32.9665 11.9573 33.0065 11.9452C33.0465 11.9331 33.0825 11.9103 33.1105 11.8792C33.2548 11.7046 33.3462 11.4924 33.3739 11.2676C33.4016 11.0428 33.3644 10.8148 33.2667 10.6104Z" fill="#2F4157"/>
</svg>
