<svg width="40" height="40" viewBox="0 0 40 40" fill="none" xmlns="http://www.w3.org/2000/svg">
<rect width="40" height="40" rx="4" fill="#2F4157"/>
<path d="M24.8 15.5789C26.7096 15.5789 28.5409 16.3774 29.8912 17.7987C31.2414 19.22 32 21.1477 32 23.1578V31.9999H27.2V23.1578C27.2 22.4878 26.9471 21.8452 26.4971 21.3714C26.047 20.8977 25.4365 20.6315 24.8 20.6315C24.1635 20.6315 23.553 20.8977 23.1029 21.3714C22.6529 21.8452 22.4 22.4878 22.4 23.1578V31.9999H17.6V23.1578C17.6 21.1477 18.3586 19.22 19.7088 17.7987C21.0591 16.3774 22.8904 15.5789 24.8 15.5789ZM8 16.842H12.8V31.9999H8V16.842Z" stroke="white" stroke-width="1.5" stroke-linecap="round" stroke-linejoin="round"/>
<path d="M10.4 13.0526C11.7255 13.0526 12.8 11.9216 12.8 10.5263C12.8 9.13107 11.7255 8 10.4 8C9.07452 8 8 9.13107 8 10.5263C8 11.9216 9.07452 13.0526 10.4 13.0526Z" stroke="white" stroke-width="1.5" stroke-linecap="round" stroke-linejoin="round"/>
</svg>
