<svg width="32" height="32" viewBox="0 0 32 32" fill="none" xmlns="http://www.w3.org/2000/svg">
<path d="M8 8.66666C5.54533 10.864 4 13.7787 4 17.3333C4 18.9092 4.31039 20.4696 4.91345 21.9255C5.5165 23.3814 6.40042 24.7043 7.51472 25.8186C8.62902 26.9329 9.95189 27.8168 11.4078 28.4199C12.8637 29.0229 14.4241 29.3333 16 29.3333C17.5759 29.3333 19.1363 29.0229 20.5922 28.4199C22.0481 27.8168 23.371 26.9329 24.4853 25.8186C25.5996 24.7043 26.4835 23.3814 27.0866 21.9255C27.6896 20.4696 28 18.9092 28 17.3333C28 13.7787 26.4547 10.864 24 8.66666M16 2.66666V14.6667M16 2.66666C15.0667 2.66666 13.3227 5.32533 12.6667 6M16 2.66666C16.9333 2.66666 18.6773 5.32533 19.3333 6" stroke="#2F4157" stroke-width="2" stroke-linecap="round" stroke-linejoin="round"/>
</svg>
