<svg width="32" height="32" viewBox="0 0 32 32" fill="none" xmlns="http://www.w3.org/2000/svg">
<path d="M17.4933 22.6973L11.8947 19.644C11.1637 20.4254 10.2146 20.9689 9.17075 21.2038C8.12687 21.4388 7.03646 21.3543 6.04122 20.9614C5.04598 20.5685 4.19194 19.8853 3.59008 19.0006C2.98822 18.1159 2.66638 17.0707 2.66638 16.0007C2.66638 14.9307 2.98822 13.8854 3.59008 13.0007C4.19194 12.1161 5.04598 11.4329 6.04122 11.0399C7.03646 10.647 8.12687 10.5625 9.17075 10.7975C10.2146 11.0324 11.1637 11.5759 11.8947 12.3573L17.4947 9.30399C17.1772 8.04528 17.3297 6.71399 17.9236 5.55968C18.5175 4.40538 19.512 3.5073 20.7207 3.03381C21.9294 2.56032 23.2693 2.54392 24.4892 2.98769C25.7092 3.43146 26.7254 4.30492 27.3473 5.44434C27.9693 6.58377 28.1544 7.91092 27.8678 9.17703C27.5813 10.4431 26.8428 11.5613 25.7908 12.3218C24.7388 13.0824 23.4455 13.4331 22.1534 13.3083C20.8613 13.1836 19.659 12.5918 18.772 11.644L13.172 14.6973C13.3874 15.5524 13.3874 16.4476 13.172 17.3027L18.772 20.356C19.6595 19.4086 20.862 18.8175 22.1541 18.6933C23.4463 18.5692 24.7394 18.9205 25.791 19.6816C26.8426 20.4426 27.5806 21.5611 27.8665 22.8273C28.1525 24.0935 27.9669 25.4205 27.3444 26.5596C26.7219 27.6988 25.7054 28.5718 24.4853 29.015C23.2652 29.4583 21.9254 29.4413 20.7169 28.9673C19.5084 28.4933 18.5143 27.5949 17.9208 26.4404C17.3274 25.2859 17.1754 23.9546 17.4933 22.696M7.99999 18.6667C8.70723 18.6667 9.38551 18.3857 9.88561 17.8856C10.3857 17.3855 10.6667 16.7072 10.6667 16C10.6667 15.2927 10.3857 14.6145 9.88561 14.1144C9.38551 13.6143 8.70723 13.3333 7.99999 13.3333C7.29275 13.3333 6.61447 13.6143 6.11437 14.1144C5.61427 14.6145 5.33332 15.2927 5.33332 16C5.33332 16.7072 5.61427 17.3855 6.11437 17.8856C6.61447 18.3857 7.29275 18.6667 7.99999 18.6667ZM22.6667 10.6667C23.3739 10.6667 24.0522 10.3857 24.5523 9.88561C25.0524 9.38551 25.3333 8.70723 25.3333 7.99999C25.3333 7.29275 25.0524 6.61447 24.5523 6.11437C24.0522 5.61427 23.3739 5.33332 22.6667 5.33332C21.9594 5.33332 21.2811 5.61427 20.781 6.11437C20.2809 6.61447 20 7.29275 20 7.99999C20 8.70723 20.2809 9.38551 20.781 9.88561C21.2811 10.3857 21.9594 10.6667 22.6667 10.6667ZM22.6667 26.6667C23.3739 26.6667 24.0522 26.3857 24.5523 25.8856C25.0524 25.3855 25.3333 24.7072 25.3333 24C25.3333 23.2927 25.0524 22.6145 24.5523 22.1144C24.0522 21.6143 23.3739 21.3333 22.6667 21.3333C21.9594 21.3333 21.2811 21.6143 20.781 22.1144C20.2809 22.6145 20 23.2927 20 24C20 24.7072 20.2809 25.3855 20.781 25.8856C21.2811 26.3857 21.9594 26.6667 22.6667 26.6667Z" fill="white"/>
</svg>
