<svg width="49" height="48" viewBox="0 0 49 48" fill="none" xmlns="http://www.w3.org/2000/svg">
<path fill-rule="evenodd" clip-rule="evenodd" d="M31.8449 12.3711C30.8277 9.2039 29.1961 6.40077 26.8969 3.98867C26.3156 3.37851 25.6695 2.81953 25.2641 2.06054C25.0078 1.58007 24.7637 1.09296 24.5141 0.609369L24.3555 0.210541L24.3113 0.367572C24.2906 1.15663 23.8438 1.6914 23.2875 2.19101C22.6609 2.75273 22.0781 3.36288 21.4766 3.95234L19.6266 6.38554L18.1309 9.13632L17.1305 11.8375L17.1004 11.8793C16.55 13.6875 16.2785 15.5469 16.1453 17.4242C16.0949 18.1301 16.1527 18.8457 16.1922 19.5551C16.2488 20.5691 16.425 21.5656 16.6891 22.5473C17.6488 26.1121 19.5969 29.0687 22.2606 31.5812C22.7551 32.048 23.2899 32.4726 23.8059 32.9164L24.0344 33.7008L24.2469 34.918L24.3484 36.1887C24.3473 36.4465 24.3367 36.7055 24.352 36.9625C24.3563 37.0285 24.4422 37.0894 24.4906 37.1527L24.9219 37.3043L25.3707 37.4789L25.2938 36.3496L25.2902 35.2371L25.4453 33.5426L25.5578 33.1738L25.8801 32.6031C26.2777 32.2836 26.7039 31.993 27.066 31.6371C27.7211 30.9937 28.375 30.3414 28.9613 29.6363C29.7241 28.7224 30.3757 27.7211 30.9023 26.6535C31.2535 25.9375 31.5848 25.207 31.8586 24.459C32.1 23.7996 32.2496 23.1062 32.4398 22.4277L32.4899 22.2812C32.8824 20.45 32.9484 18.6 32.8043 16.7383C32.6883 15.2379 32.3356 13.7898 31.8449 12.3711ZM24.0715 32.0098C24.1316 31.7086 24.2063 31.409 24.2606 31.1066C24.2063 31.409 24.132 31.7086 24.0715 32.0098ZM41.0914 39.2203C40.7688 38.6019 40.2953 38.1324 39.6695 37.8242C39.1453 37.5664 38.5816 37.4531 38.002 37.4367C37.5676 37.4242 37.1316 37.4465 36.6965 37.4519C36.3102 37.4566 35.9234 37.4633 35.5371 37.4598C35.0828 37.4551 34.6285 37.4414 34.1742 37.4285C34.0988 37.4262 34.0453 37.4414 34.0102 37.518C33.9551 37.6371 33.8899 37.7519 33.8223 37.8824L33.8981 37.9066C34.1234 37.9465 34.35 37.9805 34.5742 38.0254C34.8625 38.0828 34.9922 38.2484 35.0055 38.4914C35.0245 38.8378 35.0332 39.1844 35.0316 39.5312C35.0258 40.9039 35.016 42.2766 35.0059 43.6488C35.0051 43.7394 35.0035 43.834 34.9789 43.9191C34.9504 44.0176 34.9195 44.1449 34.8461 44.1934C34.714 44.2783 34.5657 44.3348 34.4106 44.3594C34.1914 44.3953 34.1547 44.4051 34.0863 44.6207L34.0566 44.7285C34.0238 44.8461 34.0414 44.8691 34.1641 44.8703C34.868 44.8781 35.5715 44.8934 36.275 44.891C36.9168 44.8887 37.5586 44.9277 38.1981 44.807C38.8023 44.6934 39.3664 44.4941 39.8813 44.157C40.5492 43.7191 41.0297 43.134 41.2832 42.3703C41.4879 41.7535 41.5336 41.1242 41.4641 40.4793C41.4209 40.0398 41.2945 39.6125 41.0914 39.2203ZM39.8582 42.9941C39.4816 43.6949 38.9199 44.1629 38.1172 44.2863C37.6145 44.3633 37.1109 44.341 36.6316 44.1508C36.3281 44.0305 36.2152 43.7684 36.2059 43.4586C36.1973 43.155 36.193 42.8513 36.193 42.5477C36.1914 41.4797 36.1914 40.4118 36.193 39.3441C36.1938 39.0078 36.1996 38.6707 36.2051 38.334C36.209 38.0973 36.2586 38.018 36.4895 37.9988C37.5035 37.9137 38.4711 38.023 39.2746 38.7367C39.7715 39.1781 40.0543 39.741 40.1719 40.3875C40.2207 40.657 40.2356 40.9328 40.266 41.2062C40.2414 41.8305 40.157 42.4379 39.8582 42.9941ZM48.3695 41.8375C48.1695 41.3508 47.7906 41.0457 47.3145 40.8504C47.152 40.7836 46.9844 40.7285 46.809 40.6637L46.8703 40.6246C47.0598 40.5031 47.2707 40.4051 47.434 40.2555C47.8309 39.8918 47.9957 39.4344 47.9184 38.891C47.8449 38.3742 47.5871 37.9949 47.1266 37.7488C46.7086 37.5262 46.2578 37.4449 45.7914 37.4453C44.9844 37.4461 44.177 37.4582 43.3699 37.4598C43.0918 37.4602 42.8137 37.4394 42.5356 37.4355C42.4816 37.4348 42.4016 37.4484 42.3785 37.4844C42.3148 37.582 42.2727 37.6945 42.2274 37.8031C42.2012 37.8664 42.227 37.9012 42.2992 37.9105C42.4934 37.9371 42.6871 37.9703 42.8816 37.9992C43.1504 38.0394 43.2805 38.1793 43.2969 38.45L43.3004 38.6105C43.3008 39.4523 43.3035 40.2941 43.3 41.1359C43.295 41.9766 43.287 42.8172 43.2762 43.6578C43.275 43.7637 43.2606 43.8699 43.2453 43.975C43.2223 44.1336 43.1375 44.243 42.975 44.2773L42.5152 44.368C42.4609 44.3789 42.3824 44.3773 42.3602 44.4109C42.2758 44.5371 42.2078 44.675 42.2172 44.8414L42.2645 44.8543L43.8086 44.8922L44.1184 44.891C44.6527 44.8848 45.1879 44.8953 45.7215 44.868C46.2992 44.8391 46.8418 44.6676 47.3434 44.3727C47.8773 44.0582 48.2883 43.6437 48.4344 43.0203C48.5281 42.6223 48.5285 42.2219 48.3695 41.8375ZM44.4465 38.2512C44.4488 38.082 44.5234 38.0086 44.6914 38.0043C45.1051 37.993 45.516 37.9953 45.9152 38.1379C46.4316 38.3223 46.7492 38.7676 46.7434 39.3117C46.7406 39.5207 46.7438 39.7277 46.6668 39.9285C46.5149 40.3238 46.2234 40.5324 45.8102 40.573C45.5945 40.5949 45.377 40.5973 45.1848 40.6074L44.5434 40.5793C44.4582 40.5762 44.4211 40.5387 44.4215 40.4512L44.4465 38.2512ZM47.1051 43.5223C46.8984 43.9719 46.5219 44.2082 46.0504 44.2902C45.6746 44.355 45.2893 44.338 44.9207 44.2406C44.6449 44.1699 44.5324 43.9484 44.4773 43.7027C44.4402 43.5383 44.4465 43.3426 44.4434 43.1715C44.4383 42.9074 44.4422 42.3594 44.4422 42.3594H44.4367C44.4367 41.9687 44.4379 41.6305 44.4356 41.2559C44.4352 41.175 44.4488 41.1348 44.5477 41.1379C44.8984 41.1484 45.2504 41.1543 45.6012 41.168C45.9148 41.1801 46.2086 41.273 46.4848 41.4219C46.9051 41.6484 47.1582 41.9953 47.2277 42.4719C47.2809 42.8332 47.2582 43.1887 47.1051 43.5223ZM8.59454 43.9434L8.60196 41.8195C8.60313 41.5 8.56251 41.1867 8.45782 40.8836C8.16915 40.0488 7.37305 39.6687 6.54415 39.9684C6.16719 40.1047 5.8293 40.3113 5.50665 40.5457C5.31876 40.6824 5.31876 40.6824 5.18282 40.4875C4.79805 39.9359 4.24844 39.7473 3.6086 39.9508C3.19493 40.082 2.83321 40.3066 2.49063 40.5676C2.4586 40.5918 2.39415 40.6187 2.37501 40.6043C2.34298 40.5805 2.32071 40.5238 2.32149 40.4812L2.34493 40.1039C2.34688 40.0246 2.33165 39.9449 2.32384 39.8617C2.16915 39.9152 2.04571 39.9687 1.91641 40C1.5168 40.0976 1.11446 40.1875 0.712507 40.2793C0.615241 40.3016 0.512507 40.3309 0.503132 40.4426C0.493366 40.5523 0.599226 40.5707 0.681257 40.6035C0.853913 40.6736 1.02553 40.7463 1.1961 40.8219C1.33946 40.8852 1.39298 40.9996 1.39219 41.1535C1.38946 41.8117 1.39376 42.4691 1.38985 43.1273C1.38829 43.3949 1.37579 43.6621 1.36368 43.9297C1.35274 44.1668 1.27188 44.266 1.04219 44.3258C0.920319 44.3578 0.796491 44.3793 0.673835 44.4082C0.646882 44.4144 0.600788 44.4316 0.600398 44.4449C0.595319 44.5609 0.589069 44.6797 0.608601 44.7926C0.612507 44.8129 0.735163 44.8129 0.803132 44.8207L0.848835 44.818C1.32227 44.8104 1.79584 44.8039 2.26954 44.7984C2.52071 44.7957 2.77149 44.798 3.04415 44.798L3.07344 44.4191C2.91719 44.3906 2.77774 44.3691 2.64024 44.3391C2.42579 44.2922 2.33438 44.1785 2.32891 43.9621L2.32501 43.6523C2.32266 42.8488 2.31954 42.0457 2.31954 41.2422C2.31954 41.1254 2.36798 41.0328 2.47071 40.9629C2.68829 40.816 2.91798 40.6992 3.17227 40.634C3.70821 40.4969 4.17305 40.6875 4.3793 41.1434C4.44454 41.2871 4.49571 41.4461 4.51016 41.6023C4.58594 42.4078 4.55313 43.2141 4.50743 44.0195C4.49766 44.1934 4.41602 44.2809 4.24454 44.3234L3.84141 44.4086C3.80899 44.4168 3.76173 44.3949 3.75938 44.4219C3.7504 44.5332 3.75548 44.7039 3.75548 44.7039H3.85157L5.07891 44.7441C5.41524 44.7434 5.75196 44.784 6.0879 44.7926C6.14805 44.7937 6.20157 44.8027 6.20509 44.7332C6.20863 44.6252 6.20719 44.5172 6.20079 44.4094L6.13673 44.398L5.79102 44.3203C5.55782 44.2652 5.47735 44.1766 5.47657 43.9406C5.47384 43.359 5.48165 42.7777 5.47657 42.1965C5.47363 41.864 5.46125 41.5317 5.43946 41.2C5.4336 41.1117 5.44727 41.0539 5.51759 41.0043C5.72133 40.8552 5.95063 40.7447 6.19415 40.6781C6.95001 40.4789 7.56876 40.8934 7.60782 41.6726C7.6461 42.4242 7.63008 43.1785 7.62423 43.9316C7.62227 44.1937 7.53555 44.273 7.27735 44.3434L7.18829 44.3664C6.92383 44.4297 6.92618 44.4297 6.9418 44.7105C6.94688 44.7984 6.9711 44.8211 7.06485 44.8187C7.60352 44.8066 8.14219 44.8035 8.68087 44.7988C8.90118 44.7969 9.12149 44.7988 9.36133 44.7988L9.41016 44.4332C9.19962 44.3773 9.00548 44.3359 8.81798 44.2746C8.65235 44.2184 8.59376 44.1184 8.59454 43.9434ZM27.1449 40.7242C27.3668 40.5184 27.3684 40.2465 27.3063 39.9445C27.1305 40.1285 26.9336 40.2133 26.709 40.2293C26.4078 40.2508 26.1121 40.2246 25.8316 40.1047C25.0731 39.7789 24.3262 39.8019 23.5816 40.1594C22.9555 40.4594 22.5703 40.9269 22.5316 41.6359C22.507 42.0902 22.5922 42.5203 22.8953 42.8816C23.077 43.098 23.3102 43.2383 23.5731 43.3352C23.6863 43.3769 23.6949 43.4309 23.6 43.5031C23.5299 43.5561 23.4573 43.6056 23.3824 43.6516C23.2238 43.7513 23.0641 43.8495 22.9035 43.9461C22.8094 44.0031 22.7774 44.0758 22.8082 44.1871C22.8984 44.5144 23.1309 44.7035 23.4215 44.8414L23.5274 44.9152L23.4348 45.0078C23.15 45.2387 22.8539 45.4566 22.5813 45.7016C22.3524 45.9074 22.2785 46.1832 22.3477 46.4875C22.4871 47.0949 22.8899 47.4707 23.4613 47.6434C24.4602 47.9457 25.3981 47.7723 26.2531 47.1805C26.7602 46.8293 27.1238 46.3723 27.2344 45.7434C27.3582 45.0367 26.9656 44.4234 26.2629 44.2969C25.7981 44.2125 25.3223 44.1883 24.852 44.1344C24.6324 44.1094 24.4098 44.0945 24.1961 44.0441C24.0145 44.0012 23.9242 43.8531 23.941 43.7086C23.9578 43.5664 24.109 43.434 24.282 43.4203C24.6305 43.3922 24.9719 43.3379 25.293 43.191C26.1438 42.8019 26.5387 42.1207 26.4399 41.2035C26.427 41.0801 26.3988 40.9582 26.3734 40.8144C26.6457 40.8601 26.9242 40.9293 27.1449 40.7242ZM24.5633 45.0277C24.9094 45.0379 25.3031 45.0594 25.6836 45.1707C26.0184 45.2684 26.2938 45.4394 26.375 45.8133C26.4731 46.2648 26.2559 46.7141 25.8188 46.9555C25.4094 47.1812 24.9649 47.2 24.5141 47.1535C24.1281 47.1137 23.7809 46.9801 23.5027 46.6949C23.1363 46.3195 23.1344 45.8 23.5012 45.4258C23.8289 45.0914 24.0043 45.0223 24.5633 45.0277ZM25.4293 42.3082C25.2277 42.9531 24.641 43.0422 24.1813 42.8359C23.7895 42.6605 23.6188 42.3152 23.5293 41.9211C23.4945 41.7695 23.4863 41.6121 23.466 41.457C23.4742 41.2348 23.5109 41.0215 23.6066 40.8215C23.9 40.2055 24.6207 40.2422 25.0195 40.5211C25.1906 40.6406 25.3098 40.8031 25.3844 40.9957C25.5504 41.4149 25.5663 41.8786 25.4293 42.3082ZM21.7691 44.3641C21.6296 44.3427 21.4916 44.3119 21.3563 44.2719C21.1188 44.1992 21.0899 44.1547 21.0871 43.9035C21.0801 43.2035 21.0754 42.5035 21.0676 41.8039C21.0637 41.4891 21.0262 41.1785 20.9297 40.8777C20.6758 40.0848 19.8981 39.659 19.1199 39.893C18.6887 40.023 18.3184 40.2648 17.9734 40.5488L17.8477 40.6453L17.8481 40.516C17.8563 40.3672 17.8723 40.2184 17.8711 40.0695C17.8703 39.9918 17.8406 39.9137 17.8262 39.8453C17.532 39.934 17.2684 40.023 16.9992 40.091C16.7293 40.159 16.4539 40.2051 16.1809 40.2605C16.0453 40.2879 15.9457 40.3699 15.9481 40.4633C15.9516 40.5949 16.0606 40.6203 16.1559 40.6598C16.3285 40.7305 16.5008 40.8019 16.6715 40.8777C16.7934 40.932 16.843 41.0328 16.8418 41.1637C16.8332 42.0734 16.8277 42.9836 16.8145 43.8937C16.8106 44.1812 16.7379 44.257 16.4551 44.3203L16.3316 44.3449C16.0699 44.3898 16.0625 44.4004 16.0805 44.6766L16.082 44.7223C16.0789 44.8285 16.1254 44.8629 16.2348 44.8617C16.9301 44.8531 17.6255 44.85 18.3211 44.8523C18.6191 44.8535 18.6512 44.8301 18.6449 44.5238L18.6309 44.3922C18.4606 44.3637 18.2977 44.343 18.1383 44.3078C17.9715 44.2707 17.9117 44.2023 17.8961 44.0328C17.8816 43.8777 17.877 43.7203 17.8754 43.5641C17.8676 42.8487 17.8617 42.1336 17.8578 41.4187C17.857 41.2387 17.8902 41.0715 18.0559 40.9555C18.2996 40.7813 18.587 40.6782 18.8859 40.6578C19.5063 40.6152 19.9777 40.9828 20.0113 41.6012C20.0527 42.3641 20.0402 43.1297 20.05 43.8941C20.0508 43.9512 20.0406 44.0086 20.0328 44.0652C20.018 44.1769 19.9633 44.2609 19.85 44.2898C19.7395 44.3187 19.6274 44.3445 19.5145 44.3617C19.3461 44.3867 19.3426 44.3855 19.3297 44.5555L19.334 44.6699C19.3539 44.8676 19.3543 44.8617 19.5543 44.8598C20.227 44.854 20.8994 44.8513 21.5715 44.8516C21.8527 44.8523 21.8727 44.8391 21.875 44.5492L21.8742 44.4805C21.8785 44.4062 21.8453 44.3762 21.7691 44.3641ZM31.1645 39.941C30.4594 39.7687 29.7906 39.8969 29.1555 40.2254C28.5383 40.5445 28.1258 41.0379 27.9688 41.7191C27.8102 42.4078 27.8859 43.0797 28.1902 43.7191C28.3883 44.1344 28.693 44.4555 29.1078 44.6641C30.0789 45.1531 31.2668 44.9312 32.0285 44.2769C32.6297 43.7609 32.8504 43.0738 32.8637 42.2234C32.8555 42.1383 32.8473 41.9742 32.8246 41.8117C32.6969 40.8859 32.0559 40.159 31.1645 39.941ZM31.6984 43.5172C31.5113 44.2539 30.8742 44.5812 30.1555 44.3281C29.7887 44.1992 29.5145 43.9527 29.3301 43.6195C28.9059 42.8539 28.8242 42.0398 29.0656 41.2047C29.2266 40.6484 29.6844 40.3441 30.2289 40.3824C30.7156 40.4164 31.0898 40.65 31.3645 41.0461C31.6539 41.4641 31.7656 41.9394 31.7953 42.4387C31.8004 42.5187 31.7961 42.5988 31.7961 42.6793L31.8305 42.6832C31.7875 42.9617 31.7672 43.2457 31.6984 43.5172ZM13.4313 39.9289C12.6895 39.7594 11.9945 39.9269 11.3508 40.3039C10.7941 40.6297 10.4344 41.1164 10.2965 41.7523C10.1672 42.3465 10.2199 42.9305 10.4305 43.4996C10.5586 43.8465 10.7527 44.1516 11.0375 44.3894C11.6371 44.8898 12.3379 45.0164 13.0836 44.8769C13.7149 44.7586 14.2695 44.4781 14.6727 43.9535C15.05 43.4629 15.1938 42.8996 15.2086 42.2891C15.1863 42.0957 15.1809 41.8988 15.1399 41.7101C14.9359 40.7684 14.3852 40.1465 13.4313 39.9289ZM14.0363 43.5148C13.8555 44.2477 13.2082 44.5832 12.4945 44.3301C12.0363 44.1672 11.7379 43.8316 11.5492 43.4016C11.2469 42.7105 11.1852 41.9914 11.3809 41.2625C11.5309 40.7051 11.9828 40.2945 12.6746 40.393C13.0992 40.4531 13.4305 40.6699 13.6774 41.0148C14.0109 41.4801 14.1207 42.0129 14.1359 42.5727V42.6871L14.1641 42.6914C14.1231 42.9664 14.1027 43.2461 14.0363 43.5148Z" fill="#2F4157"/>
</svg>
