<svg width="26" height="26" viewBox="0 0 26 26" fill="none" xmlns="http://www.w3.org/2000/svg">
<path d="M1 6C1 3.64267 1 2.464 1.73333 1.73333C2.46267 1 3.64133 1 6 1C8.35867 1 9.536 1 10.2667 1.73333C11 2.464 11 3.64267 11 6C11 8.35733 11 9.536 10.2667 10.2667C9.536 11 8.35733 11 6 11C3.64267 11 2.464 11 1.73333 10.2667C1 9.53733 1 8.35867 1 6ZM1 20.0093C1 17.652 1 16.4733 1.73333 15.7427C2.464 15.0093 3.64267 15.0093 6 15.0093C8.35733 15.0093 9.536 15.0093 10.2667 15.7427C11 16.4733 11 17.652 11 20.0093C11 22.3667 11 23.5453 10.2667 24.276C9.536 25.0093 8.35733 25.0093 6 25.0093C3.64267 25.0093 2.464 25.0093 1.73333 24.276C1 23.5467 1 22.3667 1 20.0093ZM15 6C15 3.64267 15 2.464 15.7333 1.73333C16.464 1 17.6427 1 20 1C22.3573 1 23.536 1 24.2667 1.73333C25 2.464 25 3.64267 25 6C25 8.35733 25 9.536 24.2667 10.2667C23.536 11 22.3573 11 20 11C17.6427 11 16.464 11 15.7333 10.2667C15 9.536 15 8.35733 15 6ZM15 20.0093C15 17.652 15 16.4733 15.7333 15.7427C16.464 15.0093 17.6427 15.0093 20 15.0093C22.3573 15.0093 23.536 15.0093 24.2667 15.7427C25 16.4733 25 17.652 25 20.0093C25 22.3667 25 23.5453 24.2667 24.276C23.536 25.0093 22.3573 25.0093 20 25.0093C17.6427 25.0093 16.464 25.0093 15.7333 24.276C15 23.5453 15 22.3667 15 20.0093Z" stroke="white" stroke-width="2" stroke-linecap="round" stroke-linejoin="round"/>
</svg>
