<svg width="40" height="40" viewBox="0 0 40 40" fill="none" xmlns="http://www.w3.org/2000/svg">
<rect width="40" height="40" rx="4" fill="#2F4157"/>
<path d="M30.0001 24.92V27.92C30.0012 28.1985 29.9441 28.4741 29.8326 28.7293C29.721 28.9845 29.5574 29.2136 29.3521 29.4018C29.1469 29.5901 28.9046 29.7335 28.6408 29.8227C28.377 29.9119 28.0974 29.945 27.8201 29.92C24.7429 29.5856 21.7871 28.5341 19.1901 26.85C16.7739 25.3146 14.7254 23.2661 13.1901 20.85C11.5 18.2412 10.4483 15.271 10.1201 12.18C10.0951 11.9034 10.1279 11.6247 10.2166 11.3616C10.3052 11.0985 10.4476 10.8567 10.6348 10.6516C10.822 10.4465 11.0499 10.2827 11.3038 10.1705C11.5578 10.0583 11.8324 10.0002 12.1101 9.99997H15.1101C15.5954 9.9952 16.0658 10.1671 16.4338 10.4835C16.8018 10.8 17.0421 11.2394 17.1101 11.72C17.2367 12.68 17.4715 13.6227 17.8101 14.53C17.9446 14.8879 17.9737 15.2769 17.894 15.6509C17.8142 16.0248 17.6289 16.3681 17.3601 16.64L16.0901 17.91C17.5136 20.4135 19.5865 22.4864 22.0901 23.91L23.3601 22.64C23.6319 22.3711 23.9752 22.1858 24.3492 22.1061C24.7231 22.0263 25.1121 22.0554 25.4701 22.19C26.3773 22.5285 27.32 22.7634 28.2801 22.89C28.7658 22.9585 29.2095 23.2032 29.5266 23.5775C29.8437 23.9518 30.0122 24.4296 30.0001 24.92Z" stroke="#FAFAFA" stroke-width="2" stroke-linecap="round" stroke-linejoin="round"/>
</svg>
