<svg width="47" height="46" viewBox="0 0 47 46" fill="none" xmlns="http://www.w3.org/2000/svg">
<path d="M33.5104 0.0833282C31.6767 0.100488 29.8533 0.359672 28.0875 0.854162L27.9625 0.891662C26.8506 0.701019 25.7258 0.59585 24.5979 0.577078C22.2792 0.537495 20.2854 1.08333 18.6812 1.99374C17.0979 1.46041 13.8146 0.541662 10.3542 0.724995C7.94375 0.852078 5.31458 1.56249 3.36666 3.55833C1.42291 5.55416 0.395831 8.64166 0.612497 12.8437C0.670831 14.0042 1.01041 15.8937 1.57708 18.3437C2.13958 20.7917 2.93541 23.6562 3.925 26.2708C4.91458 28.8854 6 31.2375 7.69583 32.8333C8.54166 33.6333 9.70625 34.3062 11.0792 34.25C12.0437 34.2125 12.9167 33.8021 13.6687 33.1958C14.0354 33.6646 14.4271 33.8687 14.7833 34.0583C15.2312 34.2958 15.6687 34.4583 16.1208 34.5667C17.3727 34.8877 18.6767 34.9522 19.9542 34.7562C20.5104 34.6667 21.0958 34.4917 21.6792 34.2417C21.7 34.8708 21.725 35.4875 21.7521 36.1125C21.8312 38.0917 21.8833 39.9187 22.4958 41.5208C22.5937 41.7833 22.8625 43.1312 23.9271 44.3208C24.9896 45.5125 27.0729 46.2542 29.4437 45.7625C31.1167 45.4146 33.2458 44.7875 34.6583 42.8375C36.0542 40.9083 36.6854 38.1417 36.8104 33.6521C36.8417 33.4104 36.8792 33.2042 36.9187 33.0104L37.2521 33.0396H37.2896C39.075 33.1187 41.0125 32.8729 42.6312 32.1437C44.0646 31.4979 45.1479 30.8479 45.9375 29.6917C46.1354 29.4062 46.3521 29.0604 46.4104 28.4625C46.4687 27.8687 46.1187 26.9354 45.5333 26.5062C44.3604 25.6437 43.625 25.9708 42.8354 26.1312C42.0576 26.2979 41.2687 26.3903 40.4687 26.4083C42.7458 22.6917 44.3771 18.7417 45.3083 15.2458C45.8583 13.1833 46.1687 11.2812 46.1937 9.61874C46.2187 7.95624 46.0792 6.48333 45.0521 5.20833C41.8417 1.22916 37.3271 0.129161 33.8354 0.0916615C33.7271 0.0888837 33.6187 0.0881894 33.5104 0.0895783V0.0833282ZM33.4187 1.30624C36.7208 1.27499 40.9417 2.17499 43.9708 5.93124C44.6521 6.77499 44.8542 8.00833 44.8312 9.52916C44.8062 11.0479 44.5167 12.8646 43.9875 14.8562C42.9604 18.7146 41.0187 23.2104 38.2833 27.2479C38.3804 27.3152 38.4854 27.3705 38.5958 27.4125C39.1667 27.6417 40.4667 27.8375 43.0646 27.3208C43.7167 27.1854 44.1958 27.0958 44.6917 27.4625C44.8103 27.561 44.9046 27.6856 44.9671 27.8265C45.0296 27.9674 45.0587 28.1209 45.0521 28.275C45.0245 28.5077 44.9361 28.729 44.7958 28.9167C44.2958 29.6479 43.3042 30.3417 42.0333 30.9125C40.9104 31.4208 39.2979 31.6854 37.8687 31.7021C37.1521 31.7083 36.4917 31.6542 35.9312 31.4854L35.8937 31.4729C35.6771 33.4958 35.1792 37.4937 34.8562 39.3167C34.5958 40.7875 34.1417 41.9562 33.2729 42.8312C32.4062 43.7062 31.1812 44.2333 29.5312 44.5771C27.4875 45.0021 25.9979 44.5437 25.0375 43.7583C24.0792 42.9771 23.6396 41.9375 23.375 41.3C23.1937 40.8625 23.1 40.2937 23.0083 39.5333C22.9075 38.6229 22.8401 37.7091 22.8062 36.7937C22.7464 35.1889 22.727 33.5829 22.7479 31.9771C21.8937 32.7333 20.8312 33.2375 19.6917 33.4271C18.3375 33.65 17.125 33.4312 16.4021 33.2562C16.0477 33.1689 15.705 33.0395 15.3812 32.8708C15.0437 32.6979 14.725 32.5021 14.5125 32.1146C14.3873 31.8934 14.3473 31.6341 14.4 31.3854C14.4682 31.1328 14.6194 30.9105 14.8292 30.7542C15.2208 30.4458 15.7354 30.275 16.5125 30.1167C17.9292 29.8354 18.4229 29.6417 18.7229 29.4104C18.9792 29.2125 19.2687 28.8125 19.7812 28.2229L19.775 28.1458C18.8616 28.119 17.9663 27.8854 17.1562 27.4625C16.8625 27.7625 15.3542 29.3104 13.5146 31.4562C12.7417 32.3542 11.8875 32.8687 10.9854 32.9062C10.0833 32.9437 9.26875 32.5021 8.57708 31.8521C7.19166 30.5479 6.0875 28.3042 5.125 25.7687C4.16666 23.2312 3.38333 20.4062 2.82916 18C2.27083 15.5937 1.94166 13.6542 1.89583 12.7187C1.6875 8.74166 2.64583 6.06249 4.29166 4.37291C5.9375 2.68333 8.19166 2.04166 10.3917 1.92083C14.3375 1.69999 18.0854 3.03541 18.8437 3.32291C20.3042 2.36041 22.1854 1.76041 24.5375 1.79791C25.6523 1.81342 26.762 1.95317 27.8458 2.21458L27.8854 2.19791C28.3632 2.03541 28.8479 1.8993 29.3396 1.78958C30.6781 1.48746 32.0446 1.32686 33.4167 1.31041L33.4187 1.30624ZM33.7167 2.58541H33.4312C32.3041 2.60059 31.1809 2.72337 30.0771 2.95208C32.2682 3.90641 34.1933 5.38101 35.6854 7.24791C36.5893 8.36479 37.3391 9.59804 37.9146 10.9146C38.1312 11.4187 38.2771 11.8458 38.3583 12.175C38.4 12.3417 38.4292 12.4812 38.4375 12.6271C38.4452 12.7194 38.4374 12.8123 38.4146 12.9021L38.4021 12.9271C38.4625 14.6 38.0354 15.7333 37.9833 17.3292C37.9437 18.4875 38.2479 19.8479 38.3229 21.3292C38.3937 22.725 38.2208 24.2562 37.2875 25.7604C37.3653 25.8521 37.4403 25.9437 37.5125 26.0354C39.9812 22.2646 41.7625 18.0896 42.7104 14.5333C43.2167 12.6167 43.4875 10.8812 43.5104 9.50624C43.5312 8.13124 43.2667 7.13333 42.9292 6.71874C40.2875 3.44166 36.7146 2.60833 33.7167 2.58541ZM24.2896 3.07291C21.9625 3.07708 20.2917 3.76041 19.0271 4.78124C17.7208 5.83749 16.8458 7.28124 16.2708 8.76249C15.7143 10.2428 15.374 11.7955 15.2604 13.3729L15.2875 13.3583C15.9896 12.975 16.9125 12.5937 17.9 12.3729C18.8896 12.1521 19.9542 12.0833 20.9187 12.4458C21.8833 12.8083 22.6812 13.6625 22.9708 14.9583C24.3562 21.1792 22.5396 23.4917 21.8687 25.2354C21.6171 25.8683 21.4001 26.5144 21.2187 27.1708C21.3021 27.1472 21.3861 27.1305 21.4708 27.1208C21.8368 27.101 22.2019 27.1726 22.5333 27.3292C23.2083 27.6 23.6708 28.1667 23.9208 28.8167C23.9861 28.9889 24.0326 29.1694 24.0604 29.3583C24.0882 29.4375 24.1014 29.5187 24.1 29.6021C24.0251 31.9808 24.0335 34.3614 24.125 36.7396C24.1708 37.7687 24.2375 38.6729 24.3229 39.3875C24.4062 40.1 24.5271 40.6417 24.6042 40.825C24.8542 41.4375 25.2229 42.2375 25.8896 42.7812C26.5562 43.325 27.5083 43.6854 29.2521 43.3229C30.7646 43.0083 31.6979 42.5729 32.3229 41.9417C32.9437 41.3146 33.3167 40.4417 33.5542 39.1021C33.9104 37.0958 34.6271 31.2812 34.7125 30.1854C34.675 29.3625 34.8 28.7271 35.0708 28.2437C35.3521 27.7479 35.7854 27.4437 36.1583 27.2792C36.3458 27.1958 36.5208 27.1417 36.6646 27.1021C36.5114 26.8902 36.3516 26.6831 36.1854 26.4812C35.6467 25.851 35.205 25.1439 34.875 24.3833C34.716 24.0704 34.5472 23.7626 34.3687 23.4604C34.1083 23.0021 33.7771 22.4292 33.4312 21.7854C32.7375 20.4958 31.9833 18.9333 31.5917 17.4104C31.2021 15.8917 31.1437 14.3187 32.1437 13.2083C33.0312 12.2229 34.5854 11.8146 36.9208 12.0437C36.8521 11.8437 36.8104 11.6771 36.6937 11.4104C36.1667 10.2 35.4778 9.06671 34.6458 8.04166C32.6667 5.5875 29.4646 3.15416 24.5146 3.075H24.2896V3.07291ZM11.2146 3.17083C10.9646 3.17083 10.7146 3.17777 10.4646 3.19166C8.47708 3.30208 6.59791 3.86249 5.25416 5.24583C3.90625 6.62708 3.02083 8.89374 3.2125 12.6479C3.25208 13.3562 3.57083 15.3479 4.11666 17.7104C4.6625 20.0771 5.4375 22.8583 6.36666 25.3146C7.29583 27.7729 8.425 29.9125 9.49583 30.925C10.0354 31.4312 10.5042 31.6354 10.9292 31.6187C11.3562 31.5979 11.8687 31.3604 12.4979 30.6292C13.6437 29.2883 14.8318 27.9842 16.0604 26.7187C15.1923 25.9908 14.5241 25.0537 14.1187 23.9958C13.7167 22.948 13.5946 21.8135 13.7646 20.7042C13.9667 19.2917 13.9937 17.9708 13.9708 16.9292C13.9458 15.9125 13.8708 15.2375 13.8708 14.8146V14.7562C13.8687 12.5544 14.2632 10.3703 15.0354 8.30833C15.5854 6.88749 16.4062 5.44374 17.6375 4.27499C16.4292 3.88958 14.2833 3.30208 11.9604 3.19166C11.7106 3.17829 11.4605 3.17134 11.2104 3.17083H11.2146ZM35.6187 13.2583C34.2833 13.275 33.5333 13.6104 33.1396 14.0479C32.5812 14.6687 32.5292 15.7562 32.875 17.0979C33.2208 18.4396 33.9312 19.9417 34.6021 21.1875C34.9354 21.8125 35.2604 22.375 35.5229 22.8292C35.7875 23.2875 35.9812 23.6125 36.0979 23.8917C36.209 24.1431 36.3257 24.3729 36.4479 24.5812C36.9646 23.5208 37.0583 22.4812 37.0042 21.3958C36.9354 20.0542 36.6146 18.6812 36.6625 17.2917C36.7146 15.6667 37.0458 14.6062 37.075 13.35C36.5918 13.2911 36.1055 13.2605 35.6187 13.2583ZM19.4104 13.4771C19.0023 13.4802 18.5957 13.5277 18.1979 13.6187C17.407 13.8052 16.6436 14.0938 15.9271 14.4771C15.6868 14.6021 15.4576 14.7472 15.2396 14.9125L15.1979 14.95C15.2104 15.2292 15.2667 15.9062 15.2917 16.9C15.3125 17.9896 15.2875 19.3792 15.0708 20.8792C14.6 24.1458 17.0417 26.85 19.9125 26.8542C20.0792 26.1833 20.3562 25.5042 20.6312 24.7875C21.4312 22.6979 23.0042 21.175 21.6792 15.2271C21.4625 14.2542 21.0333 13.8604 20.4417 13.6375C20.1104 13.5225 19.761 13.4681 19.4104 13.4771ZM34.9937 13.8667H35.0937C35.2243 13.8708 35.3424 13.8847 35.4479 13.9083C35.5437 13.9276 35.6354 13.9636 35.7187 14.0146C35.7567 14.0369 35.7895 14.067 35.815 14.1029C35.8405 14.1388 35.8581 14.1797 35.8667 14.2229V14.2396C35.8721 14.3311 35.8472 14.4219 35.7958 14.4979C35.7377 14.603 35.6647 14.6991 35.5792 14.7833C35.3773 14.9976 35.111 15.1402 34.8208 15.1896C34.5363 15.2233 34.2492 15.153 34.0125 14.9917C33.9172 14.9287 33.831 14.853 33.7562 14.7667C33.693 14.6992 33.6498 14.6156 33.6312 14.525C33.6267 14.4804 33.6318 14.4354 33.6462 14.393C33.6606 14.3506 33.6839 14.3118 33.7146 14.2792C33.7812 14.2092 33.8594 14.1514 33.9458 14.1083C34.2758 13.9568 34.6329 13.8732 34.9958 13.8625L34.9937 13.8667ZM19.6021 14.1875C19.7062 14.1875 19.8153 14.1958 19.9292 14.2125C20.2292 14.2542 20.4979 14.3312 20.7021 14.4458C20.8021 14.4972 20.8896 14.5646 20.9646 14.6479C21.0035 14.6937 21.0326 14.7444 21.0521 14.8C21.0715 14.8555 21.0778 14.9132 21.0708 14.9729C21.0519 15.0834 21.0004 15.1857 20.9229 15.2667C20.8423 15.3637 20.7475 15.448 20.6417 15.5167C20.3829 15.6929 20.069 15.7691 19.7583 15.7312C19.4431 15.6803 19.1532 15.5274 18.9333 15.2958C18.8419 15.2026 18.7634 15.0975 18.7 14.9833C18.6351 14.8834 18.6064 14.7643 18.6187 14.6458C18.6479 14.4375 18.825 14.3333 18.9937 14.2708C19.1888 14.2089 19.3936 14.1835 19.5979 14.1958L19.6021 14.1875ZM37.4354 28.2125H37.4292C37.1396 28.3167 36.9021 28.3583 36.7 28.4417C36.4987 28.5163 36.3318 28.6624 36.2312 28.8521C36.1062 29.0708 36.0021 29.4604 36.0333 30.1229C36.1231 30.1821 36.2215 30.2271 36.325 30.2562C36.6604 30.3562 37.225 30.4229 37.8562 30.4125C39.1104 30.3979 40.6562 30.1146 41.4771 29.7437C42.15 29.4396 42.775 29.0437 43.3333 28.5687C40.5896 29.1187 39.0417 28.9729 38.0896 28.5917C37.8547 28.4958 37.6345 28.3696 37.4354 28.2125ZM21.6271 28.3896H21.5854C21.4812 28.3979 21.3292 28.4312 21.0375 28.7479C20.35 29.4937 20.1125 29.9604 19.5458 30.3979C18.9833 30.8354 18.2479 31.0667 16.7812 31.3583C16.3167 31.45 16.0521 31.5521 15.8729 31.6333C15.9312 31.6792 15.925 31.6917 16.0104 31.7354C16.225 31.85 16.5021 31.95 16.7229 32.0062C17.3542 32.1583 18.3896 32.3375 19.4708 32.1583C20.5521 31.9792 21.675 31.4771 22.6333 30.1729C22.8 29.9479 22.8167 29.6146 22.6812 29.2562C22.5417 28.9021 22.2417 28.5937 22.0292 28.5062C21.9024 28.4465 21.7665 28.4084 21.6271 28.3937V28.3896Z" fill="#2F4157"/>
</svg>
