<svg width="32" height="32" viewBox="0 0 32 32" fill="none" xmlns="http://www.w3.org/2000/svg">
<path d="M6.25269 8.83869C7.6809 8.83869 8.83869 7.6809 8.83869 6.25269C8.83869 4.82448 7.6809 3.66669 6.25269 3.66669C4.82448 3.66669 3.66669 4.82448 3.66669 6.25269C3.66669 7.6809 4.82448 8.83869 6.25269 8.83869Z" stroke="white" stroke-linecap="round" stroke-linejoin="round"/>
<path d="M6.25269 28.3333C7.6809 28.3333 8.83869 27.1755 8.83869 25.7473C8.83869 24.3191 7.6809 23.1613 6.25269 23.1613C4.82448 23.1613 3.66669 24.3191 3.66669 25.7473C3.66669 27.1755 4.82448 28.3333 6.25269 28.3333Z" stroke="white" stroke-linecap="round" stroke-linejoin="round"/>
<path d="M6.25269 18.586C7.6809 18.586 8.83869 17.4282 8.83869 16C8.83869 14.5718 7.6809 13.414 6.25269 13.414C4.82448 13.414 3.66669 14.5718 3.66669 16C3.66669 17.4282 4.82448 18.586 6.25269 18.586Z" stroke="white" stroke-linecap="round" stroke-linejoin="round"/>
<path d="M27.14 3.66669H12.8174C12.1583 3.66669 11.624 4.20096 11.624 4.86002V7.64535C11.624 8.30441 12.1583 8.83869 12.8174 8.83869H27.14C27.7991 8.83869 28.3334 8.30441 28.3334 7.64535V4.86002C28.3334 4.20096 27.7991 3.66669 27.14 3.66669Z" stroke="white" stroke-linecap="round" stroke-linejoin="round"/>
<path d="M27.14 23.1613H12.8174C12.1583 23.1613 11.624 23.6956 11.624 24.3546V27.14C11.624 27.799 12.1583 28.3333 12.8174 28.3333H27.14C27.7991 28.3333 28.3334 27.799 28.3334 27.14V24.3546C28.3334 23.6956 27.7991 23.1613 27.14 23.1613Z" stroke="white" stroke-linecap="round" stroke-linejoin="round"/>
<path d="M27.14 13.414H12.8174C12.1583 13.414 11.624 13.9483 11.624 14.6073V17.3927C11.624 18.0517 12.1583 18.586 12.8174 18.586H27.14C27.7991 18.586 28.3334 18.0517 28.3334 17.3927V14.6073C28.3334 13.9483 27.7991 13.414 27.14 13.414Z" stroke="white" stroke-linecap="round" stroke-linejoin="round"/>
</svg>
