<svg width="32" height="32" viewBox="0 0 32 32" fill="none" xmlns="http://www.w3.org/2000/svg">
<g clip-path="url(#clip0_394_481)">
<path d="M6.42698 23.031C5.51598 23.031 4.68798 22.287 4.68798 21.38C4.68798 20.473 5.43198 19.724 6.42698 19.724C7.42698 19.724 8.17798 20.469 8.17798 21.38C8.17798 22.287 7.34498 23.031 6.43298 23.031H6.42698ZM27.776 14.016C27.593 12.693 26.776 11.615 25.697 10.792L25.276 10.459L24.937 10.87C24.281 11.615 24.016 12.938 24.098 13.927C24.177 14.678 24.415 15.422 24.838 16C24.494 16.177 24.078 16.333 23.754 16.505C22.994 16.754 22.254 16.838 21.515 16.838H0.129983L0.045983 17.327C-0.11522 18.9401 0.143489 20.5674 0.796983 22.051L1.12498 22.63V22.707C3.12498 26.02 6.68198 27.51 10.562 27.51C18.021 27.51 24.135 24.286 27.035 17.333C28.936 17.416 30.854 16.921 31.754 15.098L31.994 14.687L31.598 14.436C30.515 13.775 29.035 13.687 27.797 14.02L27.77 14.025L27.776 14.016ZM17.099 12.693H13.86V15.921H17.099V12.693ZM17.099 8.63599H13.86V11.864H17.099V8.63599ZM17.099 4.495H13.86V7.724H17.099V4.495ZM21.057 12.693H17.838V15.921H21.067V12.693H21.057ZM9.06298 12.693H5.84398V15.921H9.07298V12.693H9.06298ZM13.099 12.693H9.90198V15.921H13.121V12.693H13.099ZM5.06298 12.693H1.86398V15.921H5.10398V12.693H5.06298ZM13.099 8.63599H9.90198V11.864H13.121V8.64L13.099 8.63599ZM9.04098 8.63599H5.84898V11.864H9.06798V8.64L9.04698 8.63599H9.04098Z" fill="white"/>
</g>
<defs>
<clipPath id="clip0_394_481">
<rect width="32" height="32" fill="white"/>
</clipPath>
</defs>
</svg>
