<svg width="51" height="42" viewBox="0 0 51 42" fill="none" xmlns="http://www.w3.org/2000/svg">
<path d="M28.7059 0.787508C28.6141 0.775008 27.1324 1.30977 26.177 1.69766C24.8871 2.22384 23.8855 2.72501 23.2676 3.1586C23.0629 3.30391 22.8207 3.54259 22.7367 3.67384L22.7328 3.66368C22.7328 3.66368 22.725 3.68868 22.7211 3.69571C22.7172 3.70352 22.7074 3.71524 22.7047 3.72188C22.6872 3.76711 22.6784 3.8152 22.6785 3.86368L22.6926 3.87657C22.6961 3.92149 22.707 3.97188 22.7289 4.02696C22.7836 4.16055 22.9418 4.32306 23.1211 4.49024C23.1211 4.49024 24.9785 6.30118 25.2039 6.55977C26.2305 7.74532 26.6777 8.91368 26.7195 10.5246C26.7445 11.5598 26.548 12.4703 26.0602 13.5262C25.1922 15.4211 23.3598 17.5117 20.534 19.832L20.5746 19.8184C20.5574 19.832 20.5293 19.857 20.5129 19.8703C20.1746 20.1375 19.6738 20.6379 19.4191 20.9551C19.0395 21.4309 18.7395 21.9363 18.6098 22.3246C18.3805 23.0258 18.4926 23.7348 18.9352 24.3899C19.5027 25.2246 20.6344 26.0766 21.9531 26.6567C22.625 26.9527 23.7559 27.3324 24.6074 27.5453C26.0223 27.9047 28.7605 28.2926 30.2668 28.3512C30.5715 28.3637 30.9805 28.3637 30.9973 28.3512C31.0305 28.3301 31.2645 27.884 31.5355 27.3285C32.4621 25.4379 33.1301 23.6641 33.4934 22.1488C33.7102 21.2309 33.8813 20.0078 33.9938 18.5594C34.0234 18.1547 34.0355 16.7984 34.0105 16.3395C33.9727 15.5883 33.9059 14.9785 33.8016 14.3816C33.7895 14.3176 33.7914 14.2863 33.7926 14.2574C37.1469 13.2609 40.8473 12.3582 43.3055 11.982L43.6844 11.9234L43.6266 11.832C43.2926 11.3145 43.0633 10.9922 42.7875 10.65C41.9863 9.65665 41.0137 8.85118 39.8242 8.1836C38.1879 7.26954 36.0719 6.55587 33.3926 6.02579C32.8879 5.92579 31.7785 5.73399 30.877 5.5961L30.7926 5.4461C30.3 4.57813 29.7574 3.50118 29.441 2.77501C29.1945 2.21173 28.9605 1.56016 28.8313 1.09259C28.7602 0.808992 28.7516 0.792195 28.7063 0.788289L28.7059 0.787508ZM28.6387 1.0004H28.6434C28.6473 1.0043 28.6641 1.12227 28.6809 1.25977C28.7547 1.85789 28.8905 2.44672 29.0859 3.0168C29.2402 3.47618 29.2402 3.4504 29.0605 3.39571C28.6352 3.2793 26.7273 2.9504 25.3457 2.75821C25.1246 2.72891 24.9371 2.69962 24.9371 2.69571C24.9199 2.67891 25.9348 2.14884 26.3812 1.94024C26.9531 1.67735 28.5215 1.02149 28.6387 1.0004ZM24.616 2.87032L24.7785 2.92462C25.6633 3.2254 27.8879 3.65118 29.1148 3.75157C29.2523 3.76407 29.3695 3.77618 29.3734 3.77618C29.3777 3.78009 29.2613 3.84298 29.1109 3.91407C28.5329 4.20318 27.9673 4.51648 27.4156 4.85313C27.3368 4.9054 27.2543 4.95188 27.1688 4.9922L26.7566 4.92501L26.3645 4.54063C25.8568 4.04613 25.3461 3.55471 24.8324 3.06641L24.616 2.87032ZM24.4488 3.00001L25.0371 3.73477C25.3582 4.13946 25.684 4.53555 25.7551 4.62345C25.8188 4.70235 25.8605 4.7547 25.868 4.76993C25.4523 4.69766 25.0074 4.62227 24.6652 4.54884C24.4152 4.49415 23.9355 4.38126 23.5598 4.25196L23.4348 4.20509V4.16056C23.4387 3.88087 23.7934 3.4629 24.3945 3.03751L24.4488 3.00001ZM29.4488 4.00196C29.466 4.00196 29.4867 4.03946 29.5367 4.15196C29.6785 4.46524 30.1211 5.30821 30.2297 5.4711L30.2434 5.49337C29.4554 5.36866 28.668 5.24027 27.8813 5.10821C27.9052 5.08823 27.9314 5.07118 27.9594 5.05743C28.4102 4.8048 28.8362 4.51013 29.2316 4.17735C29.3277 4.09805 29.4152 4.02306 29.4324 4.01016C29.4363 4.00196 29.4445 3.99766 29.4488 4.00196ZM23.8102 4.70665C23.8141 4.70274 23.8813 4.72774 23.9688 4.75743C24.1273 4.81134 24.332 4.87423 24.5742 4.94102C24.7574 4.99128 24.941 5.03985 25.125 5.08673C25.375 5.14923 25.584 5.20782 25.5879 5.20782C25.6172 5.23712 26.0387 6.58477 26.1805 7.10235C26.2348 7.29884 26.2773 7.46563 26.273 7.46563C26.2687 7.46954 26.2223 7.39923 26.1684 7.30313C25.6801 6.44337 24.9078 5.5711 24.0145 4.86993C23.9423 4.82077 23.874 4.76619 23.8102 4.70665ZM25.8594 5.27071C25.8594 5.27891 25.859 5.27462 25.8633 5.27462C25.8844 5.27462 25.9766 5.28751 26.0891 5.31251C26.7988 5.4711 28.0715 5.7129 28.8852 5.8504C29.023 5.87149 29.1316 5.8961 29.1316 5.9047C29.1316 5.9129 29.0816 5.9422 29.0188 5.9754C28.7208 6.14106 28.4284 6.31668 28.1422 6.50196C27.6789 6.81055 27.2617 7.14454 26.9609 7.44493C26.8866 7.51944 26.8116 7.59328 26.7359 7.66641C26.7359 7.66641 26.7113 7.59493 26.6902 7.50743C26.5402 6.92735 26.2266 6.06798 25.9426 5.4629C25.9114 5.40037 25.8837 5.33622 25.8594 5.27071ZM29.4781 5.96329C29.5031 5.97188 29.5449 6.11329 29.6285 6.42657C29.785 7.05119 29.8525 7.69479 29.8289 8.33829C29.8207 8.51368 29.8121 8.67618 29.8039 8.69688L29.791 8.73907L29.5742 8.66798C28.9783 8.48286 28.3798 8.30615 27.7789 8.1379C27.4242 8.0418 27.1367 7.9543 27.1367 7.94649C27.1367 7.9211 27.6539 7.40313 27.875 7.20704C28.2969 6.83555 29.4402 5.95079 29.4781 5.96329ZM29.7664 6.00548C29.7801 5.99298 31.4938 6.28907 32.2742 6.43907C32.8543 6.55235 33.6973 6.72696 33.7473 6.74766C33.7723 6.75626 33.6848 6.80626 33.4051 6.93126C32.3035 7.42813 31.4859 7.87501 30.6719 8.41759C30.459 8.55938 30.2797 8.67618 30.2754 8.67618C30.2711 8.67618 30.2668 8.55509 30.2668 8.40938C30.2668 7.61641 30.1082 6.81524 29.816 6.13868C29.7867 6.07227 29.7621 6.00977 29.7664 6.00548ZM34.2027 6.88204C34.2156 6.89454 34.1605 7.23165 34.1105 7.43204C33.9605 8.05391 33.5559 8.97696 33.0594 9.84532C32.9715 9.99962 32.8922 10.1246 32.8836 10.1289C32.8754 10.1332 32.7629 10.0703 32.6336 9.99454C32.1492 9.71095 31.5984 9.44376 30.9969 9.19376C30.8301 9.12266 30.684 9.06485 30.6797 9.05626C30.6504 9.03126 31.9949 8.14219 32.7047 7.71641C33.268 7.37423 34.1863 6.86485 34.2027 6.88204ZM34.5195 6.93165C34.557 6.93165 35.3172 7.14063 35.7137 7.25743C36.6941 7.54962 37.8207 7.96251 38.5555 8.29649L38.8602 8.43438L38.6477 8.48399C36.8531 8.89727 35.3168 9.37305 33.8352 9.97423C33.757 10.0082 33.6775 10.0389 33.5969 10.0664C33.5891 10.0664 33.6305 9.96954 33.6848 9.85274C34.1313 8.90548 34.4195 7.9168 34.4906 7.07344C34.4945 6.99415 34.507 6.93165 34.5195 6.93165ZM26.957 8.66798C26.9699 8.65548 27.55 8.79298 27.8629 8.88087C28.3387 9.01446 29.3484 9.35196 29.3484 9.37735C29.3484 9.38165 29.2359 9.47735 29.1023 9.59415C28.5555 10.0492 28.0293 10.5297 27.3992 11.1391C27.2113 11.3188 27.0531 11.4641 27.0449 11.4641C27.0367 11.4641 27.0324 11.4387 27.0367 11.4055C27.1328 10.7043 27.1113 9.80313 26.9781 8.88907C26.9652 8.77227 26.9527 8.67227 26.957 8.66798ZM39.1484 8.68009C39.1562 8.68829 38.8809 9.12266 38.7059 9.36915C38.4555 9.72813 38.0887 10.2043 37.2578 11.2473C36.8918 11.7067 36.5272 12.1672 36.1641 12.6289C35.9969 12.8375 35.8594 13.0133 35.8551 13.0133C35.8512 13.0133 35.7969 12.9383 35.7383 12.8461C35.2711 12.1453 34.7109 11.5316 34.0477 10.9809C33.9465 10.8951 33.8436 10.8113 33.7391 10.7297C33.7085 10.7095 33.6805 10.6857 33.6555 10.659C33.6555 10.6465 34.3652 10.3418 34.9035 10.1246C35.9522 9.70283 37.0171 9.32259 38.0957 8.98477C38.6012 8.82657 39.1395 8.67227 39.148 8.68048L39.1484 8.68009ZM39.4695 8.76407C39.4859 8.76016 39.5867 8.81016 39.7078 8.88087C40.7219 9.46094 41.7152 10.2082 42.5 10.9758C42.7211 11.193 43.268 11.7609 43.2598 11.7649C43.2598 11.7649 43.0676 11.7816 42.8426 11.7984C41.0852 11.932 38.8355 12.3027 36.6734 12.8246C36.5792 12.8474 36.4845 12.8685 36.3895 12.8879C36.3812 12.8879 36.5441 12.7246 36.7488 12.5285C38.0176 11.3055 38.5977 10.5336 39.2816 9.15626C39.3777 8.95196 39.4617 8.77696 39.4695 8.76407ZM30.1746 9.71563C30.2332 9.72813 30.7758 9.98243 31.1848 10.1871C31.5605 10.3746 32.1246 10.6754 32.1535 10.7004C32.1578 10.7043 31.9574 10.809 31.7113 10.9301C30.9757 11.2961 30.2558 11.693 29.5535 12.1195C29.3531 12.2406 29.1863 12.3406 29.182 12.3406C29.1652 12.3406 29.1691 12.3238 29.282 12.1195C29.6578 11.4352 29.9578 10.6172 30.1289 9.81993C30.1457 9.75743 30.1621 9.71563 30.1746 9.71563ZM29.632 9.81524C29.6445 9.82813 29.5031 10.3414 29.4156 10.6211C29.2208 11.207 28.9736 11.7741 28.677 12.3156C28.6102 12.4328 28.5102 12.6035 28.4559 12.6992L28.3512 12.8664L28.1176 12.6414C27.8465 12.3785 27.6246 12.2152 27.341 12.0691C27.2285 12.0106 27.141 11.9606 27.141 11.9524C27.141 11.9191 27.8547 11.2727 28.4016 10.8051C28.7938 10.4668 29.6195 9.80313 29.632 9.81524ZM32.95 11.1805L33.1555 11.3137C33.6548 11.6414 34.1353 11.9968 34.5949 12.3781C34.8332 12.5742 35.2922 12.9875 35.384 13.0875L35.4336 13.1422L35.0957 13.2379C33.184 13.768 31.707 14.2399 29.9832 14.8746C29.791 14.9449 29.6285 15.0035 29.616 15.0035C29.591 15.0035 29.5699 15.0246 30 14.6281C31.1016 13.6141 32.0781 12.4953 32.8047 11.4063L32.95 11.1805ZM32.0781 11.3977C32.0867 11.4063 31.5148 12.2117 31.1727 12.6664C30.6429 13.3606 30.0972 14.0424 29.5359 14.7113C29.3277 14.9574 29.1484 15.1617 29.1402 15.166C29.1273 15.1699 29.1234 15.1074 29.1234 15.0117C29.1234 14.5066 28.9937 13.9688 28.7684 13.5094C28.6727 13.318 28.6559 13.2711 28.677 13.25C28.7563 13.1797 29.9707 12.4867 30.7383 12.0738C31.2563 11.7984 32.0656 11.3891 32.0781 11.3977ZM26.8023 12.6906C26.8152 12.6906 26.9117 12.7414 27.0199 12.8C27.2736 12.9387 27.514 13.1006 27.7379 13.2836C27.7457 13.2922 27.6379 13.3801 27.4957 13.4844C27.0392 13.8141 26.5899 14.1536 26.148 14.5027C25.7805 14.7949 25.7676 14.8035 25.809 14.741C26.0848 14.3191 26.2223 14.0809 26.3684 13.7766C26.5027 13.4932 26.6198 13.2021 26.7191 12.9047C26.7523 12.7836 26.7941 12.6906 26.8023 12.6906ZM28.2008 13.7934H28.2094C28.2301 13.7895 28.2555 13.8262 28.368 13.9934C28.6059 14.3477 28.7898 14.8238 28.8355 15.2082L28.8441 15.2918L28.2719 15.5129C27.2492 15.9094 26.3059 16.3012 25.6672 16.5934C25.4342 16.7029 25.202 16.8142 24.9707 16.9274C24.766 17.0316 24.5992 17.1109 24.5992 17.107C24.5992 17.1027 24.7285 17.007 24.8875 16.8902C26.1355 15.9844 27.2156 14.9914 28.0254 13.9977C28.1133 13.8938 28.1922 13.7977 28.2008 13.7934ZM27.5621 13.952C27.5789 13.9691 27.1035 14.5066 26.7781 14.8363C25.9727 15.6586 25.1746 16.3012 24.1855 16.9274C24.0605 17.0066 23.948 17.0777 23.9355 17.0863C23.9063 17.1027 23.9438 17.0613 24.3777 16.5895C24.6323 16.3162 24.8732 16.0306 25.0996 15.7336C25.2582 15.5289 25.2879 15.5004 25.5176 15.3375C26.1309 14.8949 27.5457 13.9352 27.5621 13.952ZM33.1508 14.4496C33.2066 14.5883 33.3238 15.7277 33.3555 16.4887C33.3637 16.6602 33.3598 16.7734 33.3516 16.7734C33.318 16.7734 32.6457 16.3766 32.166 16.0762C31.75 15.8145 30.9645 15.2934 30.8344 15.1902C31.6026 14.9312 32.3748 14.6843 33.1508 14.4496ZM30.3859 15.3496C30.4406 15.3731 30.5227 15.4184 30.6887 15.5207C31.548 16.059 32.7172 16.7106 33.218 16.9274C33.3723 16.9942 33.3891 16.9691 33.0344 17.2113C32.2746 17.7289 31.3273 18.2387 30.1672 18.7516C30.0418 18.8088 29.9151 18.863 29.7871 18.9141C29.7789 18.9141 29.8035 18.8098 29.8367 18.6848C30.1164 17.6453 30.2754 16.5938 30.2836 15.7504C30.2859 15.5402 30.2867 15.4367 30.2922 15.3832L30.3859 15.3496ZM29.7457 15.5777C29.7676 15.6547 29.7523 16.5137 29.7199 16.7606C29.6457 17.3759 29.5173 17.9834 29.3363 18.5762C29.2902 18.7305 29.2484 18.8602 29.2398 18.8684C29.223 18.8891 28.652 18.3301 28.4641 18.1133C28.1387 17.7375 27.8836 17.3617 27.6957 16.9945C27.6055 16.8176 27.4758 16.5008 27.4707 16.4524C28.0625 16.2117 28.6746 15.9719 29.3195 15.7297C29.452 15.6801 29.6078 15.6281 29.7457 15.5777ZM27.0336 16.6352C27.0441 16.6516 27.0676 16.7047 27.0906 16.7734C27.2242 17.1367 27.5246 17.6711 27.7836 18.0133C28.0672 18.3887 28.4391 18.7887 28.748 19.0516C28.848 19.1352 28.9395 19.2145 28.9516 19.2274C28.977 19.252 28.9859 19.2484 28.3055 19.507C27.5168 19.8078 26.657 20.1074 25.6719 20.425C25.4364 20.5008 25.2011 20.5772 24.966 20.6543C24.9285 20.6668 24.9414 20.6465 25.05 20.4754C25.5383 19.7117 26.2812 18.2137 26.6984 17.1535C26.7695 16.9695 26.8402 16.7852 26.8527 16.7434C26.8578 16.7258 26.866 16.716 26.8723 16.7043C26.927 16.6809 26.9785 16.6582 27.0336 16.6352ZM26.1625 17.0078C26.1437 17.0742 25.9645 17.4512 25.7719 17.8293C25.3668 18.6184 24.9242 19.3941 24.332 20.3371C24.2316 20.5 24.1355 20.6508 24.123 20.6676C24.102 20.6965 24.0945 20.6887 24.0277 20.559C23.8859 20.2793 23.7684 19.9199 23.7055 19.5902C23.643 19.2645 23.6563 18.6973 23.727 18.3465C23.7586 18.1957 23.7727 18.1367 23.802 18.0992C24.579 17.7145 25.3661 17.3506 26.1625 17.0078ZM33.3805 17.257V17.4328C33.3805 18.3633 33.2801 19.6406 33.1344 20.5715C33.109 20.734 33.0883 20.8676 33.0844 20.8723C33.0844 20.8723 32.9633 20.8383 32.8211 20.7965C32.1559 20.5851 31.5127 20.3096 30.9008 19.9738C30.4961 19.7531 29.9078 19.3902 29.9242 19.3734C29.9285 19.3695 30.1043 19.2777 30.309 19.1691C31.127 18.7434 31.9109 18.2844 32.5914 17.8293C32.8461 17.6582 33.2297 17.3828 33.3133 17.3074L33.3805 17.257ZM23.0313 18.5008C23.0422 18.5078 23.0391 18.5418 23.0168 18.6762C22.9958 18.8246 22.9806 18.9738 22.9711 19.1234C22.9375 19.7328 23.0383 20.1836 23.3387 20.8008C23.4223 20.9723 23.4887 21.1133 23.4844 21.1176C23.4551 21.143 20.693 21.9524 19.8242 22.1902C19.5656 22.2609 19.3402 22.3242 19.3234 22.3285C19.2945 22.3367 19.2902 22.3324 19.3027 22.2613C19.3988 21.6481 19.866 20.8469 20.5176 20.1707C20.9512 19.7199 21.2973 19.4566 21.8898 19.1188C22.164 18.9638 22.4401 18.8122 22.718 18.6641C22.8199 18.6094 22.9273 18.5551 23.0313 18.5008ZM29.5406 19.657C29.5445 19.6531 29.6449 19.7078 29.7656 19.7785C30.659 20.2961 31.9031 20.7758 32.9633 21.0223L33.0594 21.043L32.925 21.1176C32.3703 21.4262 30.5461 22.1859 28.6809 22.8832C28.4094 22.9832 28.143 23.0836 28.0926 23.1043C28.0426 23.1254 27.9965 23.1379 27.9965 23.134C27.9965 23.1301 28.0715 22.984 28.1672 22.8043C28.6891 21.8277 29.2145 20.6379 29.482 19.8113C29.5152 19.732 29.5363 19.6613 29.5406 19.657ZM28.8766 19.8738C28.8812 19.8781 28.8477 19.966 28.8062 20.0664C28.443 20.9469 27.9668 21.907 27.3578 22.9836C27.2031 23.2594 27.0746 23.4805 27.0703 23.4805C27.066 23.4805 26.9406 23.4051 26.7902 23.3133C25.9051 22.7703 25.1207 22.1031 24.6074 21.4563L24.532 21.3641L24.9117 21.2594C26.2727 20.8883 27.4281 20.4875 28.5762 19.9953C28.7391 19.9285 28.873 19.8742 28.877 19.8742L28.8766 19.8738ZM33.0004 21.3145C33.0043 21.4113 32.7918 22.2699 32.6168 22.8914C32.4603 23.4456 32.2932 23.9967 32.1156 24.5445C32.0156 24.8621 31.9281 25.1246 31.9242 25.1246C31.9056 25.1225 31.8873 25.1184 31.8695 25.1125C30.6301 24.8871 29.5195 24.5734 28.4762 24.1563C28.184 24.0395 27.7668 23.8516 27.7418 23.8305C27.7332 23.8223 27.984 23.7055 28.3008 23.568C30.2 22.7375 32.1703 21.7941 32.8465 21.3891C32.9254 21.3391 32.9879 21.3145 33.0004 21.3145ZM23.4809 21.6395C23.4887 21.6481 22.9586 22.4113 22.2156 23.4508C21.957 23.8141 21.657 24.2395 21.5441 24.3981C21.4138 24.5819 21.2873 24.7684 21.1645 24.9574L20.9887 25.2289L20.8012 25.0703C20.5801 24.8867 20.1957 24.4945 20.0246 24.2774C19.6652 23.8309 19.4238 23.3594 19.3277 22.9297C19.2816 22.7293 19.2816 22.6289 19.3234 22.6168C19.3859 22.6 20.5008 22.3371 21.5441 22.0949C22.0425 21.9801 22.5405 21.8631 23.0379 21.7441C23.2801 21.6856 23.477 21.6395 23.4809 21.6395ZM24.0145 21.8438L24.148 21.9941C24.7492 22.666 25.3629 23.1633 26.1059 23.5973C26.2391 23.6723 26.3395 23.7387 26.3309 23.743C26.3016 23.7641 23.7516 24.6695 22.5703 25.0789C22.1663 25.2219 21.7613 25.3622 21.3555 25.5C21.3516 25.5 21.3145 25.475 21.2727 25.4457L21.1973 25.3914L21.3184 25.216C21.7105 24.6484 22.2031 24.0266 23.2762 22.7328L24.0145 21.8438ZM27.3457 24.2274C27.3496 24.2234 27.5332 24.2899 27.7582 24.3731C28.3012 24.5777 28.7309 24.707 29.307 24.8531C30.0168 25.0328 31.0434 25.2078 31.6484 25.2582C31.7402 25.266 31.7902 25.2754 31.7734 25.2879C31.7445 25.3047 31.1305 25.509 30.6797 25.6512C29.9617 25.8762 27.7711 26.5231 25.9844 27.0363C25.6547 27.1324 25.3711 27.2121 25.3543 27.216C25.3129 27.2242 25.175 27.1863 25.175 27.1699C25.175 27.1617 25.2754 27.032 25.3965 26.8899C26.0046 26.1635 26.5702 25.4026 27.0906 24.6109C27.2285 24.4024 27.3457 24.2316 27.3457 24.2274ZM26.6109 24.2481V24.2488C26.6148 24.2527 26.318 24.7285 25.8008 25.5465C25.5797 25.8926 25.3336 26.2852 25.2461 26.4231C25.1625 26.5567 25.0367 26.7649 24.966 26.8816L24.8453 27.0945L24.7828 27.0777C24.6328 27.0359 23.5762 26.6649 23.2969 26.552C22.9655 26.4198 22.6409 26.2709 22.3246 26.1059C21.9906 25.9262 21.5734 25.6586 21.6066 25.6504C21.6152 25.6461 22.1863 25.4914 22.8746 25.3039C24.7027 24.807 25.7176 24.5191 26.3812 24.3106C26.5023 24.2731 26.6066 24.2438 26.6109 24.2481ZM31.8074 25.4668H31.8113C31.8277 25.5086 31.152 27.3867 30.9055 27.9793C30.8516 28.1129 30.8301 28.1461 30.8012 28.1418C30.7301 28.1379 29.7492 28.0008 29.1523 27.9133C28.1133 27.7547 26.3684 27.4492 25.9305 27.3492L25.8305 27.3277L26.4523 27.1871C27.7883 26.8863 28.4301 26.7234 29.0812 26.5231C29.9219 26.2652 30.7433 25.9485 31.5395 25.5754C31.6687 25.5168 31.7777 25.4707 31.8074 25.4668ZM15.3211 27.4863C15.1492 27.4863 15.0086 27.5383 14.893 27.6465C14.7586 27.7742 14.6871 27.9395 14.6871 28.1641V28.4914H14.3496V28.7598H14.6871V30.4805L14.6891 30.4797H15.009V28.7524H15.4758V28.4836H15.009V28.1754C15.009 27.8949 15.1168 27.7551 15.3414 27.7551C15.4168 27.7551 15.4941 27.7742 15.5512 27.8063V27.518C15.4941 27.4922 15.4172 27.4867 15.3207 27.4867L15.3211 27.4863ZM4.49883 27.5621C4.47171 27.5611 4.44468 27.5658 4.41946 27.5758C4.39423 27.5858 4.37138 27.601 4.35235 27.6203C4.33237 27.6393 4.31639 27.662 4.30532 27.6873C4.29425 27.7125 4.28833 27.7397 4.28789 27.7672C4.28789 27.8309 4.30742 27.8754 4.35235 27.9137C4.39176 27.9514 4.44426 27.9724 4.49883 27.9723H4.49961C4.52676 27.9732 4.55381 27.9685 4.57903 27.9584C4.60426 27.9483 4.6271 27.9331 4.6461 27.9137C4.66627 27.8949 4.68242 27.8723 4.69357 27.8471C4.70472 27.8219 4.71063 27.7947 4.71094 27.7672C4.7121 27.7395 4.70698 27.7119 4.69595 27.6865C4.68493 27.661 4.66828 27.6384 4.64727 27.6203C4.6276 27.6013 4.60435 27.5863 4.57888 27.5764C4.5534 27.5664 4.52619 27.5615 4.49883 27.5621ZM31.8371 27.5949V27.6844H32.0734V28.4016H32.1629V27.6844H32.4V27.5949H31.8371ZM32.5215 27.5949V28.4016H32.6105V27.8633L32.6168 27.8617C32.6168 27.7926 32.6168 27.7352 32.6113 27.7027C32.6172 27.7406 32.6309 27.7668 32.6367 27.7859L32.9113 28.4012H32.9555L33.2316 27.7801C33.2395 27.7613 33.2449 27.7356 33.257 27.7027C33.2524 27.754 33.2503 27.8055 33.2508 27.857V28.4H33.3461V27.5945H33.2316L32.9816 28.1508C32.9758 28.1703 32.9562 28.209 32.9441 28.2531H32.9355C32.9309 28.2274 32.9184 28.2012 32.9 28.1574L32.65 27.5949H32.5215ZM0.791017 27.6856V30.4813H1.10508V28.6074L1.11055 28.6059C1.11055 28.3559 1.10274 28.1699 1.09688 28.0609H1.10274C1.12813 28.1898 1.16016 28.2863 1.18594 28.35L2.13906 30.4805H2.29922L3.25274 28.3313C3.27891 28.2727 3.3043 28.1844 3.33594 28.0617H3.34297C3.32656 28.2432 3.31809 28.4252 3.31758 28.6074V30.4863H3.64414V27.6926H3.23438L2.35781 29.6367C2.32552 29.7136 2.28073 29.8284 2.22344 29.9813H2.21094C2.17696 29.8675 2.13439 29.7565 2.0836 29.6492L1.22617 27.6856H0.791017ZM16.3188 27.8949C16.2094 27.9328 16.1016 27.9652 15.9992 27.9969V28.4832H15.6555V28.7516H15.9992V29.9352H16.0008C16.0008 30.3258 16.1727 30.525 16.525 30.525C16.6527 30.525 16.7484 30.5043 16.8258 30.4586V30.1844C16.7663 30.228 16.6941 30.2508 16.6203 30.2492C16.5117 30.2492 16.4352 30.2231 16.3906 30.1652C16.3449 30.1078 16.3188 30.0113 16.3188 29.8777V28.7516H16.8254V28.4832H16.3188V27.8949ZM17.6379 28.068C17.4766 28.068 17.3438 28.1195 17.2352 28.2281C17.125 28.3367 17.075 28.4703 17.075 28.6242C17.075 28.7856 17.1266 28.9191 17.2352 29.0203C17.3379 29.1231 17.4711 29.1742 17.6313 29.1742V29.1758C17.791 29.1758 17.9242 29.1242 18.0336 29.0141C18.0873 28.9632 18.1298 28.9017 18.1585 28.8335C18.1872 28.7653 18.2015 28.6919 18.2004 28.618C18.2004 28.4578 18.143 28.325 18.034 28.2223C17.9816 28.1714 17.9196 28.1316 17.8515 28.1051C17.7835 28.0786 17.7109 28.066 17.6379 28.068ZM17.6379 28.1258C17.7773 28.1258 17.8938 28.1707 17.9906 28.2656C18.0859 28.3613 18.1371 28.4774 18.1371 28.618C18.1381 28.6844 18.1257 28.7504 18.1005 28.8119C18.0753 28.8734 18.0379 28.9291 17.9906 28.9758C17.9445 29.022 17.8894 29.0583 17.8287 29.0824C17.7681 29.1066 17.7032 29.1182 17.6379 29.1164C17.4965 29.1164 17.3813 29.0727 17.2863 28.9758C17.239 28.9291 17.2017 28.8734 17.1765 28.8119C17.1513 28.7504 17.1388 28.6844 17.1398 28.618C17.1398 28.4774 17.1828 28.3613 17.2785 28.2656C17.3738 28.1707 17.4898 28.1258 17.6379 28.1258ZM17.4008 28.2535V28.9699H17.5031V28.6691L17.5148 28.6699H17.5801C17.6258 28.6699 17.6707 28.7137 17.709 28.7973L17.7859 28.9699H17.9066L17.8113 28.7774C17.7723 28.7004 17.7348 28.6563 17.6902 28.6441C17.7465 28.6309 17.7914 28.6117 17.823 28.5738C17.8385 28.5563 17.8504 28.5359 17.8579 28.5138C17.8654 28.4917 17.8684 28.4682 17.8668 28.4449C17.8684 28.4195 17.8641 28.3941 17.8542 28.3706C17.8443 28.3472 17.8291 28.3263 17.8098 28.3098C17.7656 28.2731 17.6953 28.2535 17.6043 28.2535H17.4008ZM17.5141 28.3367H17.6051C17.6695 28.3367 17.7148 28.3496 17.7402 28.3688C17.7641 28.3875 17.7715 28.4125 17.7715 28.4578C17.7715 28.541 17.7195 28.5801 17.6242 28.5801H17.5145L17.5141 28.3367ZM9.33555 28.432C9.03477 28.432 8.79258 28.5219 8.61289 28.6949C8.4211 28.8856 8.31953 29.1555 8.31953 29.5008C8.31953 29.8016 8.40156 30.0508 8.575 30.2363C8.75391 30.4285 8.99102 30.5246 9.29141 30.5246L9.29063 30.5254C9.59141 30.5254 9.8336 30.4285 10.0133 30.2363C10.1922 30.0457 10.2816 29.7887 10.2816 29.4688C10.2816 29.1426 10.1996 28.893 10.032 28.707C9.86602 28.5219 9.63633 28.432 9.33555 28.432ZM13.2063 28.432L13.2047 28.4328C12.9039 28.4328 12.6617 28.5223 12.482 28.6953C12.2914 28.8863 12.1891 29.1555 12.1891 29.5008C12.1891 29.8016 12.2715 30.0508 12.4438 30.2363C12.6234 30.4285 12.8602 30.5246 13.1609 30.5246C13.4688 30.5246 13.7039 30.4277 13.8836 30.2356C14.0633 30.0439 14.1531 29.788 14.1531 29.468C14.1531 29.1418 14.0688 28.8926 13.9027 28.7063C13.7301 28.5211 13.4996 28.432 13.2063 28.432ZM6.18789 28.4328C5.86836 28.4328 5.61875 28.5352 5.43242 28.7336C5.24766 28.9313 5.15235 29.2004 5.15235 29.5254C5.15235 29.8145 5.23555 30.0574 5.40821 30.243C5.58789 30.4336 5.81719 30.5309 6.09844 30.5309C6.31641 30.5246 6.49414 30.4789 6.64844 30.3895V30.0828C6.49414 30.1981 6.32891 30.2555 6.15742 30.2555C5.95235 30.2555 5.78516 30.1852 5.66367 30.05C5.54258 29.9164 5.47735 29.7313 5.47735 29.5C5.47735 29.2578 5.54297 29.0652 5.67656 28.9188C5.80469 28.7781 5.97084 28.7077 6.175 28.7074C6.34141 28.7074 6.50078 28.7594 6.64844 28.8621V28.5348C6.51406 28.4645 6.36172 28.4328 6.18789 28.4328ZM11.3438 28.441C11.1387 28.441 10.9652 28.4977 10.8379 28.6066C10.7747 28.6555 10.7239 28.7185 10.6894 28.7905C10.655 28.8626 10.6379 28.9417 10.6395 29.0215C10.6395 29.168 10.6832 29.2899 10.7668 29.3793C10.8371 29.4555 10.9582 29.5336 11.1254 29.6031C11.2855 29.6734 11.3934 29.7367 11.4512 29.7883C11.4782 29.8121 11.4996 29.8416 11.514 29.8746C11.5284 29.9076 11.5353 29.9433 11.5344 29.9793C11.5344 30.1656 11.4066 30.2621 11.1574 30.2621C10.9655 30.2624 10.7926 30.1988 10.6387 30.0715V30.4152C10.7781 30.4996 10.9457 30.5375 11.1309 30.5375C11.3676 30.525 11.5527 30.4672 11.6801 30.3524L11.6824 30.3516C11.8043 30.243 11.8688 30.109 11.8688 29.9414C11.8701 29.8739 11.8577 29.8067 11.8324 29.7441C11.8071 29.6815 11.7694 29.6246 11.7215 29.577C11.6434 29.5 11.5242 29.4309 11.35 29.3606C11.1961 29.2961 11.1008 29.2391 11.0492 29.1941C11.0217 29.1675 11 29.1354 10.9857 29.0999C10.9714 29.0643 10.9647 29.0262 10.966 28.9879C10.966 28.9051 10.998 28.8422 11.0613 28.7906C11.1258 28.7395 11.2086 28.7141 11.3188 28.7141C11.4906 28.7141 11.6383 28.7598 11.7727 28.8563V28.5359C11.6392 28.4708 11.4922 28.4383 11.3438 28.441ZM7.9793 28.4516C7.86406 28.4516 7.76172 28.4906 7.67071 28.5617C7.57578 28.6371 7.5 28.7524 7.45508 28.8988H7.44727V28.4906H7.12852V30.4856H7.44805V29.4621L7.45508 29.4609C7.45508 29.2317 7.50586 29.0469 7.60156 28.9188C7.69115 28.8037 7.8 28.7458 7.92813 28.7453C8.03672 28.7453 8.11367 28.7652 8.16992 28.8102V28.477C8.12617 28.4574 8.06211 28.4516 7.9793 28.4516ZM4.35899 28.6106V30.3516H4.64024V28.6106H4.35899ZM13.1922 28.7012C13.3902 28.7012 13.5492 28.7649 13.6648 28.8926C13.7668 29.0332 13.825 29.2258 13.825 29.4816H13.8258C13.8258 29.725 13.7738 29.9168 13.6656 30.0449C13.5566 30.1793 13.3969 30.25 13.1852 30.25C12.9801 30.25 12.8215 30.1793 12.6996 30.0449C12.5785 29.9102 12.5199 29.725 12.5199 29.4816C12.5199 29.225 12.584 29.0262 12.7125 28.8926C12.8336 28.765 12.9935 28.7012 13.1922 28.7012ZM9.31602 28.7074C9.52149 28.7074 9.67539 28.7711 9.78946 28.8996C9.90469 29.034 9.96211 29.225 9.96211 29.4816C9.96211 29.7246 9.91055 29.9168 9.80196 30.0449C9.69375 30.1793 9.53399 30.25 9.32266 30.25C9.11758 30.25 8.95781 30.1793 8.83594 30.0449C8.71485 29.9102 8.65742 29.725 8.65742 29.4816C8.64492 29.2395 8.7086 29.0414 8.83594 28.8996C8.95781 28.7712 9.11784 28.7072 9.31602 28.7074ZM3.1875 31.2328C1.92188 31.2141 1.10274 31.6289 0.719533 32.4738C0.155861 33.7211 0.65508 34.6613 2.45781 35.7102C3.47031 36.2988 3.9168 36.8109 3.9168 37.3684C3.9168 38.5199 2.52891 38.9219 1.09649 38.1992C0.801955 38.0524 0.552346 37.9297 0.538674 37.9297C0.487111 38.2563 0.513283 39.0375 0.513283 39.0375C0.513283 39.0375 0.954299 39.2227 1.61445 39.35C3.25117 39.6766 4.74141 38.9082 4.88203 37.6613C5.00469 36.4906 4.58086 35.8766 2.97695 34.9184V34.9192C1.90899 34.2719 1.43555 33.8059 1.49375 33.2551C1.65938 31.7332 3.53945 31.9441 4.58125 32.5199L4.58906 31.4957C4.58906 31.4957 4.01289 31.2457 3.1875 31.2328ZM9.48828 31.2328V31.2336C9.41133 31.2336 9.33438 31.2414 9.2582 31.2414C7.70352 31.3238 6.6543 32.0086 6.04102 33.3453C5.51641 34.5539 5.57383 36.1336 6.04688 37.35C6.59688 38.5383 7.48594 39.1656 8.96992 39.4024C9.2836 39.4539 9.49414 39.6254 10.1027 40.3352L10.8504 41.2125H12.2078L11.3055 40.3024C10.8063 39.8039 10.4031 39.3695 10.4031 39.3313C10.4031 39.2934 10.5941 39.2102 10.825 39.1399C11.5867 38.9094 12.2184 38.3211 12.6609 37.4195C13.0188 36.6957 13.0703 36.4715 13.1219 35.5707C13.2559 32.8899 11.8422 31.2137 9.48828 31.2328ZM23.3871 31.2465C22.1207 31.2277 21.3023 31.6426 20.9184 32.4875C20.3555 33.7344 20.8609 34.675 22.6578 35.7242C23.6688 36.3125 24.1156 36.818 24.1156 37.375C24.1156 38.5266 22.7277 38.9352 21.2953 38.2059C21.002 38.0594 20.7523 37.9383 20.7383 37.9383C20.6871 38.2645 20.7129 39.0461 20.7129 39.0461C20.7129 39.0461 21.1484 39.2234 21.8066 39.3578C23.4449 39.6848 24.9348 38.918 25.0754 37.6711C25.1969 36.5063 24.775 35.8926 23.1758 34.9328V34.9313C22.1078 34.2859 21.6352 33.818 21.6926 33.2672C21.8582 31.7453 23.7387 31.9566 24.7801 32.532L24.7879 31.5082C24.7879 31.5082 24.2121 31.2582 23.3871 31.2465ZM14.3484 31.3297V39.2359H18.525V38.3024H15.3414V31.3297H14.3484ZM9.41797 32.0648C11.0688 32.0648 12.0078 33.0754 12.1305 34.975C12.2273 36.5609 11.6961 37.7508 10.6793 38.2441L10.6785 38.2449C10.0184 38.5645 9.05977 38.6277 8.43399 38.3981C7.78711 38.1606 7.16055 37.4895 6.8793 36.7289C6.56602 35.8969 6.61094 34.3617 6.96914 33.6711C7.54453 32.5707 8.30547 32.0648 9.41797 32.0648ZM42.8387 33.4594C42.6338 33.462 42.4298 33.4856 42.2297 33.5297C40.9133 33.8746 40.1711 35.1367 40.2219 36.4352C40.2219 37.5207 40.4328 38.0594 40.9574 38.6285C42.0316 39.5113 43.0043 39.5813 44.3219 39.1078C44.4777 39.0412 44.633 38.9735 44.7879 38.9047V38.0211L44.3211 38.2649C43.2574 38.7258 42.4578 38.7254 41.8195 38.1809C41.409 37.7656 41.2313 37.2727 41.1477 36.6965H45.1137V35.9414C45.1137 34.4086 44.1859 33.4352 42.8363 33.4609L42.8387 33.4594ZM49.9324 33.4594C49.7711 33.4594 49.6375 33.5109 49.5289 33.6207C49.4203 33.7285 49.3687 33.8629 49.3687 34.0168C49.3687 34.177 49.4203 34.3102 49.5281 34.4133C49.6362 34.5159 49.7707 34.5671 49.9316 34.5668C50.0906 34.5668 50.2246 34.5156 50.3352 34.4066C50.443 34.2973 50.5 34.1707 50.5 34.0113C50.4941 33.85 50.4363 33.716 50.3277 33.6137L50.3285 33.6129C50.276 33.5623 50.214 33.5226 50.1459 33.4963C50.0779 33.47 50.0053 33.4572 49.9324 33.4594ZM28.3313 33.4727C28.1292 33.4748 27.9279 33.4983 27.7309 33.543C26.4129 33.8879 25.6699 35.1492 25.7152 36.4473C25.7152 37.5344 25.9273 38.0785 26.4516 38.6484C27.5258 39.5301 28.4977 39.6 29.809 39.127C30.0324 39.0316 30.277 38.9215 30.277 38.9215V38.0395L29.809 38.282C28.7477 38.7441 27.9488 38.7441 27.3082 38.2C26.9 37.784 26.7191 37.2856 26.6367 36.7156H30.6086V35.9609C30.6086 34.4211 29.682 33.4488 28.3328 33.4727H28.332H28.3313ZM48.6262 33.5109C48.057 33.5109 47.6164 33.7414 47.3277 34.1961L47.0973 34.5539V33.6203H46.1125V39.2231H47.0969V37.4324C47.0969 35.7949 47.1164 35.6027 47.3461 35.1551C47.6617 34.5414 48.2051 34.2344 48.7293 34.382L49.0809 34.4844V33.5109H48.6262ZM49.925 33.5188C50.0645 33.5188 50.1805 33.5617 50.2773 33.6574C50.3723 33.7543 50.4238 33.8699 50.4238 34.009C50.4238 34.1578 50.3797 34.2723 50.2773 34.3691C50.2313 34.4153 50.1762 34.4514 50.1156 34.4754C50.055 34.4994 49.9901 34.5107 49.925 34.5086C49.7855 34.5086 49.6699 34.4645 49.5734 34.3691C49.5261 34.3222 49.4886 34.2662 49.4634 34.2044C49.4381 34.1427 49.4256 34.0765 49.4266 34.0098C49.4266 33.8703 49.4707 33.7543 49.5672 33.6574C49.6625 33.5621 49.7777 33.5188 49.925 33.5188ZM34.1199 33.5238C33.5508 33.5238 33.1148 33.7543 32.8211 34.2082L32.5906 34.5676V33.6328H31.6066V39.2367H32.591V37.4453C32.591 35.8074 32.6113 35.616 32.8402 35.168C33.1555 34.5531 33.698 34.2469 34.223 34.3934L34.5746 34.4965V33.5254H34.1207L34.1199 33.5238ZM34.8871 33.6262C35.5544 35.5079 36.254 37.3779 36.9855 39.2356C37.2992 39.243 37.6129 39.2356 37.9262 39.2356L39.0316 36.4594L40.1566 33.6266H39.1855C39.1855 33.6266 38.7559 34.7523 38.3082 36.0125L38.3098 36.0117L37.491 38.1418L36.7039 35.9996L35.9043 33.6258L34.8871 33.6262ZM49.7012 33.6527V34.3684H49.8043V34.0668H49.8684C49.9121 34.0668 49.9559 34.1117 49.9957 34.1953L50.0723 34.3676H50.1941L50.0988 34.1754C50.066 34.093 50.0277 34.0555 49.9895 34.0426C50.04 34.0323 50.0866 34.0079 50.1238 33.9723C50.155 33.9368 50.171 33.8905 50.1684 33.8434C50.1698 33.8181 50.1654 33.7927 50.1554 33.7694C50.1455 33.7461 50.1302 33.7254 50.1109 33.709C50.0668 33.6723 49.9961 33.6527 49.9059 33.6527H49.7012ZM49.809 33.7359H49.8996C49.9637 33.7359 50.0082 33.7477 50.034 33.7672C50.0598 33.7867 50.0652 33.8113 50.0652 33.857C50.0652 33.9399 50.0137 33.9781 49.9188 33.9781H49.809V33.7359ZM42.7801 34.2984C43.0738 34.2984 43.3684 34.393 43.6113 34.5789C44.1102 34.9629 44.1945 35.9102 44.1945 35.9102H41.2336C41.2367 35.8914 41.3859 34.9531 41.9238 34.5727C42.174 34.3948 42.4731 34.2993 42.7801 34.2984ZM28.2742 34.3172C28.5748 34.317 28.8671 34.4158 29.1059 34.5984C29.6047 34.9824 29.6879 35.9227 29.6879 35.9227H26.7277C26.7309 35.9016 26.8789 34.9645 27.4172 34.5918C27.6676 34.4138 27.967 34.3178 28.2742 34.3172Z" fill="#2F4157"/>
</svg>
