<svg width="30" height="30" viewBox="0 0 30 30" fill="none" xmlns="http://www.w3.org/2000/svg">
<rect width="30" height="30" rx="2" fill="#E0E0DF"/>
<path d="M10.5 13.2V15C10.5 15.6003 10.86 16.8 12.3 16.8C13.74 16.8 14.1 15.6003 14.1 15V13.2M16.8 13.2L18.15 15M18.15 15L19.5 16.8M18.15 15L19.5 13.2M18.15 15L16.8 16.8" stroke="#2F4157" stroke-width="2" stroke-linecap="round" stroke-linejoin="round"/>
<path d="M15 24C19.9706 24 24 19.9706 24 15C24 10.0294 19.9706 6 15 6C10.0294 6 6 10.0294 6 15C6 19.9706 10.0294 24 15 24Z" stroke="#2F4157" stroke-width="2" stroke-linecap="round" stroke-linejoin="round"/>
</svg>
