<svg width="30" height="30" viewBox="0 0 30 30" fill="none" xmlns="http://www.w3.org/2000/svg">
<path d="M8.75 12.5V15C8.75 15.8337 9.25 17.5 11.25 17.5C13.25 17.5 13.75 15.8337 13.75 15V12.5M17.5 12.5L19.375 15M19.375 15L21.25 17.5M19.375 15L21.25 12.5M19.375 15L17.5 17.5" stroke="#2F4157" stroke-width="2" stroke-linecap="round" stroke-linejoin="round"/>
<path d="M15 27.5C21.9036 27.5 27.5 21.9036 27.5 15C27.5 8.09644 21.9036 2.5 15 2.5C8.09644 2.5 2.5 8.09644 2.5 15C2.5 21.9036 8.09644 27.5 15 27.5Z" stroke="#2F4157" stroke-width="2" stroke-linecap="round" stroke-linejoin="round"/>
</svg>
