<svg width="20" height="20" viewBox="0 0 20 20" fill="none" xmlns="http://www.w3.org/2000/svg">
<path d="M5.83337 8.33331V9.99998C5.83337 10.5558 6.16671 11.6666 7.50004 11.6666C8.83337 11.6666 9.16671 10.5558 9.16671 9.99998V8.33331M11.6667 8.33331L12.9167 9.99998M12.9167 9.99998L14.1667 11.6666M12.9167 9.99998L14.1667 8.33331M12.9167 9.99998L11.6667 11.6666" stroke="#2F4157" stroke-width="1.33333" stroke-linecap="round" stroke-linejoin="round"/>
<path d="M10 18.3334C14.6024 18.3334 18.3334 14.6024 18.3334 10C18.3334 5.39765 14.6024 1.66669 10 1.66669C5.39765 1.66669 1.66669 5.39765 1.66669 10C1.66669 14.6024 5.39765 18.3334 10 18.3334Z" stroke="#2F4157" stroke-width="1.33333" stroke-linecap="round" stroke-linejoin="round"/>
</svg>
