<svg width="224" height="152" viewBox="0 0 224 152" fill="none" xmlns="http://www.w3.org/2000/svg">
<path d="M-57.0295 17.124C-58.5908 17.2166 -60.0921 17.7583 -61.3528 18.6839C-62.6136 19.6094 -63.5802 20.8795 -64.1364 22.3413C-64.6925 23.8031 -64.8146 25.3944 -64.4879 26.924C-64.1612 28.4535 -63.3996 29.8561 -62.2948 30.9631L4.37868 97.7993C5.4788 98.9011 6.87253 99.6633 8.39373 99.995C9.91494 100.327 11.4994 100.214 12.9584 99.6704L118.621 60.0768C122.926 58.4727 126.173 64.0973 122.632 67.0232L35.5254 138.725C34.3211 139.716 33.4276 141.032 32.9517 142.517C32.4758 144.002 32.4377 145.593 32.8419 147.099L57.387 238.258C57.7933 239.768 58.6272 241.129 59.7884 242.177C60.9497 243.225 62.3889 243.915 63.9329 244.164C65.477 244.413 67.0602 244.211 68.4921 243.582C69.9241 242.953 71.1438 241.924 72.0047 240.618L222.039 13.38C222.868 12.1222 223.331 10.6585 223.375 9.15279C223.419 7.64709 223.044 6.15869 222.291 4.85413C221.538 3.54958 220.436 2.4803 219.11 1.76591C217.784 1.05153 216.285 0.720232 214.781 0.809041L-57.0295 17.124Z" fill="#485A70"/>
</svg>
