<svg width="196" height="151" viewBox="0 0 196 151" fill="none" xmlns="http://www.w3.org/2000/svg">
<path d="M280.628 17.124C282.19 17.2166 283.691 17.7583 284.952 18.6839C286.212 19.6094 287.179 20.8795 287.735 22.3413C288.291 23.8031 288.413 25.3944 288.087 26.924C287.76 28.4535 286.998 29.8561 285.894 30.9631L219.22 97.7993C218.12 98.9011 216.726 99.6633 215.205 99.995C213.684 100.327 212.099 100.214 210.64 99.6704L104.977 60.0768C100.673 58.4727 97.4253 64.0973 100.967 67.0232L188.073 138.725C189.278 139.716 190.171 141.032 190.647 142.517C191.123 144.002 191.161 145.593 190.757 147.099L166.212 238.258C165.805 239.768 164.972 241.129 163.81 242.177C162.649 243.225 161.21 243.915 159.666 244.164C158.122 244.413 156.539 244.211 155.107 243.582C153.675 242.953 152.455 241.924 151.594 240.618L1.55945 13.38C0.730667 12.1222 0.268178 10.6585 0.223758 9.15279C0.179338 7.64709 0.554697 6.15869 1.30789 4.85413C2.06107 3.54958 3.16238 2.4803 4.48857 1.76591C5.81476 1.05153 7.31357 0.720232 8.81731 0.809041L280.628 17.124Z" fill="#485A70"/>
</svg>
